<mxfile host="app.diagrams.net" modified="2023-11-08T10:54:27.391Z" agent="Mozilla/5.0 (X11; Linux x86_64) AppleWebKit/537.36 (KHTML, like Gecko) Chrome/118.0.0.0 Safari/537.36" etag="c6CWvGNNxwxQ6BPyTd-J" version="22.0.8" type="github">
  <diagram name="Страница — 1" id="n8q2MBub-U9lG9Tp4yIM">
    <mxGraphModel dx="2261" dy="725" grid="1" gridSize="10" guides="1" tooltips="1" connect="1" arrows="1" fold="1" page="1" pageScale="1" pageWidth="827" pageHeight="1169" math="0" shadow="0">
      <root>
        <mxCell id="0" />
        <mxCell id="1" parent="0" />
        <mxCell id="6p9jYXADkKIyNsR3x7E2-1" value="&lt;font style=&quot;font-size: 16px ; font-family: &amp;#34;calibri&amp;#34; ; color: #5c5c5c ; direction: ltr ; letter-spacing: 0px ; line-height: 120% ; opacity: 1&quot;&gt;VMs&lt;/font&gt;&lt;font style=&quot;font-size: 16px ; font-family: &amp;#34;calibri&amp;#34; ; color: #5c5c5c ; direction: ltr ; letter-spacing: 0px ; line-height: 120% ; opacity: 1&quot;&gt; &lt;br&gt;&lt;/font&gt;&lt;div&gt;&lt;font style=&quot;font-size: 16px ; font-family: &amp;#34;calibri&amp;#34; ; color: #5c5c5c ; direction: ltr ; letter-spacing: 0px ; line-height: 120% ; opacity: 1&quot;&gt;&lt;br&gt;&lt;/font&gt;&lt;/div&gt;&lt;font style=&quot;font-size: 16px ; font-family: &amp;#34;calibri&amp;#34; ; color: #5c5c5c ; direction: ltr ; letter-spacing: 0px ; line-height: 120% ; opacity: 1&quot;&gt;172.28.79.2 - nginx&lt;br&gt;172.28.79.3 - лесохран&lt;br&gt;&lt;/font&gt;&lt;div align=&quot;center&quot;&gt;&lt;font style=&quot;font-size: 16px ; font-family: &amp;#34;calibri&amp;#34; ; color: #5c5c5c ; direction: ltr ; letter-spacing: 0px ; line-height: 120% ; opacity: 1&quot;&gt;172.28.79.4 - дым детекция&lt;/font&gt;&lt;/div&gt;" style="text;html=1;resizable=0;points=[];autosize=1;align=center;verticalAlign=top;spacingTop=-4;" parent="1" vertex="1">
          <mxGeometry x="2990" y="482.5" width="200" height="100" as="geometry" />
        </mxCell>
        <mxCell id="6p9jYXADkKIyNsR3x7E2-2" style="vsdxID=719;fillColor=none;gradientColor=none;strokeColor=none;strokeWidth=3;labelBackgroundColor=none;rounded=0;html=1;whiteSpace=wrap;" parent="1" vertex="1">
          <mxGeometry x="3041" y="382.5" width="100" height="100" as="geometry" />
        </mxCell>
        <mxCell id="6p9jYXADkKIyNsR3x7E2-3" style="vsdxID=720;fillColor=#ffffff;gradientColor=none;shape=stencil(UzV2Ls5ILEhVNTIoLinKz04tz0wpyVA1dlE1MsrMy0gtyiwBslSNXVWNndPyi1LTi/JL81Ig/IJEkEoQKze/DGRCBUSfAUiHkUElhGdoAOG7QZTmZOYhKYVJkqUYj1IyFaJZD2Qg/JiWmZMDCSK4PK4AMCXBU6Z4nIpiP5rdQAZ6fACFIHFp7AoA);strokeColor=#a5a5a5;strokeWidth=3;labelBackgroundColor=none;rounded=0;html=1;whiteSpace=wrap;" parent="6p9jYXADkKIyNsR3x7E2-2" vertex="1">
          <mxGeometry x="8" width="83" height="100" as="geometry" />
        </mxCell>
        <mxCell id="6p9jYXADkKIyNsR3x7E2-4" style="vsdxID=721;fillColor=#a5a5a5;gradientColor=none;shape=stencil(pZfbcoJAEES/htep2V1u+2yS/7BKjFSMWGhufx8IZUV2dMbWN8Tu5TQ9q5CFxWGz3DeZ58Ox796ar3Z13GThKfO+3W2avj0OR1l4zsJi3fXNa9997FbT5/1yVI5H793nuML35KsCcT26PP9MZ3xBMf878zIZtu3uzBAjlfExA1Oh6CURqhdA88iByeUzg2Oqw/UrhEBV9ZiBFbHAgcQCxQrrS8ohdtjgCiqhCKBeAM0je0dFQOoa5sWVjxmUyiQOJDb6lQajLskOG/S+LkQA9Ua/NZUOact58tB+lwalMUGDaI1yhd6oSoLDBr0rGQCTG80y9CNLJbTLhV4piu8TGnWyfi8MXFSvV8N3a40Oy5ry+d9xXRDH66tfMFTklZllTtVOWV7Ii9Pjwq00Kb6VNzrKobwxaHc/DQCqYZjUYMatqIaucEK8iR8SwyjCMA87PEcikxmq0627W69vFcmD6hMeI64+ahIf1uvDKXlQfcJjxFVnTdKDcmM4JTyoT3CGg/93vnW73Z5/k74dDqemN8vw/As=);strokeColor=#a5a5a5;strokeWidth=3;labelBackgroundColor=none;rounded=0;html=1;whiteSpace=wrap;" parent="6p9jYXADkKIyNsR3x7E2-2" vertex="1">
          <mxGeometry x="16" y="9" width="69" height="83" as="geometry" />
        </mxCell>
        <mxCell id="6p9jYXADkKIyNsR3x7E2-5" style="vsdxID=722;fillColor=#5b9bd5;gradientColor=none;shape=stencil(zZjdcoMgEIWfxkt3gPUHrtP0PZjGJE5tzKBt0rcvFjMpOmgSK/EOYYE936xHJMBVtZfHLGCkqlX5np3yTb0P8CVgLD/sM5XXuhXgOsDVtlTZTpWfh415Psomsml9lF/NCmczLxVARDOLkW/TkwChvx2vJl6qNz2o2nhKIOUmXrUTriu0MUIAUmtNygDbkFCe8ypUZS3rvDyYYWLGCql2Waj3C7eF3FlD1SnLjr1uZ4bpSIYDqmfJsMecRdbuyEDgNEkaOk3sRQXweGHUnbr9YEe0to8FCD4ZO0ntSkqBpQvD7tT9FOxcExqxmPuxiwiWVuxO2R6o65c/tbdPIGLTJCUEGLd9nQIXPqmPfXoGZPuBzjsGh4DJNEmaet/Y59R0f2EM6faDXdjnDc0sGvme3oC9e0RIgC8Nu1P3U7Brh0umV3sHuzZ2sihnH9LtATsB7Bw4Li/f7dCpJYhRYLZpal+PvJ5hRjJ0a/YCPOr4L16MYAJx2jFMDmLGEnqAuFO0F+Rxz9jEvX+lPeR9P8cZi+gB5E7Rz0DO+aVG/w+5QIiX5StO0bMkqBvXi5htXhR/R7pXNrrLXPfg+gc=);strokeColor=#5b9bd5;strokeWidth=3;labelBackgroundColor=none;rounded=0;html=1;whiteSpace=wrap;" parent="6p9jYXADkKIyNsR3x7E2-2" vertex="1">
          <mxGeometry x="69" y="11" width="14" height="17" as="geometry" />
        </mxCell>
        <mxCell id="6p9jYXADkKIyNsR3x7E2-6" value="DL385 Gen10 Plus" style="text;html=1;resizable=0;points=[];autosize=1;align=left;verticalAlign=top;spacingTop=-4;" parent="1" vertex="1">
          <mxGeometry x="3081" y="330" width="120" height="20" as="geometry" />
        </mxCell>
        <mxCell id="6p9jYXADkKIyNsR3x7E2-7" value="&lt;div style=&quot;font-size: 13px;&quot;&gt;&lt;font style=&quot;font-size: 25px;&quot;&gt;Зона ответственности IoT&lt;br&gt;&lt;/font&gt;&lt;/div&gt;" style="text;html=1;align=center;verticalAlign=middle;resizable=0;points=[];autosize=1;strokeColor=none;fillColor=none;" parent="1" vertex="1">
          <mxGeometry x="2931" y="40" width="300" height="40" as="geometry" />
        </mxCell>
        <mxCell id="6p9jYXADkKIyNsR3x7E2-8" value="" style="endArrow=none;html=1;rounded=0;strokeWidth=5;fillColor=#ffe6cc;strokeColor=#ED7D31;dashed=1;dashPattern=8 8;" parent="1" edge="1">
          <mxGeometry width="50" height="50" relative="1" as="geometry">
            <mxPoint x="3240" y="560" as="sourcePoint" />
            <mxPoint x="3240" y="40" as="targetPoint" />
          </mxGeometry>
        </mxCell>
        <mxCell id="6p9jYXADkKIyNsR3x7E2-9" value="&lt;div&gt;&lt;b&gt;&lt;font style=&quot;font-size: 16px&quot;&gt;Доступы в интернет&lt;/font&gt;&lt;/b&gt;&lt;/div&gt;&lt;div&gt;&lt;b&gt;&lt;font style=&quot;font-size: 16px&quot;&gt;&lt;br&gt;&lt;/font&gt;&lt;/b&gt;&lt;/div&gt;&lt;div&gt;&lt;font style=&quot;font-size: 16px&quot;&gt;tcp/80, tcp/443, udp/1701, udp/500, udp/4500, esp/50, ah/51, tcp/25, tcp/3306&lt;br&gt;&lt;/font&gt;&lt;/div&gt;" style="text;html=1;strokeColor=none;fillColor=none;align=center;verticalAlign=middle;whiteSpace=wrap;rounded=0;" parent="1" vertex="1">
          <mxGeometry x="2163" y="799" width="130" height="190" as="geometry" />
        </mxCell>
        <mxCell id="6p9jYXADkKIyNsR3x7E2-10" value="&lt;div&gt;&lt;b&gt;&lt;font style=&quot;font-size: 16px&quot;&gt;Доступы из интернета&lt;/font&gt;&lt;/b&gt;&lt;/div&gt;&lt;div&gt;&lt;b&gt;&lt;font style=&quot;font-size: 16px&quot;&gt;&lt;br&gt;&lt;/font&gt;&lt;/b&gt;&lt;/div&gt;&lt;div&gt;&lt;font style=&quot;font-size: 16px&quot;&gt;tcp/80, tcp/443, &lt;br&gt;tcp/8080, tcp/8443&lt;br&gt;&lt;/font&gt;&lt;/div&gt;" style="text;html=1;strokeColor=none;fillColor=none;align=center;verticalAlign=middle;whiteSpace=wrap;rounded=0;" parent="1" vertex="1">
          <mxGeometry x="2342" y="770" width="150" height="170" as="geometry" />
        </mxCell>
        <mxCell id="6p9jYXADkKIyNsR3x7E2-11" value="&lt;div&gt;&lt;b&gt;&lt;font style=&quot;font-size: 16px&quot;&gt;Доступы из корп сети&lt;/font&gt;&lt;/b&gt;&lt;/div&gt;&lt;div&gt;&lt;b&gt;&lt;font style=&quot;font-size: 16px&quot;&gt;&lt;br&gt;&lt;/font&gt;&lt;/b&gt;&lt;/div&gt;&lt;div&gt;&lt;font style=&quot;font-size: 16px&quot;&gt;tcp/80, tcp/443, &lt;br&gt;&lt;/font&gt;&lt;/div&gt;&lt;div&gt;&lt;font style=&quot;font-size: 16px&quot;&gt;tcp/22, ICMP&lt;br&gt;&lt;/font&gt;&lt;/div&gt;" style="text;html=1;strokeColor=none;fillColor=none;align=center;verticalAlign=middle;whiteSpace=wrap;rounded=0;" parent="1" vertex="1">
          <mxGeometry x="1800" y="814" width="130" height="82" as="geometry" />
        </mxCell>
        <mxCell id="6p9jYXADkKIyNsR3x7E2-12" value="&lt;div&gt;&lt;font style=&quot;font-size: 16px&quot;&gt;&lt;b&gt;Доступы от сервера до камер&lt;/b&gt;&lt;/font&gt;&lt;/div&gt;&lt;div&gt;&lt;font style=&quot;font-size: 16px&quot;&gt;&lt;br&gt;&lt;/font&gt;&lt;/div&gt;&lt;div&gt;&lt;font style=&quot;font-size: 16px&quot;&gt;tcp/80, tcp/443, tcp/554, ICMP&lt;/font&gt;&lt;/div&gt;" style="text;html=1;strokeColor=none;fillColor=none;align=center;verticalAlign=middle;whiteSpace=wrap;rounded=0;" parent="1" vertex="1">
          <mxGeometry x="1979" y="790" width="135" height="130" as="geometry" />
        </mxCell>
        <mxCell id="6p9jYXADkKIyNsR3x7E2-13" value="&lt;font style=&quot;font-size: 16px ; font-family: &amp;#34;calibri&amp;#34; ; color: #000000 ; direction: ltr ; letter-spacing: 0px ; line-height: 120% ; opacity: 1&quot;&gt;Port &lt;/font&gt;&lt;font style=&quot;font-size: 16px ; font-family: &amp;#34;calibri&amp;#34; ; color: #000000 ; direction: ltr ; letter-spacing: 0px ; line-height: 120% ; opacity: 1&quot;&gt;6/1/2.555&lt;br&gt;&lt;/font&gt;" style="verticalAlign=middle;align=center;vsdxID=511;fillColor=none;gradientColor=none;shape=stencil(nZBLDoAgDERP0z3SIyjew0SURgSD+Lu9kMZoXLhwN9O+tukAlrNpJg1SzDH4QW/URgNYgZTkjA4UkwJUgGXng+6DX1zLfmoymdXo17xh5zmRJ6Q42BWCfc2oJfdAr+Yv+AP9Cb7OJ3H/2JG1HNGz/84klThPVCc=);strokeColor=none;strokeWidth=3;labelBackgroundColor=none;rounded=0;html=1;whiteSpace=wrap;" parent="1" vertex="1">
          <mxGeometry x="1668" y="287.5" width="120" height="31" as="geometry" />
        </mxCell>
        <mxCell id="6p9jYXADkKIyNsR3x7E2-14" value="&lt;font style=&quot;font-size: 16px&quot; face=&quot;calibri&quot;&gt;Eth5/28&lt;/font&gt;" style="text;html=1;resizable=0;points=[];autosize=1;align=left;verticalAlign=top;spacingTop=-4;" parent="1" vertex="1">
          <mxGeometry x="2535" y="230.5" width="70" height="20" as="geometry" />
        </mxCell>
        <mxCell id="6p9jYXADkKIyNsR3x7E2-15" value="&lt;b&gt;&lt;font style=&quot;font-family: &amp;#34;calibri&amp;#34; ; color: rgb(31 , 73 , 125) ; direction: ltr ; letter-spacing: 0px ; line-height: 120% ; opacity: 1 ; font-size: 16px&quot;&gt;alma-sw-border-suyu-01&lt;/font&gt;&lt;font style=&quot;font-family: &amp;#34;arial&amp;#34; ; color: rgb(0 , 0 , 0) ; direction: ltr ; letter-spacing: 0px ; line-height: 120% ; opacity: 1 ; font-size: 16px&quot;&gt;&lt;br&gt;&lt;/font&gt;&lt;/b&gt;" style="text;html=1;resizable=0;points=[];autosize=1;align=left;verticalAlign=top;spacingTop=-4;" parent="1" vertex="1">
          <mxGeometry x="1850" y="200.5" width="180" height="20" as="geometry" />
        </mxCell>
        <mxCell id="6p9jYXADkKIyNsR3x7E2-16" value="&lt;font style=&quot;font-size: 16px ; font-family: &amp;#34;calibri&amp;#34; ; color: #000000 ; direction: ltr ; letter-spacing: 0px ; line-height: 120% ; opacity: 1&quot;&gt;MRT01.SNBAV.ALM / &lt;br&gt;&lt;/font&gt;&lt;font style=&quot;font-size: 16px ; font-family: &amp;#34;calibri&amp;#34; ; color: #000000 ; direction: ltr ; letter-spacing: 0px ; line-height: 120% ; opacity: 1&quot;&gt;MRT02.SNBAV.ALM&lt;br&gt;&lt;/font&gt;" style="text;html=1;resizable=0;points=[];autosize=1;align=left;verticalAlign=top;spacingTop=-4;" parent="1" vertex="1">
          <mxGeometry x="1590" y="330" width="150" height="40" as="geometry" />
        </mxCell>
        <mxCell id="6p9jYXADkKIyNsR3x7E2-17" value="&lt;font style=&quot;font-size: 16px&quot; face=&quot;calibri&quot;&gt;Eth5/28&lt;/font&gt;" style="text;html=1;resizable=0;points=[];autosize=1;align=left;verticalAlign=top;spacingTop=-4;" parent="1" vertex="1">
          <mxGeometry x="2540" y="414.5" width="70" height="20" as="geometry" />
        </mxCell>
        <mxCell id="6p9jYXADkKIyNsR3x7E2-18" value="&lt;div style=&quot;font-size: 16px&quot;&gt;&lt;font style=&quot;font-size: 16px&quot;&gt;Nexus 7700&lt;br&gt;&amp;nbsp;&lt;/font&gt;&lt;font style=&quot;font-size: 16px&quot;&gt;alma-sw-suyu-nexus&lt;/font&gt;&lt;font style=&quot;font-size: 16px&quot;&gt;7-02&lt;font style=&quot;font-size: 16px&quot;&gt;&lt;br&gt;&lt;/font&gt;&lt;/font&gt;&lt;/div&gt;" style="shape=mxgraph.cisco.switches.workgroup_switch;sketch=0;html=1;pointerEvents=1;dashed=0;fillColor=#036897;strokeColor=#ffffff;strokeWidth=2;verticalLabelPosition=bottom;verticalAlign=top;align=center;outlineConnect=0;" parent="1" vertex="1">
          <mxGeometry x="2430" y="410.5" width="101" height="50" as="geometry" />
        </mxCell>
        <mxCell id="6p9jYXADkKIyNsR3x7E2-19" value="&lt;font style=&quot;font-size: 19px ; font-family: &amp;#34;calibri&amp;#34; ; color: #ff0000 ; direction: ltr ; letter-spacing: 0px ; line-height: 120% ; opacity: 1&quot;&gt;&lt;b&gt;alma-fw-inet-suyu-02&lt;/b&gt;&lt;/font&gt;&lt;font style=&quot;font-size: 16px ; font-family: &amp;#34;themed&amp;#34; ; color: #5c5c5c ; direction: ltr ; letter-spacing: 0px ; line-height: 120% ; opacity: 1&quot;&gt;&lt;br&gt;&lt;/font&gt;" style="verticalAlign=middle;align=center;vsdxID=697;fillColor=none;gradientColor=none;shape=stencil(nZBLDoAgDERP0z3SIyjew0SURgSD+Lu9kMZoXLhwN9O+tukAlrNpJg1SzDH4QW/URgNYgZTkjA4UkwJUgGXng+6DX1zLfmoymdXo17xh5zmRJ6Q42BWCfc2oJfdAr+Yv+AP9Cb7OJ3H/2JG1HNGz/84klThPVCc=);strokeColor=none;strokeWidth=3;labelBackgroundColor=none;rounded=0;html=1;whiteSpace=wrap;" parent="1" vertex="1">
          <mxGeometry x="2022.5" y="494.5" width="214" height="28" as="geometry" />
        </mxCell>
        <mxCell id="6p9jYXADkKIyNsR3x7E2-20" style="vsdxID=714;fillColor=none;gradientColor=none;strokeColor=none;strokeWidth=3;labelBackgroundColor=none;rounded=0;html=1;whiteSpace=wrap;" parent="1" vertex="1">
          <mxGeometry x="2110.5" y="444.5" width="100" height="100" as="geometry" />
        </mxCell>
        <mxCell id="6p9jYXADkKIyNsR3x7E2-21" style="vsdxID=715;fillColor=#ffffff;gradientColor=none;shape=stencil(UzV2Ls5ILEhVNTIoLinKz04tz0wpyVA1dlE1MsrMy0gtyiwBslSNXVWNndPyi1LTi/JL81Ig/IJEkEoQKze/DGRCBUSfoYEBSI+RQSWED+G5QZTmZOYhKSVTIcwGrErRrSdJMYpSIAPhx7TMnBxIECHLo4cJUAgSnsauAA==);strokeColor=#a5a5a5;strokeWidth=3;labelBackgroundColor=none;rounded=0;html=1;whiteSpace=wrap;" parent="6p9jYXADkKIyNsR3x7E2-20" vertex="1">
          <mxGeometry x="-30" y="-44" width="98" height="78" as="geometry" />
        </mxCell>
        <mxCell id="6p9jYXADkKIyNsR3x7E2-22" style="vsdxID=716;fillColor=#a5a5a5;gradientColor=none;shape=stencil(lZbbTsMwDIafJrdRDs1crsd4j0krtALWqes4vD0tQWKLwX98l3ZfPlnVP9smbs/9/tSZ4M7zND5378Nh7k28NyEMx76bhnk5mbgzcfs4Tt3TNF6Oh/x82q/kenod31bDR77n1hvBfeanNlny328eMvwyHK9g7wAuucnbJta7GS65E1nf1LsZLrmbYNtNvZvhkju0NlG9m+GS2zc23NW7GX7rDumW/rn9p7pgQUqSqzcnVf5IUTOpavbBAr742CUP0h1J52c88G+U9TMe+Ftl/YwH/gBoMY/g359UbSupOgup6iZV3SxjqCmWPOhcLGPAz3jgZxkDfsYDP8sY8DMe+AOgxUyCzp5UIymppgap6iZV3SxjaOCVPJhKLGPAz3jgZxkDfsYDP8sY8DNeObXllaCg3f/ecmbL3oIWvOXElr0k1LscflfevC1f/1aux8urvFrH3Rc=);strokeColor=#a5a5a5;strokeWidth=3;labelBackgroundColor=none;rounded=0;html=1;whiteSpace=wrap;" parent="6p9jYXADkKIyNsR3x7E2-20" vertex="1">
          <mxGeometry x="-28" y="-42" width="95" height="75" as="geometry" />
        </mxCell>
        <mxCell id="6p9jYXADkKIyNsR3x7E2-23" value="&lt;font style=&quot;font-size:16px;font-family:Calibri;color:#5c5c5c;direction:ltr;letter-spacing:0px;line-height:120%;opacity:1&quot;&gt;Eth1/15.98&lt;br/&gt;&lt;/font&gt;" style="verticalAlign=middle;align=center;vsdxID=717;fillColor=#ffffff;gradientColor=none;shape=stencil(nZBLDoAgDERP0z3SIyjew0SURgSD+Lu9kMZoXLhwN9O+tukAlrNpJg1SzDH4QW/URgNYgZTkjA4UkwJUgGXng+6DX1zLfmoymdXo17xh5zmRJ6Q42BWCfc2oJfdAr+Yv+AP9Cb7OJ3H/2JG1HNGz/84klThPVCc=);strokeColor=#a5a5a5;strokeWidth=3;labelBackgroundColor=none;rounded=0;html=1;whiteSpace=wrap;" parent="1" vertex="1">
          <mxGeometry x="2190" y="396.5" width="95" height="31" as="geometry" />
        </mxCell>
        <mxCell id="6p9jYXADkKIyNsR3x7E2-24" value="&lt;font style=&quot;font-size:16px;font-family:Calibri;color:#5c5c5c;direction:ltr;letter-spacing:0px;line-height:120%;opacity:1&quot;&gt;Po1&lt;br/&gt;&lt;/font&gt;" style="verticalAlign=middle;align=center;vsdxID=718;fillColor=#ffffff;gradientColor=none;shape=stencil(nZBLDoAgDERP0z3SIyjew0SURgSD+Lu9kMZoXLhwN9O+tukAlrNpJg1SzDH4QW/URgNYgZTkjA4UkwJUgGXng+6DX1zLfmoymdXo17xh5zmRJ6Q42BWCfc2oJfdAr+Yv+AP9Cb7OJ3H/2JG1HNGz/84klThPVCc=);strokeColor=#a5a5a5;strokeWidth=3;labelBackgroundColor=none;rounded=0;html=1;whiteSpace=wrap;" parent="1" vertex="1">
          <mxGeometry x="2026.5" y="404.5" width="44" height="31" as="geometry" />
        </mxCell>
        <mxCell id="6p9jYXADkKIyNsR3x7E2-25" value="&lt;font style=&quot;font-size:16px;font-family:Calibri;color:#5c5c5c;direction:ltr;letter-spacing:0px;line-height:120%;opacity:1&quot;&gt;172.28.79.249/24 GW&lt;br/&gt;&lt;/font&gt;" style="verticalAlign=middle;align=center;vsdxID=730;fillColor=none;gradientColor=none;shape=stencil(nZBLDoAgDERP0z3SIyjew0SURgSD+Lu9kMZoXLhwN9O+tukAlrNpJg1SzDH4QW/URgNYgZTkjA4UkwJUgGXng+6DX1zLfmoymdXo17xh5zmRJ6Q42BWCfc2oJfdAr+Yv+AP9Cb7OJ3H/2JG1HNGz/84klThPVCc=);strokeColor=none;strokeWidth=3;labelBackgroundColor=none;rounded=0;html=1;whiteSpace=wrap;" parent="1" vertex="1">
          <mxGeometry x="2150" y="444.5" width="214" height="28" as="geometry" />
        </mxCell>
        <mxCell id="6p9jYXADkKIyNsR3x7E2-26" value="&lt;b&gt;&lt;font style=&quot;font-family: &amp;#34;calibri&amp;#34; ; color: rgb(31 , 73 , 125) ; direction: ltr ; letter-spacing: 0px ; line-height: 120% ; opacity: 1 ; font-size: 16px&quot;&gt;alma-sw-border-suyu-02 &lt;/font&gt;&lt;font style=&quot;font-family: &amp;#34;arial&amp;#34; ; color: rgb(0 , 0 , 0) ; direction: ltr ; letter-spacing: 0px ; line-height: 120% ; opacity: 1 ; font-size: 16px&quot;&gt;&lt;br&gt;&lt;/font&gt;&lt;/b&gt;" style="text;html=1;resizable=0;points=[];autosize=1;align=left;verticalAlign=top;spacingTop=-4;" parent="1" vertex="1">
          <mxGeometry x="1850" y="472.5" width="180" height="20" as="geometry" />
        </mxCell>
        <mxCell id="6p9jYXADkKIyNsR3x7E2-27" value="&lt;font style=&quot;font-size: 19px ; font-family: &amp;#34;arial&amp;#34; ; color: #000000 ; direction: ltr ; letter-spacing: 0px ; line-height: 120% ; opacity: 1&quot;&gt;&lt;b&gt;&lt;br&gt;&lt;/b&gt;&lt;/font&gt;" style="vsdxID=203;fillColor=none;gradientColor=none;image;aspect=fixed;image=data:image/png,iVBORw0KGgoAAAANSUhEUgAAAiIAAAJPCAIAAADOvCj5AAAizElEQVR4nO3dzbXj1pWA0fu8lITT6DSsaVUYHksRSGOHUTVVp9FpOAz2AFUUH39A/OOec/ZevVbbbqsKTV7ge+cC5Pu4XC4NMvr+37OPYKYv/zz7CGAHHzJDz8Kl4kQqRZ9khhOIx4nUiIPJDLsQkrh0iG3JDAt1FZKv/3f2Eezp2/+cfQQ3RIi5ZIY3Ds5J7mAc5vgyyQ+vyAw/HJATCenNATWSH2Smop2KoiLJ7Bch7SlFZvLbNipaQtuhQMKTmMyksmFR5IQFNsyP8KQhM7Ft0hVFYW+b5Ed4gpKZSNZHRVHox8r2qE4UMtO1lV0RFWJZEx7V6ZbM9GVNV0SFfBaHR3X6ITPnW5YWUaEg1YlIZk6gK7CVBeGRnIPJzEEWpEVXYK651ZGcA8jMjuamRVdgW6rTA5nZmLRAnyTnLDKzgVlp0RXowfTq6M1KMrPc9LpIC/RMcnYlM/NUT8uvH2cfQTp/OQH7Ijmbk5n3qqflFcnZitL0amJy9GaczLw0sS610vKU3qynNH0z4qwhM/fUZRXJWUZm4jDizCUzP0ypi7Q8uvzr7CNI5ON/zz4C5tCbiapnRl22ojebUJqgpiSnbG+KZuZtXaRlDclZTGai05tHtTKjLgfTmwWUJge9uSqRGXXpgeRMpzSZvO1N+thkzoy69Elv3pKZlMr2JmdmxgOjLv2QnFeUJrFqvUmVGXWJS28eKU16471JE5skmRGYTCRnIDN15O5N7MyoS256ozSlZI1N1MwITDVlk6M0BY30JmJs4mVmJDDqkt+v8VbsekpTVo7eRDppBaa0Z1/KGWj1riEzxUWPTYDMqEt1r7/1uf/VuxWlIW5sus6MwFQnMDeUhsGr3nQbm04zIzDVjf7emj4X7d5khluBYtNdZgSmOoF5TWm4EyI2fWXmaWPUpQqBmUBpeNR5bHrJjMCUJjBzKA1PdRub8zMjMKUJzHwyw4gOY3NmZgSmOg+SLaU0jOsqNudk5tV9fo2pQmBWUxreehqb40tzQmYMMaUJzEZkholOj82hmRGY0rLfhrle9w/7lk+lYboTY3NQZgSmtDKBeWrX6igNszzG5oDSHJEZjakre2DazAv95smRGeY6fqzZNzMCU5fAvLNVcpSGBY4ca3bMzGNjBKYEgVlkTXWUhgUOG2t2yYwhpq7sD5Idc0FfkBylYZkDxprtM2OIKUpg9jExOTLDYnuPNRtnRmMqEpgDjVSnq+MknP3Gms0yIzAVCcypHpPT+QHTuZ1Ks01mNKac7Pf5I16vL/8Kedj05i4260uzQWY0phaBgey2HWvWZuauMQKTWfbANI2BnzYszarMaEwVAgMlbbKBtjwzGlOCwFQw+i6zyl/hz5H1pVmYGY0pwYNkNanOtsqXZklmNCY/geFKddarXZrZmbltjMAkJDCMU51lCpdmXmY0JrPst2EEZoHDfkVbBQlW4LLSzMiMxqQlMLyjN5tIsBQXlGZqZjQmJ4FhPslZI8GanFuaSZnRmISyB6alOJ87pzcL5FiWs0rzPjOeK8tGYNiB5EyXY33elmZVZjQmGw+SsTO9mSLHQp1YmhmZ0ZjYBIbDSc6IHCt2Sml+GfnnNSYJgeEk17dGbyr4/t/npXk5zWhMBtlvwwhMRJJzlWMBvx1onmfGLZnwBIbu6U3LspLHS/M+MxoTjMAQy68fLcXKXCbNeh4pzZN7MxoTVfbAtETnJK19WrEfHz/+dY6FOl2FX639j7MPgC38+jF+nz/Bqfvxv/nPxkJer9iPGwcf1FlybB7eziR3t13upxmjTDweJCOQOV/w/PGx9rfI0wPTTGSvfyQ0wdCd0Zn7UY41PFHugebTNGOUCcMEQyAzf0VNjjU8V+KbNKaZaEwwBGKCmSPBTPN0oPnl8T9qRpk+ZX+QTF2ymRmY/Q6Ec5lmIsj+IJkJJps5Q0yCBbyhlAPNk8/NGGU6YoIhFhPMavlu0vzIzN1jzpwve2CaxiQjMLww9g3NnENgiEVgthZ9oPn6f5++e0ZmOuNJZQIRmN1EL83V9/8+ZMaNmdMIDIGUDIxfn7PML82NmdMJDIHUDszjv90vOWkGmo/L5eITM6fJfhsmx0nC3+o1ZtYa3iM5cU+i6+0Z92ZOIjDEIjDz/xF7awOZOZzAEIvAbPHnLE5Ogq0zmTmQwBCLwOzzJ89NTvTSyMwhsgemaUwyAnPU3zUxOaFLIzP78yAZgQjMqX97yts5MrMngSEQgenAyKATd6CRmX0IDIEITJcekxO0NDKzNYEhEIEJIuhhD2RmO9nv84de6Dwx51fC7Hogx7CAzyIzWxAYYhEYDiQz6wgMsQgMh7j/RQBf/unbM+cTGGIRGE5yP818+x/fnvlO9sA0p2gyAsOpbJrN5EEyAhEYOiAzkwkMgRQLTLOAe3J7Y6Y9zYx9s3sCQyACQ2dMM6Oy34ZxfmYzrTEJlu7AAg5BZl4QGGIRGPpwt2PWXmWm9L6ZwBCLwNA308wNgSEWgaEzt6PM1/98//bvL20kM7UGmuyBaU7RZASGOEwzHiQjFIGhV3ejzPVf/+Puv3f7f3u8k5PNrx+vTtrL5ZLgRP34X2dpIq+X660cS7dZvYm8mWbSbp2ZYAjEBEP3Xo0y7XGaefxvZDP6I2GCE9XPgNlUaozVG9T41teTzLSsW2fvAhP9RHWKZlNpl8zqTeNxUJn0CED4rbPsD5I5P7MpNsEQ2sh22eD5NPPqv51Mgh8D/QyYjQmGUKZsd73MTMu0dfbX5cf//JTgLHWKZiMwBPdqOBnLzJ3YpRn8dUlzlpKHwBDT2+2ywZvM3P2ToUtz+Ve7/Ovsg1jNWZqKwBDWxMa0KdNMmtIMqzzuQg998NwTGCKbFYJJm2ZpSjMI15tYR8sbAkNwdwl4+7zY1HszyUoz6L83nR8eswkMwc1tTJv1CEDK0gw67E1vx8NaE4YYgaFzCxrTZmXm8Q/NVJpBD705/QDYmMCQwrLGtLmZefyj85VmcEpvnKXZCAxZLG5MW5CZx78ga2kGx/TGWZqNwJDImsa0ZZl5/Gtyl2awX2+cpakIDLmsbExb89szr7/n+Xoosb9ec7LrqbX+w57O0lSmPUV2wIHszbot4nF+WPZdlwunmad/ZYWZ5taa+cZPgqmUmWCaxpSxVWPammnm+hffzTStVRlrrmbNN87SbCYE5pgD2ZulW8f6jbJbq6aZV0dQbay5Gp9vTDDZvBtiMk0wlm4d2zamrZ9mbo+j5q2ap+7mG6doNiYYMtpwo+zWBtPM1eOtmrJjzZUfA7MxwZDUTo1pW00zV3e3alr5sYY8TDAktV9gBhtnpr3YQGv1ngsgD4Ehr70b0/bIzMBYQwYCQ14HBGawV2aasYbQBIbUDmtM2/YRgKeePu7s0QC6VqMxbvLX9PQKvF9j2q7TzNXjWNPsodGnMoGhoKc/3+8amMERmRk8vVvT7KHRCYEhr7MCMzguM+31WNPEhhMJDKmd25h2cGYGYkMvBIbUTg/M4ITMDB730JrYcBiBIbVOAjM4LTPtxVjTxIZdCQypvXqO96zGtHMzMxAbDiIwpNZhYAbnZ2YgNuxIYEit28AMesnMQGzY3rsvVD7sQPYjMGV1HphBX5kZiA3bEBiSGvkila4CM+gxMwOxYTmBIalYgRn0m5nBeGya3nBHYEgqYmAGvWdm8Co2zXDDlcCQVNzADGJkZvA2Nk1vahIYMopel6tImRlcX1/DDT/8dXlaGoEhqDSBGcTLzJXhhr/99bMov360LIFpGlPM+C/iihiYQeDMDEZi0ww39QgM4WSty1X4zAym7KQ1vcnu8q+zj2ALAlNH+sAMkmTmaspw0/QmqesFOmhvBKaIInW5ypaZwfhw0/Qmu3C9EZgKxuvSMgZmkDMzV3pTXP+9EZj0ytblKnlmrsY305reZNdhbwQmN3W5qpKZwdvhpulNdj30RmASU5dHtTJzpTec0huBSeltWlrJulwVzczVrN40ycnomN4ITD7qMlH1zFxN6U0z4qS2U28EJpMpaWnq8pnM3LtdH0acmrbqjcCkoS5ryMyYuSNOk5xcFvdGYBKYmJamLu/IzCQTe9PsqiU1vTcCE5q07EFm5pm4pdYe1qvq5DDSG4EJanpamrosIjPLTU9Os7GWzm1vBCYcaTmSzGxj+q5ak5xcNCaEWV1p0rIpmdnYrBGn2VuD3UhLJ2RmR3erVnVgV3O70qTlEDJznLmDTlMdGLWgK01aDicz51iQnKY6lKcrEcnM+Rbsrf34bz6ccsJDJsuiMpCWfshMdxZXpxl3iGxNVJqudExmerdhdX78gdpDB0SlDpkJ5vHsmhWepj0cbmVRBroSl8yEt2bc+fuf0h5W2yQnA1HJRGayWT/u/P0PvrhqyE9xG+ZkICq5yUx+T8/hxe1p764yIpTD5i25EpVqZKaozdvz9x/y7vKkQz3YryJXcsJAZvjbq+vCJvn5+0+b+IsI1WiRA/rxSFEYITO8N3IR2bZAn/7kBd9PlatMpwRjhJawjMywyikFevk3dnZdjkhL2JzMsJe3F6zjO1SchHAKmeE0s656mvSKeNA5mSGGlRfTniulE+QmM5TgUg5n+cfZBwBAZjIDwI5kBoAdyQwAO5IZAHYkMwDsSGYA2JHMALAjmQFgRzIDwI5kBqjqz69nH0EJMnOeP79a5XAy5+D+ZOYkFjd0wsm4M5k5w7Nlffmj32+qh9ycfbuSmcNpDPTHObgfmTmWxkCvnIk7kZkDaQz07fLHF7dqNiczR3namMvl+AMBRlwuF6XZlswcQmMgDqXZ1i9nH0B2AgMBDSfpx+/fzz6QDEwze9IYiMyt003IzG40BuJTmvVkZh8aA1kozUoyswONgVyUZg2Z2ZrGQEY+UrOYzGxKYyAvDzovIzPb0RjITmkW8LmZLQgMlOEjNXOZZlbTGKjHQwHTycw6GgNVKc1EMrOCxkBtSjOFzCylMYDSTCAzi2gM8JOP1IyTmfk0BvjMg84jZGYmjQGeUZpXfG5mMoEBRvlIzVOmmWk0BpjGQwF3ZGYCjQHmUJpbMvOOxgDzKc2VzIzSGGAppRnIzGsaA6zjIzVNZl7SGGALHnSWmWc0BthO8dL43MxnAgPsoPJHakwzNzQG2FPNhwJk5ieNAfZXsDQy01rTGOA41UojMxoDHK1UacpnRmOAM9T5SE3tzGgMcJ4iDzoXzozGAGerUJqSn5sRGKAb6T9SU2+a0RigP4kfCig2zXTemOyz83K/fTv7CAKynKK5/PEl5UxTaZrpvDGwIY2JKeVMUyYzGhOaiyZl5CtNjU2zII3p8JB6k3JLYXufF7x1Fc7ljy8fHx9p9ooLTDNBGgPbMPmlkOlB5+yZ0Zhc8u0n7M1qjytNafJumgkMBaW4KnGV4yM1SacZjcnLQDOdNZ9D9DWfMTMaQ03u/OcVujTpMqMxBYQ+5fZiuyy7uMs+XWYeaExKcU+5Y1j2KQVd9uky8/lJcycbJRhlyohYmnSZaX+XRmNyi3i+HcPKzy3cys+Ymdbab9+caVThzn89sUqTNDPxnzRnilgn2y5sl5UU6/qWNjMt2jsB6xllKgh3ZcucmRbw/WCu0gONUaaeiNe05JlpMd8VWMAok17Qq1n+zLTWPn7/HvTtYYqiA407/8XEvYiVyMwg7pvEW0VLQxmhL1+FMtOCv1XwN6NMJdEvXLUy0+K/YbxSaKBx57+MHBv+5TLTlIZcjDJZpblSVcxMy/IzAndKDDRGmRoyXaCKZmaQ6Y2kJqNMSskuTaUz09K9nSQfaNz5LyDfRal6ZlrGN5WcbJcVkPJyJDOtJX1ry0o+0PxklMkn64VIZn7wUEAmCUtjlMku8fVHZj5J/E6TiVEmk/Q/4/5y9gF05+P372f9LJxhqf35tfVxEbz88SXD6zno7M5/vhf2xJc0z4v5mmnmiQpv/F5+/oZsNtPZdpmzY0NFXkyZea7I27+L3759fHycfRCtpbxD08Eow1bqXGRk5qX0G6a76qQ04Rllkir1SsrMG6VWw2a62TpLNtAYZXKodlWRmfeqrYmtGGjWcuc/o4Ivo8xMUnBlrGWgWamz7TI2UfNKIjNT1Vwfq3gWYDtGmegq3+uVmRkqL5TFOilNMJ2NMpb9SsVfQJmZrfiKmcfW2RZOH2VYwxVDZpawbmYx0Mzjzn8iXr0mM4tZPVMZaGbpbLuMNVwlBjKznDU0VTfPAoRjlInLS3clM6t4KGC6HkrT+0BjlMnCZeGWzGzAknrP1tl8RpmgvG53ZGYbFtYUPQw0/XLnPz7bG0/JzGYsrzcMNKTmCvCKzGzJOnvDswCvGGWC84qNkJmNmZrf6qE0fQ007vwH55QfJzO7sOxe6mbrrFtGmVi8XG/JzF4svhEGmr91tl3GLE7zKWRmR5bgcwaajlm003mtJpKZfVmIz/XxLMD5A01no4zlOp3XajqZ2Z2HAl6pXhp3/mNyRs8lMwexLu/ZOvvMKBOCV2kBmTmOBfqo7kBjlAnIKbyMzBzKMv3EQPOTUaZ/XqLFZOZoFusnNZ8F6OzOP285bdeQmRO4hXinh9Icp7/tMqtxnNdnJZk5jbX7Qx9bZ2c9cnb6KGMdjvP6rCczZ7KCr6oMNP2NMoxwhm5CZk5mHbdWd6AxynTh2fKzs70hmTmf1dxajWcB3Pnv0IvGHH8gif1y9gHQmmX908fHR9qLb3/bZVadxhzDNEM3Km2dpa1pcBqzB5mhLz1snW3PKBOB12QnMkNPagw0RpkOacx+ZIbO9PEswJb6u/PvknrHC7IrmaFHp5dms4HGdhnlyQz96WPrbA89jDJwMJmhUxkGGqMMyAyd6mOg2fZZAKMMNckMvYr+LIA7/9Bakxk6d3ppzvrmZkhDZuhYH1tnSxhl4CeZoXfxBhp3/uGGzNC3uAPNTz2MMnAimaF7HTwLMGOgsV0Gn8kMMZxeGmAZmSGCDrbOJg00Rhl4IDOEcfpA86Y0/d35hx7IDEF0MNDMYpSBgcwQR8/PAvQ3ymgMnZAZgjm9NFP0MMpAJ2SGUDrYOnsy0LjzD6/JDPH0NdD0t10GXZEZoulzoLn+n4wy8JnMEFAHzwL8YJSBd2SGqM4tzdOBxigDj2SGmPrbOtMYeEpmCKyXrTPgNZkhrB4Gmp8TjFEGXpEZIuvnWQDgBZkhvJOfBbhcjDIwQmYIroOtM2CEzJBB8a0zoww9kxniM9BAx2SGFAo/C2CUoXMyQx4FS6Mx9E9myMLWGXRJZkil1EBjlCEEmSERAw30R2bIpcyzAEYZopAZEipSGghBZkinwNaZUYZAZIacEg80GkMsMkNGBQYaiEJmSCrpswBGGcKRGTJLWRqIRWbIK93WmVGGiGSG5Aw0cC6ZIbVEA41RhqBkhuxSPAugMcQlM5SQoDQQlMxQQPCtM6MMockMVRho4BQyQw1hBxqjDNHJDGWkeBYAwpEZaolVGqMMCcgMlYTaOtMYcpAZyok10EB0MkMxQQYaowxpyAz1eBYADiQzFNVzaYwyZCIzlBRk6wwSkBnq6nOgMcqQjMxQVZcDjcaQj8xQWp8DDWQiM1TXT2mMMqQkM1T159ezjwBKkBlK+tyYHgYaowxZyQy0y+Vy9iG0yx9fzj4E2IXMUI/tMjiQzFBdD6PMwEBDSjJDMZ9HmX4aA1nJDHTEQEM+MkMlEUYZpSEZmaEMd/7hDDJDUX2OMgMDDZnIDDUYZeAkMkNFPY8yAwMNacgMBUS48w9ZyQx0ykBDDjJDdkYZOJXMkFrwO/8GGhKQGQqJOMooDdHJDHnZLoMOyAz0zkBDaDJDUkYZ6IPMkFHwO/+PDDTEJTPkZ5SBE8kM6aQbZQYGGoKSGZIzysC5ZIZcUt/5N9AQkcwAsCOZIZHUo8zAQEM4MkMWSe/8P1IaYpEZcko5ykBEMkMKZUaZgYGGQGSGhIwy0A+ZIb4Cd/4fGWiIQmYIrth2GYQjM6RSZJQZGGgIQWaIzCgD3ZMZ8ig1ygwMNPRPZgir5J1/CEdmIDYDDZ2TGWIyytxQGnomMwTU053/j4+Pj4+Ps48C+iUzhHfyKPPbtzP/9p8MNHRLZoimq1Hm9+8//oWBBl6QGWLr4q6MgQZekxlC6enO/3WU+fFvDTTwjMzAFgw08ILMEEfHo0xrrf32zUADj2SGIHq68z/i9NIYaOiNzBBSd6PMwNYZPJAZIuhpu+yt0wca6IrMwDwvR5mBgQY+kxm6F2qUGRho4Epm6Ftnd/7fjDIDAw3ckBki6fTO/yMPN8NPMkPHOhtl5jq9NAYaeiAzhBFmlBn0sXUGp5MZehXwzv8jAw3IDLw3e5QZGGhAZuhUilFmYKChOJmhP53d+V84ygz6GGiUhhPJDL0LPcq05uFmqpMZOpNplLn9c84ujYGGs8gMXQs/ygz62DqDU8gMPenszv9Wo8yPP81AQ0kyQzc62y7bmIGGqmSGTiUbZX78mQYa6pEZ+pB7lBkYaHpTYdV1QGZOZZW/kHKUaa2Lh5sNNJ84B/cnMyf586v1/bfO7vzvTWn64kzcmcycwbLu216jzMDWWX90d1cyc7hnjbn88aXuQi82ygwMNL3xguxHZo71ojHHH0gv+hvs9h1lBgaaLl3++NLhgkxAZg6kMe8UGWUGBpoOXS4XpdmczBzixQ3/UlfVJ/o7n48YZQYGml4pzeZkZn8vlmz1xjwo94J4uLlXl8vFK7MhmdnZiyGm3CX1UX93/o8bZW7/0rNLwytKsxWZ2ZONMsZ1sHXmYjrCQwGbkJndaMwIo8ztX22g6ZhbNevJzA7c8B/npL1loOme0qwkM1tzw3+mHl6ZE0eZHwdw9kCjNOM8FLCGzGzKDf+3bJc96mCgYQqlWUZmtmOjjMU83ByEhwIWkJmNaMwURplRp5eGKdyqmUtmVnPDfyJn5rgOts4MNBMpzSwys46bMUv18BJ1NcoMDDRReChgOplZwRAznR/9pjDQROPlmkJmltKYFXp4oTocZQYGmlg8FPCWzCyiMbP0d+e/X799a2eXxk/oc7lVM05mZnLDP4VuR5nWutg6Yy6lGSEzc7jhv4BRZhEDTTgeCnhFZiYzxCzQ5c93XY8ygw4GGlfMZbxuj2RmGo3ZgldsFs8CBOWhgDsyM4HGLNPlmRZglBkYaCJzq+bWL2cfQN983fJ2vGgLfHx8eN2CulwuHx8fPfy4cDrTzGtu+K/R5Z3/MKPMwMPNwXkoYCAzL9goW8N2wVb8LByf0sjMMxqzqU5eumCjzA0DTXTFHwqQmQcas1Lh02kXBpoUKj8UIDM3fMJ/B528enFHmYGBJoGypZGZn9zw30SXd/7D62CgUZpN1HwoQGZaazbKkos+ygx8WjONaqWRGY3ZjlFmPx5uzqXUQwHlM6MxW+n1nMkxyrTWxdYZG6pzq6bwtwB0+An/RGtOqndy7vcCXP74Yu9uQ0W+KaDqNOOGfw15RplB9utRQRUeCiiZGRtlO/Ni7urkOzTe3B3kLk29TbOOG9PJYaSRbZQZ/Pbt9M1VC3UPPzYkMw6sxaaZjhsD07lBklLWhwLKZMYn/IvJOcoMOni4mZ2kLE2NzLjhX0zmxgwybq0wyPdQQIHMGGJIykCTWKbSZM+MxtSTf5QZGGiyS/NNAakzozFkZ6DJLcetmqSZccO/qiqjzMBAU0CC0mTMjBv+VGKgSS/6QwHpMmOIKazWKDPwcHMZcUuTLjMPNIbkbJ2VEbQ06TLz+ZTTmDoqjjI3DDRFRCzNP1pr3/979lFs62dpNIYqDDSVhCtNumlm8Ns3jSml+CgzMNDUEas0STPjukM1BppKYl3f0mamRXsnWMwbfWWgqSDcgs+cmRbw/YDlPNxcQMRrWvLMtJjvCtN5fz+xdZZa0NWePzMt7HsDyxhoUop7HSuRmRb5HWKEt/UJA01GoZf6L2cfwHGG9ynWg4CwzMfHh2f6c4gbmG///nGxrTLNXMV9z7jjrXzJQJNFjkVeLjMtyzsH49yhiS7NlapiZlqi968s7+Abv31rv33zKsWV6b0rmpmW610EMklwdbremGlDZr7887xjOVWC97Imb9x0Xqtw8r1l99PMbYIqyPeOAnGlvCIVeqD5lY/fv3vKOZCU5+GuvGIv/fxlu508/J31nZKZ1nykBjhVssDc7op9+efPTbOyt2duJXunU/IekU/6Vf1kmvn27y9f/5P8/+1Xzt1AS7/agDsVzvq6DzS/UuFdB3qQ8mpzt2PWbjNzu29W7XmzOynfe6Arda4zppnn6qwA4HhZrzCPo0y7y4yB5lbWdQCcq9q1xTQzptpqAPaW+KrydJRpj5kx0Nz5+P174mUBHKbsxcQ0M0nNxQFsJf015NUo055mxkDzVPpVAuyk+NXj/TSjNFfF1wqwQIXrxsgo015lxnfPvFJhxQBbqXDFGG9MG5lmbJ29UmHdAOtVuFZMqcPYppnSvFJh9QBrFLxKvNoGm/GkmdLcKriGgImKXB/ebpcN3mTm7p9Umltln4IHXqlzWZieg/fTjMcBxhVZUsBbda4Gd40Zz8SkTTM3acbVWVvAK3WuA7Ma06bfm1GacXVWGPCozhVgbmParEcAlGZcnXUG3Kpz7i9oTJv7nWZKM67OagMGdc76ZY1pC746U2nG1VlzQJ3zfXFjWmsfl8tlwV/5/b+f/u3X/1R5rae7/DG7wXWWLHThz6/D/152Gaxzwq5pTFv8iwB8nuatOksQqqnz4Zi2ujFtze+bUZq36ixEqKPUeb2+MW3lrzVTmrdKrUhIr84Z/e3fXzZpTFv/2zMfSyM2d+qsS8itzrn8eBlf83UwG/yS5se/Xmnu1FmdkFWds/hxiFn5lWMbZObpcSjNnTprFPIpcv5uuFF2a5vMDGygjSuyUiGZImfuthtltxZ+bmbE3Udqmk/VPHj1kZoiqxl6MeFzMxXOyqfzwIbfzb99ZgZiM+5paSosaOjIaGaKnI/7DTFXW26a3fJcwLgiKxgC+O3b439W4Qx9el9jj18wtldm2ovSiM1VhXUMvSvcmLv/ZP0TZa/stWl2ywbaiNvdswqLGzpU6jTc+07MoyMy056VponNT9clnn59Q5+KnIPHB2aw46bZrafjmD20Qe6VDVHkPhPPakw7bJq5ZbJ56vLHl9yrHLqV++w7MTCDEzLTXpSmiQ3Adk4PzOCczAyMNQB7eHU/4vjGtHMzMxAbgK10FZjB+ZkZiA3AGh0GZtBLZpobNgCLdBuYQUeZGbyKTdMbgM86D8ygu8wMxAZgRIjADDrNzEBsAO4ECsyg68wMxAZg5DtTug3MIEBmrvQGKChuYAaRMjMQG6CI6IEZxMvMYCQ2TW+AyHLU5SpqZgZiA6Qx/o31EQMziJ2ZK70B4soamEGSzAzEBggkd12uUmXmSm+Abr39dY5pAjPImZnBeGya3gAHqlaXq8yZudIb4Cxl63JVIjNXegMc421dWoHADGpl5kpvgD2oy6Oimbl625smOcA76jKiemau9AaYS12mkJl7U3rTJAeqmpKWpi43ZOYlvQEG0rKGzLw3sTdNciAXddmEzMwjOZDbxLQ0dZlMZpaTHMhBWnYlMxuY3psmOdAHaTmMzGxsVnKa6sBRpndloC5bkZkdSQ6cS1p6IDMHmZucpjow39yuNGnZn8ycYEFymurAM7rSP5k5n+rARAuiMpCWE8lMX5YlZyA85KMrCchM19ZUpwkP0SyOStOVjslMJCur04SHnqyJStOVOGQmtvXhadrD/lYWZaArQclMKptUZ6A9LLBJTgaikobMJLdheAbyQ9s0JwNRSUxmKtq8PQMFSmbzllyJSikyww87teeWDvVmv5BcKQoywxsH5OeWFG3igH7ckRNekRkWOjg/43LH6fhmjJAT5pIZdtFVhJhFSNiWzHACETqRinCw/weHnO27sVP46AAAAABJRU5ErkJggg==;strokeColor=none;strokeWidth=3;labelBackgroundColor=none;rounded=0;html=1;whiteSpace=wrap;" parent="1" vertex="1">
          <mxGeometry x="1878" y="409.5" width="125" height="60" as="geometry" />
        </mxCell>
        <mxCell id="6p9jYXADkKIyNsR3x7E2-28" value="" style="vsdxID=235;edgeStyle=none;startArrow=none;endArrow=none;startSize=5;endSize=5;strokeWidth=3;strokeColor=#ff0000;spacingTop=0;spacingBottom=0;spacingLeft=0;spacingRight=0;verticalAlign=middle;html=1;labelBackgroundColor=#ffffff;rounded=0;align=center;exitX=0.28;exitY=0.408;exitDx=0;exitDy=0;exitPerimeter=0;" parent="1" source="6p9jYXADkKIyNsR3x7E2-27" edge="1">
          <mxGeometry relative="1" as="geometry">
            <mxPoint x="10" as="offset" />
            <Array as="points" />
            <mxPoint x="1910" y="230" as="sourcePoint" />
            <mxPoint x="1650" y="293" as="targetPoint" />
          </mxGeometry>
        </mxCell>
        <mxCell id="6p9jYXADkKIyNsR3x7E2-29" value="&lt;font style=&quot;font-size: 16px ; font-family: &amp;#34;calibri&amp;#34; ; color: #000000 ; direction: ltr ; letter-spacing: 0px ; line-height: 120% ; opacity: 1&quot;&gt;Port &lt;/font&gt;&lt;font style=&quot;font-size: 16px ; font-family: &amp;#34;calibri&amp;#34; ; color: #000000 ; direction: ltr ; letter-spacing: 0px ; line-height: 120% ; opacity: 1&quot;&gt;1/1/6.555&lt;br&gt;&lt;/font&gt;" style="verticalAlign=middle;align=center;vsdxID=511;fillColor=none;gradientColor=none;shape=stencil(nZBLDoAgDERP0z3SIyjew0SURgSD+Lu9kMZoXLhwN9O+tukAlrNpJg1SzDH4QW/URgNYgZTkjA4UkwJUgGXng+6DX1zLfmoymdXo17xh5zmRJ6Q42BWCfc2oJfdAr+Yv+AP9Cb7OJ3H/2JG1HNGz/84klThPVCc=);strokeColor=none;strokeWidth=3;labelBackgroundColor=none;rounded=0;html=1;whiteSpace=wrap;" parent="1" vertex="1">
          <mxGeometry x="1792" y="140" width="130" height="31" as="geometry" />
        </mxCell>
        <mxCell id="6p9jYXADkKIyNsR3x7E2-30" value="&lt;font style=&quot;font-size:16px;font-family:Calibri;color:#ff0000;direction:ltr;letter-spacing:0px;line-height:120%;opacity:1&quot;&gt;172.28.27.62/30&lt;br/&gt;&lt;/font&gt;" style="verticalAlign=middle;align=center;vsdxID=695;fillColor=none;gradientColor=none;shape=stencil(nZBLDoAgDERP0z3SIyjew0SURgSD+Lu9kMZoXLhwN9O+tukAlrNpJg1SzDH4QW/URgNYgZTkjA4UkwJUgGXng+6DX1zLfmoymdXo17xh5zmRJ6Q42BWCfc2oJfdAr+Yv+AP9Cb7OJ3H/2JG1HNGz/84klThPVCc=);strokeColor=none;strokeWidth=3;labelBackgroundColor=none;rounded=0;html=1;whiteSpace=wrap;" parent="1" vertex="1">
          <mxGeometry x="1800" y="112" width="114" height="28" as="geometry" />
        </mxCell>
        <mxCell id="6p9jYXADkKIyNsR3x7E2-31" value="" style="vsdxID=243;edgeStyle=none;startArrow=none;endArrow=none;startSize=5;endSize=5;strokeWidth=3;strokeColor=#a5a5a5;spacingTop=0;spacingBottom=0;spacingLeft=0;spacingRight=0;verticalAlign=middle;html=1;labelBackgroundColor=#ffffff;rounded=0;align=center;" parent="1" edge="1">
          <mxGeometry relative="1" as="geometry">
            <mxPoint x="1970" y="441" as="sourcePoint" />
            <mxPoint x="2080.500000000001" y="440.62273901808794" as="targetPoint" />
          </mxGeometry>
        </mxCell>
        <mxCell id="6p9jYXADkKIyNsR3x7E2-32" value="" style="vsdxID=243;edgeStyle=none;startArrow=none;endArrow=none;startSize=5;endSize=5;strokeWidth=3;strokeColor=#a5a5a5;spacingTop=0;spacingBottom=0;spacingLeft=0;spacingRight=0;verticalAlign=middle;html=1;labelBackgroundColor=#ffffff;rounded=0;align=center;exitX=1.036;exitY=0.455;exitDx=0;exitDy=0;entryX=0;entryY=0.5;entryDx=0;entryDy=0;entryPerimeter=0;exitPerimeter=0;" parent="1" source="6p9jYXADkKIyNsR3x7E2-21" target="6p9jYXADkKIyNsR3x7E2-18" edge="1">
          <mxGeometry relative="1" as="geometry">
            <mxPoint x="2178.4" y="420.4000000000001" as="sourcePoint" />
            <mxPoint x="2356" y="471" as="targetPoint" />
          </mxGeometry>
        </mxCell>
        <mxCell id="6p9jYXADkKIyNsR3x7E2-33" value="" style="vsdxID=243;edgeStyle=none;startArrow=none;endArrow=none;startSize=5;endSize=5;strokeWidth=3;strokeColor=#a5a5a5;spacingTop=0;spacingBottom=0;spacingLeft=0;spacingRight=0;verticalAlign=middle;html=1;labelBackgroundColor=#ffffff;rounded=0;align=center;entryX=0.024;entryY=0.472;entryDx=0;entryDy=0;entryPerimeter=0;" parent="1" source="6p9jYXADkKIyNsR3x7E2-18" edge="1">
          <mxGeometry relative="1" as="geometry">
            <mxPoint x="2568.6450338600453" y="285" as="sourcePoint" />
            <mxPoint x="2739.992000000001" y="437.1999999999998" as="targetPoint" />
            <Array as="points" />
          </mxGeometry>
        </mxCell>
        <mxCell id="6p9jYXADkKIyNsR3x7E2-34" value="10GE" style="text;html=1;fontColor=#FF3333;" parent="1" vertex="1">
          <mxGeometry x="1728" y="250" width="60" height="30" as="geometry" />
        </mxCell>
        <mxCell id="6p9jYXADkKIyNsR3x7E2-35" value="" style="rounded=0;whiteSpace=wrap;html=1;fillColor=none;dashed=1;strokeColor=#A5A5A5;strokeWidth=3;" parent="1" vertex="1">
          <mxGeometry x="2959.8571428571427" y="330" width="240" height="260" as="geometry" />
        </mxCell>
        <mxCell id="6p9jYXADkKIyNsR3x7E2-36" value="" style="ellipse;shape=cloud;whiteSpace=wrap;html=1;" parent="1" vertex="1">
          <mxGeometry x="1230" y="190" width="360" height="240" as="geometry" />
        </mxCell>
        <mxCell id="6p9jYXADkKIyNsR3x7E2-37" value="" style="vsdxID=243;edgeStyle=none;startArrow=none;endArrow=none;startSize=5;endSize=5;strokeWidth=3;strokeColor=#a5a5a5;spacingTop=0;spacingBottom=0;spacingLeft=0;spacingRight=0;verticalAlign=middle;html=1;labelBackgroundColor=#ffffff;rounded=0;align=center;entryX=0.354;entryY=0.5;entryDx=0;entryDy=0;entryPerimeter=0;exitX=0.69;exitY=0.49;exitDx=0;exitDy=0;exitPerimeter=0;" parent="1" source="6p9jYXADkKIyNsR3x7E2-69" target="6p9jYXADkKIyNsR3x7E2-67" edge="1">
          <mxGeometry relative="1" as="geometry">
            <mxPoint x="1220" y="270" as="sourcePoint" />
            <mxPoint x="1434" y="270" as="targetPoint" />
          </mxGeometry>
        </mxCell>
        <mxCell id="6p9jYXADkKIyNsR3x7E2-38" value="" style="rounded=0;whiteSpace=wrap;html=1;dashed=1;strokeWidth=3;strokeColor=#A5A5A5;fillColor=none;" parent="1" vertex="1">
          <mxGeometry x="1018" y="190" width="210" height="250" as="geometry" />
        </mxCell>
        <mxCell id="6p9jYXADkKIyNsR3x7E2-39" value="" style="ellipse;shape=cloud;whiteSpace=wrap;html=1;" parent="1" vertex="1">
          <mxGeometry x="730" y="200" width="290" height="190" as="geometry" />
        </mxCell>
        <mxCell id="6p9jYXADkKIyNsR3x7E2-40" value="" style="rounded=0;whiteSpace=wrap;html=1;dashed=1;strokeWidth=3;strokeColor=#A5A5A5;fillColor=none;" parent="1" vertex="1">
          <mxGeometry x="460" y="190" width="270" height="300" as="geometry" />
        </mxCell>
        <mxCell id="6p9jYXADkKIyNsR3x7E2-41" value="" style="shape=mxgraph.cisco.computers_and_peripherals.video_camera;sketch=0;html=1;pointerEvents=1;dashed=0;fillColor=#036897;strokeColor=#ffffff;strokeWidth=2;verticalLabelPosition=bottom;verticalAlign=top;align=center;outlineConnect=0;" parent="1" vertex="1">
          <mxGeometry x="10" y="255" width="67" height="98" as="geometry" />
        </mxCell>
        <mxCell id="6p9jYXADkKIyNsR3x7E2-42" style="vsdxID=458;edgeStyle=none;startArrow=none;endArrow=none;startSize=5;endSize=5;strokeWidth=3;strokeColor=#a5a5a5;spacingTop=0;spacingBottom=0;spacingLeft=0;spacingRight=0;verticalAlign=middle;html=1;labelBackgroundColor=#FFFFFF;rounded=0;exitX=0.63;exitY=0.5;exitDx=0;exitDy=0;exitPerimeter=0;" parent="1" source="6p9jYXADkKIyNsR3x7E2-41" edge="1">
          <mxGeometry relative="1" as="geometry">
            <mxPoint as="offset" />
            <Array as="points" />
            <mxPoint x="80" y="290" as="sourcePoint" />
            <mxPoint x="210" y="304" as="targetPoint" />
          </mxGeometry>
        </mxCell>
        <mxCell id="6p9jYXADkKIyNsR3x7E2-43" value="&lt;div style=&quot;font-size: 16px;&quot;&gt;&lt;font style=&quot;font-size: 16px;&quot;&gt;Камера на АМС&lt;/font&gt;&lt;/div&gt;&lt;div style=&quot;font-size: 16px;&quot;&gt;&lt;font style=&quot;font-size: 16px;&quot;&gt;&lt;br&gt;&lt;/font&gt;&lt;/div&gt;" style="text;html=1;align=center;verticalAlign=middle;resizable=0;points=[];autosize=1;strokeColor=none;fillColor=none;" parent="1" vertex="1">
          <mxGeometry x="-30" y="380" width="130" height="50" as="geometry" />
        </mxCell>
        <mxCell id="6p9jYXADkKIyNsR3x7E2-44" value="" style="endArrow=none;html=1;rounded=0;strokeWidth=5;fillColor=#ffe6cc;strokeColor=#ED7D31;dashed=1;dashPattern=8 8;" parent="1" edge="1">
          <mxGeometry width="50" height="50" relative="1" as="geometry">
            <mxPoint x="160" y="560" as="sourcePoint" />
            <mxPoint x="160" y="40" as="targetPoint" />
          </mxGeometry>
        </mxCell>
        <mxCell id="6p9jYXADkKIyNsR3x7E2-45" value="" style="endArrow=none;html=1;rounded=0;strokeWidth=5;fillColor=#ffe6cc;strokeColor=#ED7D31;dashed=1;dashPattern=8 8;" parent="1" edge="1">
          <mxGeometry width="50" height="50" relative="1" as="geometry">
            <mxPoint x="580" y="560" as="sourcePoint" />
            <mxPoint x="580" y="40" as="targetPoint" />
          </mxGeometry>
        </mxCell>
        <mxCell id="6p9jYXADkKIyNsR3x7E2-46" value="" style="endArrow=none;html=1;rounded=0;strokeWidth=5;fillColor=#ffe6cc;strokeColor=#ED7D31;dashed=1;dashPattern=8 8;" parent="1" edge="1">
          <mxGeometry width="50" height="50" relative="1" as="geometry">
            <mxPoint x="1777.4018987341778" y="261.5" as="sourcePoint" />
            <mxPoint x="1775.999999999999" y="40" as="targetPoint" />
          </mxGeometry>
        </mxCell>
        <mxCell id="6p9jYXADkKIyNsR3x7E2-47" value="" style="endArrow=none;html=1;rounded=0;strokeWidth=5;fillColor=#ffe6cc;strokeColor=#ED7D31;dashed=1;dashPattern=8 8;" parent="1" edge="1">
          <mxGeometry width="50" height="50" relative="1" as="geometry">
            <mxPoint x="2930" y="560" as="sourcePoint" />
            <mxPoint x="2930" y="40" as="targetPoint" />
          </mxGeometry>
        </mxCell>
        <mxCell id="6p9jYXADkKIyNsR3x7E2-48" value="" style="endArrow=none;html=1;rounded=0;strokeWidth=5;fillColor=#ffe6cc;strokeColor=#ED7D31;dashed=1;dashPattern=8 8;" parent="1" edge="1">
          <mxGeometry width="50" height="50" relative="1" as="geometry">
            <mxPoint x="2620" y="560" as="sourcePoint" />
            <mxPoint x="2620" y="40" as="targetPoint" />
          </mxGeometry>
        </mxCell>
        <mxCell id="6p9jYXADkKIyNsR3x7E2-49" value="&lt;div style=&quot;font-size: 16px&quot;&gt;&lt;font style=&quot;font-size: 16px&quot;&gt;Nexus 7700&lt;br&gt;&lt;/font&gt;&lt;/div&gt;&lt;div style=&quot;font-size: 16px&quot;&gt;&lt;font style=&quot;font-size: 16px&quot;&gt;alma-sw-suyu-nexus7-01&lt;/font&gt;&lt;font style=&quot;font-size: 16px&quot;&gt;&lt;font style=&quot;font-size: 16px&quot;&gt;&lt;br&gt;&lt;/font&gt;&lt;/font&gt;&lt;/div&gt;" style="shape=mxgraph.cisco.switches.workgroup_switch;sketch=0;html=1;pointerEvents=1;dashed=0;fillColor=#036897;strokeColor=#ffffff;strokeWidth=2;verticalLabelPosition=bottom;verticalAlign=top;align=center;outlineConnect=0;" parent="1" vertex="1">
          <mxGeometry x="2430" y="180.5" width="101" height="50" as="geometry" />
        </mxCell>
        <mxCell id="6p9jYXADkKIyNsR3x7E2-50" value="" style="vsdxID=243;edgeStyle=none;startArrow=none;endArrow=none;startSize=5;endSize=5;strokeWidth=3;strokeColor=#a5a5a5;spacingTop=0;spacingBottom=0;spacingLeft=0;spacingRight=0;verticalAlign=middle;html=1;labelBackgroundColor=#ffffff;rounded=0;align=center;entryX=0.16;entryY=0.23;entryDx=0;entryDy=0;entryPerimeter=0;" parent="1" target="6p9jYXADkKIyNsR3x7E2-49" edge="1">
          <mxGeometry relative="1" as="geometry">
            <mxPoint x="2178.000000000001" y="192" as="sourcePoint" />
            <mxPoint x="2506.5" y="192.5" as="targetPoint" />
          </mxGeometry>
        </mxCell>
        <mxCell id="6p9jYXADkKIyNsR3x7E2-51" value="" style="vsdxID=243;edgeStyle=none;startArrow=none;endArrow=none;startSize=5;endSize=5;strokeWidth=3;strokeColor=#a5a5a5;spacingTop=0;spacingBottom=0;spacingLeft=0;spacingRight=0;verticalAlign=middle;html=1;labelBackgroundColor=#ffffff;rounded=0;align=center;entryX=0.024;entryY=0.472;entryDx=0;entryDy=0;entryPerimeter=0;" parent="1" source="6p9jYXADkKIyNsR3x7E2-49" target="6p9jYXADkKIyNsR3x7E2-112" edge="1">
          <mxGeometry relative="1" as="geometry">
            <mxPoint x="2600" y="353" as="sourcePoint" />
            <mxPoint x="2827" y="398" as="targetPoint" />
            <Array as="points" />
          </mxGeometry>
        </mxCell>
        <mxCell id="6p9jYXADkKIyNsR3x7E2-52" value="" style="vsdxID=243;edgeStyle=none;startArrow=none;endArrow=none;startSize=5;endSize=5;strokeWidth=3;strokeColor=#a5a5a5;spacingTop=0;spacingBottom=0;spacingLeft=0;spacingRight=0;verticalAlign=middle;html=1;labelBackgroundColor=#ffffff;rounded=0;align=center;exitX=1;exitY=0.25;exitDx=0;exitDy=0;" parent="1" source="6p9jYXADkKIyNsR3x7E2-106" target="6p9jYXADkKIyNsR3x7E2-68" edge="1">
          <mxGeometry relative="1" as="geometry">
            <mxPoint x="2215" y="290" as="sourcePoint" />
            <mxPoint x="3004.9999999999995" y="285.8949191685912" as="targetPoint" />
          </mxGeometry>
        </mxCell>
        <mxCell id="6p9jYXADkKIyNsR3x7E2-53" value="&lt;div style=&quot;font-size: 13px;&quot;&gt;&lt;font style=&quot;font-size: 25px;&quot;&gt;Зона ответственностисти CorpNet&lt;/font&gt;&lt;/div&gt;" style="text;html=1;align=center;verticalAlign=middle;resizable=0;points=[];autosize=1;strokeColor=none;fillColor=none;" parent="1" vertex="1">
          <mxGeometry x="1970" y="40" width="390" height="40" as="geometry" />
        </mxCell>
        <mxCell id="6p9jYXADkKIyNsR3x7E2-54" value="&lt;div style=&quot;font-size: 13px;&quot;&gt;&lt;font style=&quot;font-size: 25px;&quot;&gt;Отдел ЦОД&lt;/font&gt;&lt;/div&gt;" style="text;html=1;align=center;verticalAlign=middle;resizable=0;points=[];autosize=1;strokeColor=none;fillColor=none;" parent="1" vertex="1">
          <mxGeometry x="2700" y="40" width="150" height="40" as="geometry" />
        </mxCell>
        <mxCell id="6p9jYXADkKIyNsR3x7E2-55" value="&lt;div style=&quot;font-size: 13px;&quot;&gt;&lt;font style=&quot;font-size: 25px;&quot;&gt;Отдел эксплуатации IP-сетей&lt;br&gt;&lt;/font&gt;&lt;/div&gt;" style="text;html=1;align=center;verticalAlign=middle;resizable=0;points=[];autosize=1;strokeColor=none;fillColor=none;" parent="1" vertex="1">
          <mxGeometry x="1000" y="40" width="340" height="40" as="geometry" />
        </mxCell>
        <mxCell id="6p9jYXADkKIyNsR3x7E2-56" value="&lt;div style=&quot;font-size: 13px&quot;&gt;&lt;font style=&quot;font-size: 25px&quot;&gt;Региональный инженер ТС&lt;br&gt;&lt;/font&gt;&lt;/div&gt;" style="text;html=1;align=center;verticalAlign=middle;resizable=0;points=[];autosize=1;strokeColor=none;fillColor=none;" parent="1" vertex="1">
          <mxGeometry x="220" y="50" width="310" height="20" as="geometry" />
        </mxCell>
        <mxCell id="6p9jYXADkKIyNsR3x7E2-57" value="&lt;div style=&quot;font-size: 13px;&quot;&gt;&lt;font style=&quot;font-size: 25px;&quot;&gt;Зона ответственности IoT&lt;br&gt;&lt;/font&gt;&lt;/div&gt;" style="text;html=1;align=center;verticalAlign=middle;resizable=0;points=[];autosize=1;strokeColor=none;fillColor=none;" parent="1" vertex="1">
          <mxGeometry x="-200" y="40" width="300" height="40" as="geometry" />
        </mxCell>
        <mxCell id="6p9jYXADkKIyNsR3x7E2-58" value="" style="edgeStyle=orthogonalEdgeStyle;rounded=0;orthogonalLoop=1;jettySize=auto;html=1;" parent="1" source="6p9jYXADkKIyNsR3x7E2-59" target="6p9jYXADkKIyNsR3x7E2-35" edge="1">
          <mxGeometry relative="1" as="geometry" />
        </mxCell>
        <mxCell id="6p9jYXADkKIyNsR3x7E2-59" value="" style="rounded=0;whiteSpace=wrap;html=1;fillColor=none;dashed=1;strokeColor=#A5A5A5;strokeWidth=3;" parent="1" vertex="1">
          <mxGeometry x="2660" y="330" width="240" height="260" as="geometry" />
        </mxCell>
        <mxCell id="6p9jYXADkKIyNsR3x7E2-60" value="&lt;div&gt;Маш. зал №36,&lt;/div&gt;&lt;div&gt;3 ряд, 32 стойка&lt;br&gt;&lt;/div&gt;" style="text;html=1;align=center;verticalAlign=middle;resizable=0;points=[];autosize=1;strokeColor=none;fillColor=none;" parent="1" vertex="1">
          <mxGeometry x="2785" y="330" width="110" height="40" as="geometry" />
        </mxCell>
        <mxCell id="6p9jYXADkKIyNsR3x7E2-61" value="" style="rounded=0;whiteSpace=wrap;html=1;dashed=1;strokeWidth=3;strokeColor=#A5A5A5;fillColor=none;" parent="1" vertex="1">
          <mxGeometry x="-29.823529411764696" y="183" width="307" height="250" as="geometry" />
        </mxCell>
        <mxCell id="6p9jYXADkKIyNsR3x7E2-62" value="&lt;p style=&quot;align:right;margin-left:0;margin-right:0;margin-top:0px;margin-bottom:0px;text-indent:0;valign:middle;direction:ltr;&quot;&gt;&lt;font style=&quot;font-size:16px;font-family:Calibri;color:#5c5c5c;direction:ltr;letter-spacing:0px;line-height:120%;opacity:1&quot;&gt;&lt;b&gt;г.Уральск&lt;/b&gt;&lt;/font&gt;&lt;font style=&quot;font-size:16px;font-family:Calibri;color:#5c5c5c;direction:ltr;letter-spacing:0px;line-height:120%;opacity:1&quot;&gt;&lt;b&gt;&lt;br&gt;&lt;/b&gt;&lt;/font&gt;&lt;font style=&quot;font-size:16px;font-family:Calibri;color:#5c5c5c;direction:ltr;letter-spacing:0px;line-height:120%;opacity:1&quot;&gt;&lt;b&gt;Коммутатор&lt;br&gt;&lt;/b&gt;&lt;/font&gt;&lt;/p&gt;" style="text;vsdxID=270;fillColor=none;gradientColor=none;dashed=1;strokeColor=none;strokeWidth=3;labelBackgroundColor=none;rounded=0;html=1;whiteSpace=wrap;verticalAlign=middle;align=right;;html=1;" parent="1" vertex="1">
          <mxGeometry x="1122.69" y="200" width="94.61" height="28.37" as="geometry" />
        </mxCell>
        <mxCell id="6p9jYXADkKIyNsR3x7E2-63" value="&lt;p style=&quot;align:right;margin-left:0;margin-right:0;margin-top:0px;margin-bottom:0px;text-indent:0;valign:middle;direction:ltr;&quot;&gt;&lt;font style=&quot;font-size:16px;font-family:Calibri;color:#5c5c5c;direction:ltr;letter-spacing:0px;line-height:120%;opacity:1&quot;&gt;&lt;b&gt;г.Уральск&lt;/b&gt;&lt;/font&gt;&lt;br&gt;&lt;/p&gt;" style="text;vsdxID=270;fillColor=none;gradientColor=none;dashed=1;strokeColor=none;strokeWidth=3;labelBackgroundColor=none;rounded=0;html=1;whiteSpace=wrap;verticalAlign=middle;align=right;;html=1;" parent="1" vertex="1">
          <mxGeometry x="630.0000000000001" y="200" width="94.61" height="28.37" as="geometry" />
        </mxCell>
        <mxCell id="6p9jYXADkKIyNsR3x7E2-64" value="" style="endArrow=none;html=1;rounded=0;strokeWidth=5;fillColor=#ffe6cc;strokeColor=#ED7D31;dashed=1;dashPattern=8 8;" parent="1" edge="1">
          <mxGeometry width="50" height="50" relative="1" as="geometry">
            <mxPoint x="1775.999999999999" y="560" as="sourcePoint" />
            <mxPoint x="1777.417844522969" y="292.5" as="targetPoint" />
          </mxGeometry>
        </mxCell>
        <mxCell id="6p9jYXADkKIyNsR3x7E2-65" value="" style="endArrow=none;html=1;rounded=0;strokeWidth=5;fillColor=#ffe6cc;strokeColor=#ED7D31;dashed=1;dashPattern=8 8;" parent="1" edge="1">
          <mxGeometry width="50" height="50" relative="1" as="geometry">
            <mxPoint x="1775.999999999999" y="560" as="sourcePoint" />
            <mxPoint x="1777.417844522969" y="292.5" as="targetPoint" />
          </mxGeometry>
        </mxCell>
        <mxCell id="6p9jYXADkKIyNsR3x7E2-66" value="&lt;font style=&quot;font-size: 19px ; font-family: &amp;#34;arial&amp;#34; ; color: #000000 ; direction: ltr ; letter-spacing: 0px ; line-height: 120% ; opacity: 1&quot;&gt;&lt;b&gt;&lt;br&gt;&lt;/b&gt;&lt;/font&gt;" style="vsdxID=203;fillColor=none;gradientColor=none;image;aspect=fixed;image=data:image/png,iVBORw0KGgoAAAANSUhEUgAAAiIAAAJPCAIAAADOvCj5AAAizElEQVR4nO3dzbXj1pWA0fu8lITT6DSsaVUYHksRSGOHUTVVp9FpOAz2AFUUH39A/OOec/ZevVbbbqsKTV7ge+cC5Pu4XC4NMvr+37OPYKYv/zz7CGAHHzJDz8Kl4kQqRZ9khhOIx4nUiIPJDLsQkrh0iG3JDAt1FZKv/3f2Eezp2/+cfQQ3RIi5ZIY3Ds5J7mAc5vgyyQ+vyAw/HJATCenNATWSH2Smop2KoiLJ7Bch7SlFZvLbNipaQtuhQMKTmMyksmFR5IQFNsyP8KQhM7Ft0hVFYW+b5Ed4gpKZSNZHRVHox8r2qE4UMtO1lV0RFWJZEx7V6ZbM9GVNV0SFfBaHR3X6ITPnW5YWUaEg1YlIZk6gK7CVBeGRnIPJzEEWpEVXYK651ZGcA8jMjuamRVdgW6rTA5nZmLRAnyTnLDKzgVlp0RXowfTq6M1KMrPc9LpIC/RMcnYlM/NUT8uvH2cfQTp/OQH7Ijmbk5n3qqflFcnZitL0amJy9GaczLw0sS610vKU3qynNH0z4qwhM/fUZRXJWUZm4jDizCUzP0ypi7Q8uvzr7CNI5ON/zz4C5tCbiapnRl22ojebUJqgpiSnbG+KZuZtXaRlDclZTGai05tHtTKjLgfTmwWUJge9uSqRGXXpgeRMpzSZvO1N+thkzoy69Elv3pKZlMr2JmdmxgOjLv2QnFeUJrFqvUmVGXWJS28eKU16471JE5skmRGYTCRnIDN15O5N7MyoS256ozSlZI1N1MwITDVlk6M0BY30JmJs4mVmJDDqkt+v8VbsekpTVo7eRDppBaa0Z1/KGWj1riEzxUWPTYDMqEt1r7/1uf/VuxWlIW5sus6MwFQnMDeUhsGr3nQbm04zIzDVjf7emj4X7d5khluBYtNdZgSmOoF5TWm4EyI2fWXmaWPUpQqBmUBpeNR5bHrJjMCUJjBzKA1PdRub8zMjMKUJzHwyw4gOY3NmZgSmOg+SLaU0jOsqNudk5tV9fo2pQmBWUxreehqb40tzQmYMMaUJzEZkholOj82hmRGY0rLfhrle9w/7lk+lYboTY3NQZgSmtDKBeWrX6igNszzG5oDSHJEZjakre2DazAv95smRGeY6fqzZNzMCU5fAvLNVcpSGBY4ca3bMzGNjBKYEgVlkTXWUhgUOG2t2yYwhpq7sD5Idc0FfkBylYZkDxprtM2OIKUpg9jExOTLDYnuPNRtnRmMqEpgDjVSnq+MknP3Gms0yIzAVCcypHpPT+QHTuZ1Ks01mNKac7Pf5I16vL/8Kedj05i4260uzQWY0phaBgey2HWvWZuauMQKTWfbANI2BnzYszarMaEwVAgMlbbKBtjwzGlOCwFQw+i6zyl/hz5H1pVmYGY0pwYNkNanOtsqXZklmNCY/geFKddarXZrZmbltjMAkJDCMU51lCpdmXmY0JrPst2EEZoHDfkVbBQlW4LLSzMiMxqQlMLyjN5tIsBQXlGZqZjQmJ4FhPslZI8GanFuaSZnRmISyB6alOJ87pzcL5FiWs0rzPjOeK8tGYNiB5EyXY33elmZVZjQmGw+SsTO9mSLHQp1YmhmZ0ZjYBIbDSc6IHCt2Sml+GfnnNSYJgeEk17dGbyr4/t/npXk5zWhMBtlvwwhMRJJzlWMBvx1onmfGLZnwBIbu6U3LspLHS/M+MxoTjMAQy68fLcXKXCbNeh4pzZN7MxoTVfbAtETnJK19WrEfHz/+dY6FOl2FX639j7MPgC38+jF+nz/Bqfvxv/nPxkJer9iPGwcf1FlybB7eziR3t13upxmjTDweJCOQOV/w/PGx9rfI0wPTTGSvfyQ0wdCd0Zn7UY41PFHugebTNGOUCcMEQyAzf0VNjjU8V+KbNKaZaEwwBGKCmSPBTPN0oPnl8T9qRpk+ZX+QTF2ymRmY/Q6Ec5lmIsj+IJkJJps5Q0yCBbyhlAPNk8/NGGU6YoIhFhPMavlu0vzIzN1jzpwve2CaxiQjMLww9g3NnENgiEVgthZ9oPn6f5++e0ZmOuNJZQIRmN1EL83V9/8+ZMaNmdMIDIGUDIxfn7PML82NmdMJDIHUDszjv90vOWkGmo/L5eITM6fJfhsmx0nC3+o1ZtYa3iM5cU+i6+0Z92ZOIjDEIjDz/xF7awOZOZzAEIvAbPHnLE5Ogq0zmTmQwBCLwOzzJ89NTvTSyMwhsgemaUwyAnPU3zUxOaFLIzP78yAZgQjMqX97yts5MrMngSEQgenAyKATd6CRmX0IDIEITJcekxO0NDKzNYEhEIEJIuhhD2RmO9nv84de6Dwx51fC7Hogx7CAzyIzWxAYYhEYDiQz6wgMsQgMh7j/RQBf/unbM+cTGGIRGE5yP818+x/fnvlO9sA0p2gyAsOpbJrN5EEyAhEYOiAzkwkMgRQLTLOAe3J7Y6Y9zYx9s3sCQyACQ2dMM6Oy34ZxfmYzrTEJlu7AAg5BZl4QGGIRGPpwt2PWXmWm9L6ZwBCLwNA308wNgSEWgaEzt6PM1/98//bvL20kM7UGmuyBaU7RZASGOEwzHiQjFIGhV3ejzPVf/+Puv3f7f3u8k5PNrx+vTtrL5ZLgRP34X2dpIq+X660cS7dZvYm8mWbSbp2ZYAjEBEP3Xo0y7XGaefxvZDP6I2GCE9XPgNlUaozVG9T41teTzLSsW2fvAhP9RHWKZlNpl8zqTeNxUJn0CED4rbPsD5I5P7MpNsEQ2sh22eD5NPPqv51Mgh8D/QyYjQmGUKZsd73MTMu0dfbX5cf//JTgLHWKZiMwBPdqOBnLzJ3YpRn8dUlzlpKHwBDT2+2ywZvM3P2ToUtz+Ve7/Ovsg1jNWZqKwBDWxMa0KdNMmtIMqzzuQg998NwTGCKbFYJJm2ZpSjMI15tYR8sbAkNwdwl4+7zY1HszyUoz6L83nR8eswkMwc1tTJv1CEDK0gw67E1vx8NaE4YYgaFzCxrTZmXm8Q/NVJpBD705/QDYmMCQwrLGtLmZefyj85VmcEpvnKXZCAxZLG5MW5CZx78ga2kGx/TGWZqNwJDImsa0ZZl5/Gtyl2awX2+cpakIDLmsbExb89szr7/n+Xoosb9ec7LrqbX+w57O0lSmPUV2wIHszbot4nF+WPZdlwunmad/ZYWZ5taa+cZPgqmUmWCaxpSxVWPammnm+hffzTStVRlrrmbNN87SbCYE5pgD2ZulW8f6jbJbq6aZV0dQbay5Gp9vTDDZvBtiMk0wlm4d2zamrZ9mbo+j5q2ap+7mG6doNiYYMtpwo+zWBtPM1eOtmrJjzZUfA7MxwZDUTo1pW00zV3e3alr5sYY8TDAktV9gBhtnpr3YQGv1ngsgD4Ehr70b0/bIzMBYQwYCQ14HBGawV2aasYbQBIbUDmtM2/YRgKeePu7s0QC6VqMxbvLX9PQKvF9j2q7TzNXjWNPsodGnMoGhoKc/3+8amMERmRk8vVvT7KHRCYEhr7MCMzguM+31WNPEhhMJDKmd25h2cGYGYkMvBIbUTg/M4ITMDB730JrYcBiBIbVOAjM4LTPtxVjTxIZdCQypvXqO96zGtHMzMxAbDiIwpNZhYAbnZ2YgNuxIYEit28AMesnMQGzY3rsvVD7sQPYjMGV1HphBX5kZiA3bEBiSGvkila4CM+gxMwOxYTmBIalYgRn0m5nBeGya3nBHYEgqYmAGvWdm8Co2zXDDlcCQVNzADGJkZvA2Nk1vahIYMopel6tImRlcX1/DDT/8dXlaGoEhqDSBGcTLzJXhhr/99bMov360LIFpGlPM+C/iihiYQeDMDEZi0ww39QgM4WSty1X4zAym7KQ1vcnu8q+zj2ALAlNH+sAMkmTmaspw0/QmqesFOmhvBKaIInW5ypaZwfhw0/Qmu3C9EZgKxuvSMgZmkDMzV3pTXP+9EZj0ytblKnlmrsY305reZNdhbwQmN3W5qpKZwdvhpulNdj30RmASU5dHtTJzpTec0huBSeltWlrJulwVzczVrN40ycnomN4ITD7qMlH1zFxN6U0z4qS2U28EJpMpaWnq8pnM3LtdH0acmrbqjcCkoS5ryMyYuSNOk5xcFvdGYBKYmJamLu/IzCQTe9PsqiU1vTcCE5q07EFm5pm4pdYe1qvq5DDSG4EJanpamrosIjPLTU9Os7GWzm1vBCYcaTmSzGxj+q5ak5xcNCaEWV1p0rIpmdnYrBGn2VuD3UhLJ2RmR3erVnVgV3O70qTlEDJznLmDTlMdGLWgK01aDicz51iQnKY6lKcrEcnM+Rbsrf34bz6ccsJDJsuiMpCWfshMdxZXpxl3iGxNVJqudExmerdhdX78gdpDB0SlDpkJ5vHsmhWepj0cbmVRBroSl8yEt2bc+fuf0h5W2yQnA1HJRGayWT/u/P0PvrhqyE9xG+ZkICq5yUx+T8/hxe1p764yIpTD5i25EpVqZKaozdvz9x/y7vKkQz3YryJXcsJAZvjbq+vCJvn5+0+b+IsI1WiRA/rxSFEYITO8N3IR2bZAn/7kBd9PlatMpwRjhJawjMywyikFevk3dnZdjkhL2JzMsJe3F6zjO1SchHAKmeE0s656mvSKeNA5mSGGlRfTniulE+QmM5TgUg5n+cfZBwBAZjIDwI5kBoAdyQwAO5IZAHYkMwDsSGYA2JHMALAjmQFgRzIDwI5kBqjqz69nH0EJMnOeP79a5XAy5+D+ZOYkFjd0wsm4M5k5w7Nlffmj32+qh9ycfbuSmcNpDPTHObgfmTmWxkCvnIk7kZkDaQz07fLHF7dqNiczR3namMvl+AMBRlwuF6XZlswcQmMgDqXZ1i9nH0B2AgMBDSfpx+/fzz6QDEwze9IYiMyt003IzG40BuJTmvVkZh8aA1kozUoyswONgVyUZg2Z2ZrGQEY+UrOYzGxKYyAvDzovIzPb0RjITmkW8LmZLQgMlOEjNXOZZlbTGKjHQwHTycw6GgNVKc1EMrOCxkBtSjOFzCylMYDSTCAzi2gM8JOP1IyTmfk0BvjMg84jZGYmjQGeUZpXfG5mMoEBRvlIzVOmmWk0BpjGQwF3ZGYCjQHmUJpbMvOOxgDzKc2VzIzSGGAppRnIzGsaA6zjIzVNZl7SGGALHnSWmWc0BthO8dL43MxnAgPsoPJHakwzNzQG2FPNhwJk5ieNAfZXsDQy01rTGOA41UojMxoDHK1UacpnRmOAM9T5SE3tzGgMcJ4iDzoXzozGAGerUJqSn5sRGKAb6T9SU2+a0RigP4kfCig2zXTemOyz83K/fTv7CAKynKK5/PEl5UxTaZrpvDGwIY2JKeVMUyYzGhOaiyZl5CtNjU2zII3p8JB6k3JLYXufF7x1Fc7ljy8fHx9p9ooLTDNBGgPbMPmlkOlB5+yZ0Zhc8u0n7M1qjytNafJumgkMBaW4KnGV4yM1SacZjcnLQDOdNZ9D9DWfMTMaQ03u/OcVujTpMqMxBYQ+5fZiuyy7uMs+XWYeaExKcU+5Y1j2KQVd9uky8/lJcycbJRhlyohYmnSZaX+XRmNyi3i+HcPKzy3cys+Ymdbab9+caVThzn89sUqTNDPxnzRnilgn2y5sl5UU6/qWNjMt2jsB6xllKgh3ZcucmRbw/WCu0gONUaaeiNe05JlpMd8VWMAok17Qq1n+zLTWPn7/HvTtYYqiA407/8XEvYiVyMwg7pvEW0VLQxmhL1+FMtOCv1XwN6NMJdEvXLUy0+K/YbxSaKBx57+MHBv+5TLTlIZcjDJZpblSVcxMy/IzAndKDDRGmRoyXaCKZmaQ6Y2kJqNMSskuTaUz09K9nSQfaNz5LyDfRal6ZlrGN5WcbJcVkPJyJDOtJX1ry0o+0PxklMkn64VIZn7wUEAmCUtjlMku8fVHZj5J/E6TiVEmk/Q/4/5y9gF05+P372f9LJxhqf35tfVxEbz88SXD6zno7M5/vhf2xJc0z4v5mmnmiQpv/F5+/oZsNtPZdpmzY0NFXkyZea7I27+L3759fHycfRCtpbxD08Eow1bqXGRk5qX0G6a76qQ04Rllkir1SsrMG6VWw2a62TpLNtAYZXKodlWRmfeqrYmtGGjWcuc/o4Ivo8xMUnBlrGWgWamz7TI2UfNKIjNT1Vwfq3gWYDtGmegq3+uVmRkqL5TFOilNMJ2NMpb9SsVfQJmZrfiKmcfW2RZOH2VYwxVDZpawbmYx0Mzjzn8iXr0mM4tZPVMZaGbpbLuMNVwlBjKznDU0VTfPAoRjlInLS3clM6t4KGC6HkrT+0BjlMnCZeGWzGzAknrP1tl8RpmgvG53ZGYbFtYUPQw0/XLnPz7bG0/JzGYsrzcMNKTmCvCKzGzJOnvDswCvGGWC84qNkJmNmZrf6qE0fQ007vwH55QfJzO7sOxe6mbrrFtGmVi8XG/JzF4svhEGmr91tl3GLE7zKWRmR5bgcwaajlm003mtJpKZfVmIz/XxLMD5A01no4zlOp3XajqZ2Z2HAl6pXhp3/mNyRs8lMwexLu/ZOvvMKBOCV2kBmTmOBfqo7kBjlAnIKbyMzBzKMv3EQPOTUaZ/XqLFZOZoFusnNZ8F6OzOP285bdeQmRO4hXinh9Icp7/tMqtxnNdnJZk5jbX7Qx9bZ2c9cnb6KGMdjvP6rCczZ7KCr6oMNP2NMoxwhm5CZk5mHbdWd6AxynTh2fKzs70hmTmf1dxajWcB3Pnv0IvGHH8gif1y9gHQmmX908fHR9qLb3/bZVadxhzDNEM3Km2dpa1pcBqzB5mhLz1snW3PKBOB12QnMkNPagw0RpkOacx+ZIbO9PEswJb6u/PvknrHC7IrmaFHp5dms4HGdhnlyQz96WPrbA89jDJwMJmhUxkGGqMMyAyd6mOg2fZZAKMMNckMvYr+LIA7/9Bakxk6d3ppzvrmZkhDZuhYH1tnSxhl4CeZoXfxBhp3/uGGzNC3uAPNTz2MMnAimaF7HTwLMGOgsV0Gn8kMMZxeGmAZmSGCDrbOJg00Rhl4IDOEcfpA86Y0/d35hx7IDEF0MNDMYpSBgcwQR8/PAvQ3ymgMnZAZgjm9NFP0MMpAJ2SGUDrYOnsy0LjzD6/JDPH0NdD0t10GXZEZoulzoLn+n4wy8JnMEFAHzwL8YJSBd2SGqM4tzdOBxigDj2SGmPrbOtMYeEpmCKyXrTPgNZkhrB4Gmp8TjFEGXpEZIuvnWQDgBZkhvJOfBbhcjDIwQmYIroOtM2CEzJBB8a0zoww9kxniM9BAx2SGFAo/C2CUoXMyQx4FS6Mx9E9myMLWGXRJZkil1EBjlCEEmSERAw30R2bIpcyzAEYZopAZEipSGghBZkinwNaZUYZAZIacEg80GkMsMkNGBQYaiEJmSCrpswBGGcKRGTJLWRqIRWbIK93WmVGGiGSG5Aw0cC6ZIbVEA41RhqBkhuxSPAugMcQlM5SQoDQQlMxQQPCtM6MMockMVRho4BQyQw1hBxqjDNHJDGWkeBYAwpEZaolVGqMMCcgMlYTaOtMYcpAZyok10EB0MkMxQQYaowxpyAz1eBYADiQzFNVzaYwyZCIzlBRk6wwSkBnq6nOgMcqQjMxQVZcDjcaQj8xQWp8DDWQiM1TXT2mMMqQkM1T159ezjwBKkBlK+tyYHgYaowxZyQy0y+Vy9iG0yx9fzj4E2IXMUI/tMjiQzFBdD6PMwEBDSjJDMZ9HmX4aA1nJDHTEQEM+MkMlEUYZpSEZmaEMd/7hDDJDUX2OMgMDDZnIDDUYZeAkMkNFPY8yAwMNacgMBUS48w9ZyQx0ykBDDjJDdkYZOJXMkFrwO/8GGhKQGQqJOMooDdHJDHnZLoMOyAz0zkBDaDJDUkYZ6IPMkFHwO/+PDDTEJTPkZ5SBE8kM6aQbZQYGGoKSGZIzysC5ZIZcUt/5N9AQkcwAsCOZIZHUo8zAQEM4MkMWSe/8P1IaYpEZcko5ykBEMkMKZUaZgYGGQGSGhIwy0A+ZIb4Cd/4fGWiIQmYIrth2GYQjM6RSZJQZGGgIQWaIzCgD3ZMZ8ig1ygwMNPRPZgir5J1/CEdmIDYDDZ2TGWIyytxQGnomMwTU053/j4+Pj4+Ps48C+iUzhHfyKPPbtzP/9p8MNHRLZoimq1Hm9+8//oWBBl6QGWLr4q6MgQZekxlC6enO/3WU+fFvDTTwjMzAFgw08ILMEEfHo0xrrf32zUADj2SGIHq68z/i9NIYaOiNzBBSd6PMwNYZPJAZIuhpu+yt0wca6IrMwDwvR5mBgQY+kxm6F2qUGRho4Epm6Ftnd/7fjDIDAw3ckBki6fTO/yMPN8NPMkPHOhtl5jq9NAYaeiAzhBFmlBn0sXUGp5MZehXwzv8jAw3IDLw3e5QZGGhAZuhUilFmYKChOJmhP53d+V84ygz6GGiUhhPJDL0LPcq05uFmqpMZOpNplLn9c84ujYGGs8gMXQs/ygz62DqDU8gMPenszv9Wo8yPP81AQ0kyQzc62y7bmIGGqmSGTiUbZX78mQYa6pEZ+pB7lBkYaHpTYdV1QGZOZZW/kHKUaa2Lh5sNNJ84B/cnMyf586v1/bfO7vzvTWn64kzcmcycwbLu216jzMDWWX90d1cyc7hnjbn88aXuQi82ygwMNL3xguxHZo71ojHHH0gv+hvs9h1lBgaaLl3++NLhgkxAZg6kMe8UGWUGBpoOXS4XpdmczBzixQ3/UlfVJ/o7n48YZQYGml4pzeZkZn8vlmz1xjwo94J4uLlXl8vFK7MhmdnZiyGm3CX1UX93/o8bZW7/0rNLwytKsxWZ2ZONMsZ1sHXmYjrCQwGbkJndaMwIo8ztX22g6ZhbNevJzA7c8B/npL1loOme0qwkM1tzw3+mHl6ZE0eZHwdw9kCjNOM8FLCGzGzKDf+3bJc96mCgYQqlWUZmtmOjjMU83ByEhwIWkJmNaMwURplRp5eGKdyqmUtmVnPDfyJn5rgOts4MNBMpzSwys46bMUv18BJ1NcoMDDRReChgOplZwRAznR/9pjDQROPlmkJmltKYFXp4oTocZQYGmlg8FPCWzCyiMbP0d+e/X799a2eXxk/oc7lVM05mZnLDP4VuR5nWutg6Yy6lGSEzc7jhv4BRZhEDTTgeCnhFZiYzxCzQ5c93XY8ygw4GGlfMZbxuj2RmGo3ZgldsFs8CBOWhgDsyM4HGLNPlmRZglBkYaCJzq+bWL2cfQN983fJ2vGgLfHx8eN2CulwuHx8fPfy4cDrTzGtu+K/R5Z3/MKPMwMPNwXkoYCAzL9goW8N2wVb8LByf0sjMMxqzqU5eumCjzA0DTXTFHwqQmQcas1Lh02kXBpoUKj8UIDM3fMJ/B528enFHmYGBJoGypZGZn9zw30SXd/7D62CgUZpN1HwoQGZaazbKkos+ygx8WjONaqWRGY3ZjlFmPx5uzqXUQwHlM6MxW+n1nMkxyrTWxdYZG6pzq6bwtwB0+An/RGtOqndy7vcCXP74Yu9uQ0W+KaDqNOOGfw15RplB9utRQRUeCiiZGRtlO/Ni7urkOzTe3B3kLk29TbOOG9PJYaSRbZQZ/Pbt9M1VC3UPPzYkMw6sxaaZjhsD07lBklLWhwLKZMYn/IvJOcoMOni4mZ2kLE2NzLjhX0zmxgwybq0wyPdQQIHMGGJIykCTWKbSZM+MxtSTf5QZGGiyS/NNAakzozFkZ6DJLcetmqSZccO/qiqjzMBAU0CC0mTMjBv+VGKgSS/6QwHpMmOIKazWKDPwcHMZcUuTLjMPNIbkbJ2VEbQ06TLz+ZTTmDoqjjI3DDRFRCzNP1pr3/979lFs62dpNIYqDDSVhCtNumlm8Ns3jSml+CgzMNDUEas0STPjukM1BppKYl3f0mamRXsnWMwbfWWgqSDcgs+cmRbw/YDlPNxcQMRrWvLMtJjvCtN5fz+xdZZa0NWePzMt7HsDyxhoUop7HSuRmRb5HWKEt/UJA01GoZf6L2cfwHGG9ynWg4CwzMfHh2f6c4gbmG///nGxrTLNXMV9z7jjrXzJQJNFjkVeLjMtyzsH49yhiS7NlapiZlqi968s7+Abv31rv33zKsWV6b0rmpmW610EMklwdbremGlDZr7887xjOVWC97Imb9x0Xqtw8r1l99PMbYIqyPeOAnGlvCIVeqD5lY/fv3vKOZCU5+GuvGIv/fxlu508/J31nZKZ1nykBjhVssDc7op9+efPTbOyt2duJXunU/IekU/6Vf1kmvn27y9f/5P8/+1Xzt1AS7/agDsVzvq6DzS/UuFdB3qQ8mpzt2PWbjNzu29W7XmzOynfe6Arda4zppnn6qwA4HhZrzCPo0y7y4yB5lbWdQCcq9q1xTQzptpqAPaW+KrydJRpj5kx0Nz5+P174mUBHKbsxcQ0M0nNxQFsJf015NUo055mxkDzVPpVAuyk+NXj/TSjNFfF1wqwQIXrxsgo015lxnfPvFJhxQBbqXDFGG9MG5lmbJ29UmHdAOtVuFZMqcPYppnSvFJh9QBrFLxKvNoGm/GkmdLcKriGgImKXB/ebpcN3mTm7p9Umltln4IHXqlzWZieg/fTjMcBxhVZUsBbda4Gd40Zz8SkTTM3acbVWVvAK3WuA7Ma06bfm1GacXVWGPCozhVgbmParEcAlGZcnXUG3Kpz7i9oTJv7nWZKM67OagMGdc76ZY1pC746U2nG1VlzQJ3zfXFjWmsfl8tlwV/5/b+f/u3X/1R5rae7/DG7wXWWLHThz6/D/152Gaxzwq5pTFv8iwB8nuatOksQqqnz4Zi2ujFtze+bUZq36ixEqKPUeb2+MW3lrzVTmrdKrUhIr84Z/e3fXzZpTFv/2zMfSyM2d+qsS8itzrn8eBlf83UwG/yS5se/Xmnu1FmdkFWds/hxiFn5lWMbZObpcSjNnTprFPIpcv5uuFF2a5vMDGygjSuyUiGZImfuthtltxZ+bmbE3Udqmk/VPHj1kZoiqxl6MeFzMxXOyqfzwIbfzb99ZgZiM+5paSosaOjIaGaKnI/7DTFXW26a3fJcwLgiKxgC+O3b439W4Qx9el9jj18wtldm2ovSiM1VhXUMvSvcmLv/ZP0TZa/stWl2ywbaiNvdswqLGzpU6jTc+07MoyMy056VponNT9clnn59Q5+KnIPHB2aw46bZrafjmD20Qe6VDVHkPhPPakw7bJq5ZbJ56vLHl9yrHLqV++w7MTCDEzLTXpSmiQ3Adk4PzOCczAyMNQB7eHU/4vjGtHMzMxAbgK10FZjB+ZkZiA3AGh0GZtBLZpobNgCLdBuYQUeZGbyKTdMbgM86D8ygu8wMxAZgRIjADDrNzEBsAO4ECsyg68wMxAZg5DtTug3MIEBmrvQGKChuYAaRMjMQG6CI6IEZxMvMYCQ2TW+AyHLU5SpqZgZiA6Qx/o31EQMziJ2ZK70B4soamEGSzAzEBggkd12uUmXmSm+Abr39dY5pAjPImZnBeGya3gAHqlaXq8yZudIb4Cxl63JVIjNXegMc421dWoHADGpl5kpvgD2oy6Oimbl625smOcA76jKiemau9AaYS12mkJl7U3rTJAeqmpKWpi43ZOYlvQEG0rKGzLw3sTdNciAXddmEzMwjOZDbxLQ0dZlMZpaTHMhBWnYlMxuY3psmOdAHaTmMzGxsVnKa6sBRpndloC5bkZkdSQ6cS1p6IDMHmZucpjow39yuNGnZn8ycYEFymurAM7rSP5k5n+rARAuiMpCWE8lMX5YlZyA85KMrCchM19ZUpwkP0SyOStOVjslMJCur04SHnqyJStOVOGQmtvXhadrD/lYWZaArQclMKptUZ6A9LLBJTgaikobMJLdheAbyQ9s0JwNRSUxmKtq8PQMFSmbzllyJSikyww87teeWDvVmv5BcKQoywxsH5OeWFG3igH7ckRNekRkWOjg/43LH6fhmjJAT5pIZdtFVhJhFSNiWzHACETqRinCw/weHnO27sVP46AAAAABJRU5ErkJggg==;strokeColor=none;strokeWidth=3;labelBackgroundColor=none;rounded=0;html=1;whiteSpace=wrap;" parent="1" vertex="1">
          <mxGeometry x="1875" y="137.5" width="125" height="60" as="geometry" />
        </mxCell>
        <mxCell id="6p9jYXADkKIyNsR3x7E2-67" value="&amp;nbsp;" style="vsdxID=203;fillColor=none;gradientColor=none;image;aspect=fixed;image=data:image/png,iVBORw0KGgoAAAANSUhEUgAAAiIAAAJPCAIAAADOvCj5AAAizElEQVR4nO3dzbXj1pWA0fu8lITT6DSsaVUYHksRSGOHUTVVp9FpOAz2AFUUH39A/OOec/ZevVbbbqsKTV7ge+cC5Pu4XC4NMvr+37OPYKYv/zz7CGAHHzJDz8Kl4kQqRZ9khhOIx4nUiIPJDLsQkrh0iG3JDAt1FZKv/3f2Eezp2/+cfQQ3RIi5ZIY3Ds5J7mAc5vgyyQ+vyAw/HJATCenNATWSH2Smop2KoiLJ7Bch7SlFZvLbNipaQtuhQMKTmMyksmFR5IQFNsyP8KQhM7Ft0hVFYW+b5Ed4gpKZSNZHRVHox8r2qE4UMtO1lV0RFWJZEx7V6ZbM9GVNV0SFfBaHR3X6ITPnW5YWUaEg1YlIZk6gK7CVBeGRnIPJzEEWpEVXYK651ZGcA8jMjuamRVdgW6rTA5nZmLRAnyTnLDKzgVlp0RXowfTq6M1KMrPc9LpIC/RMcnYlM/NUT8uvH2cfQTp/OQH7Ijmbk5n3qqflFcnZitL0amJy9GaczLw0sS610vKU3qynNH0z4qwhM/fUZRXJWUZm4jDizCUzP0ypi7Q8uvzr7CNI5ON/zz4C5tCbiapnRl22ojebUJqgpiSnbG+KZuZtXaRlDclZTGai05tHtTKjLgfTmwWUJge9uSqRGXXpgeRMpzSZvO1N+thkzoy69Elv3pKZlMr2JmdmxgOjLv2QnFeUJrFqvUmVGXWJS28eKU16471JE5skmRGYTCRnIDN15O5N7MyoS256ozSlZI1N1MwITDVlk6M0BY30JmJs4mVmJDDqkt+v8VbsekpTVo7eRDppBaa0Z1/KGWj1riEzxUWPTYDMqEt1r7/1uf/VuxWlIW5sus6MwFQnMDeUhsGr3nQbm04zIzDVjf7emj4X7d5khluBYtNdZgSmOoF5TWm4EyI2fWXmaWPUpQqBmUBpeNR5bHrJjMCUJjBzKA1PdRub8zMjMKUJzHwyw4gOY3NmZgSmOg+SLaU0jOsqNudk5tV9fo2pQmBWUxreehqb40tzQmYMMaUJzEZkholOj82hmRGY0rLfhrle9w/7lk+lYboTY3NQZgSmtDKBeWrX6igNszzG5oDSHJEZjakre2DazAv95smRGeY6fqzZNzMCU5fAvLNVcpSGBY4ca3bMzGNjBKYEgVlkTXWUhgUOG2t2yYwhpq7sD5Idc0FfkBylYZkDxprtM2OIKUpg9jExOTLDYnuPNRtnRmMqEpgDjVSnq+MknP3Gms0yIzAVCcypHpPT+QHTuZ1Ks01mNKac7Pf5I16vL/8Kedj05i4260uzQWY0phaBgey2HWvWZuauMQKTWfbANI2BnzYszarMaEwVAgMlbbKBtjwzGlOCwFQw+i6zyl/hz5H1pVmYGY0pwYNkNanOtsqXZklmNCY/geFKddarXZrZmbltjMAkJDCMU51lCpdmXmY0JrPst2EEZoHDfkVbBQlW4LLSzMiMxqQlMLyjN5tIsBQXlGZqZjQmJ4FhPslZI8GanFuaSZnRmISyB6alOJ87pzcL5FiWs0rzPjOeK8tGYNiB5EyXY33elmZVZjQmGw+SsTO9mSLHQp1YmhmZ0ZjYBIbDSc6IHCt2Sml+GfnnNSYJgeEk17dGbyr4/t/npXk5zWhMBtlvwwhMRJJzlWMBvx1onmfGLZnwBIbu6U3LspLHS/M+MxoTjMAQy68fLcXKXCbNeh4pzZN7MxoTVfbAtETnJK19WrEfHz/+dY6FOl2FX639j7MPgC38+jF+nz/Bqfvxv/nPxkJer9iPGwcf1FlybB7eziR3t13upxmjTDweJCOQOV/w/PGx9rfI0wPTTGSvfyQ0wdCd0Zn7UY41PFHugebTNGOUCcMEQyAzf0VNjjU8V+KbNKaZaEwwBGKCmSPBTPN0oPnl8T9qRpk+ZX+QTF2ymRmY/Q6Ec5lmIsj+IJkJJps5Q0yCBbyhlAPNk8/NGGU6YoIhFhPMavlu0vzIzN1jzpwve2CaxiQjMLww9g3NnENgiEVgthZ9oPn6f5++e0ZmOuNJZQIRmN1EL83V9/8+ZMaNmdMIDIGUDIxfn7PML82NmdMJDIHUDszjv90vOWkGmo/L5eITM6fJfhsmx0nC3+o1ZtYa3iM5cU+i6+0Z92ZOIjDEIjDz/xF7awOZOZzAEIvAbPHnLE5Ogq0zmTmQwBCLwOzzJ89NTvTSyMwhsgemaUwyAnPU3zUxOaFLIzP78yAZgQjMqX97yts5MrMngSEQgenAyKATd6CRmX0IDIEITJcekxO0NDKzNYEhEIEJIuhhD2RmO9nv84de6Dwx51fC7Hogx7CAzyIzWxAYYhEYDiQz6wgMsQgMh7j/RQBf/unbM+cTGGIRGE5yP818+x/fnvlO9sA0p2gyAsOpbJrN5EEyAhEYOiAzkwkMgRQLTLOAe3J7Y6Y9zYx9s3sCQyACQ2dMM6Oy34ZxfmYzrTEJlu7AAg5BZl4QGGIRGPpwt2PWXmWm9L6ZwBCLwNA308wNgSEWgaEzt6PM1/98//bvL20kM7UGmuyBaU7RZASGOEwzHiQjFIGhV3ejzPVf/+Puv3f7f3u8k5PNrx+vTtrL5ZLgRP34X2dpIq+X660cS7dZvYm8mWbSbp2ZYAjEBEP3Xo0y7XGaefxvZDP6I2GCE9XPgNlUaozVG9T41teTzLSsW2fvAhP9RHWKZlNpl8zqTeNxUJn0CED4rbPsD5I5P7MpNsEQ2sh22eD5NPPqv51Mgh8D/QyYjQmGUKZsd73MTMu0dfbX5cf//JTgLHWKZiMwBPdqOBnLzJ3YpRn8dUlzlpKHwBDT2+2ywZvM3P2ToUtz+Ve7/Ovsg1jNWZqKwBDWxMa0KdNMmtIMqzzuQg998NwTGCKbFYJJm2ZpSjMI15tYR8sbAkNwdwl4+7zY1HszyUoz6L83nR8eswkMwc1tTJv1CEDK0gw67E1vx8NaE4YYgaFzCxrTZmXm8Q/NVJpBD705/QDYmMCQwrLGtLmZefyj85VmcEpvnKXZCAxZLG5MW5CZx78ga2kGx/TGWZqNwJDImsa0ZZl5/Gtyl2awX2+cpakIDLmsbExb89szr7/n+Xoosb9ec7LrqbX+w57O0lSmPUV2wIHszbot4nF+WPZdlwunmad/ZYWZ5taa+cZPgqmUmWCaxpSxVWPammnm+hffzTStVRlrrmbNN87SbCYE5pgD2ZulW8f6jbJbq6aZV0dQbay5Gp9vTDDZvBtiMk0wlm4d2zamrZ9mbo+j5q2ap+7mG6doNiYYMtpwo+zWBtPM1eOtmrJjzZUfA7MxwZDUTo1pW00zV3e3alr5sYY8TDAktV9gBhtnpr3YQGv1ngsgD4Ehr70b0/bIzMBYQwYCQ14HBGawV2aasYbQBIbUDmtM2/YRgKeePu7s0QC6VqMxbvLX9PQKvF9j2q7TzNXjWNPsodGnMoGhoKc/3+8amMERmRk8vVvT7KHRCYEhr7MCMzguM+31WNPEhhMJDKmd25h2cGYGYkMvBIbUTg/M4ITMDB730JrYcBiBIbVOAjM4LTPtxVjTxIZdCQypvXqO96zGtHMzMxAbDiIwpNZhYAbnZ2YgNuxIYEit28AMesnMQGzY3rsvVD7sQPYjMGV1HphBX5kZiA3bEBiSGvkila4CM+gxMwOxYTmBIalYgRn0m5nBeGya3nBHYEgqYmAGvWdm8Co2zXDDlcCQVNzADGJkZvA2Nk1vahIYMopel6tImRlcX1/DDT/8dXlaGoEhqDSBGcTLzJXhhr/99bMov360LIFpGlPM+C/iihiYQeDMDEZi0ww39QgM4WSty1X4zAym7KQ1vcnu8q+zj2ALAlNH+sAMkmTmaspw0/QmqesFOmhvBKaIInW5ypaZwfhw0/Qmu3C9EZgKxuvSMgZmkDMzV3pTXP+9EZj0ytblKnlmrsY305reZNdhbwQmN3W5qpKZwdvhpulNdj30RmASU5dHtTJzpTec0huBSeltWlrJulwVzczVrN40ycnomN4ITD7qMlH1zFxN6U0z4qS2U28EJpMpaWnq8pnM3LtdH0acmrbqjcCkoS5ryMyYuSNOk5xcFvdGYBKYmJamLu/IzCQTe9PsqiU1vTcCE5q07EFm5pm4pdYe1qvq5DDSG4EJanpamrosIjPLTU9Os7GWzm1vBCYcaTmSzGxj+q5ak5xcNCaEWV1p0rIpmdnYrBGn2VuD3UhLJ2RmR3erVnVgV3O70qTlEDJznLmDTlMdGLWgK01aDicz51iQnKY6lKcrEcnM+Rbsrf34bz6ccsJDJsuiMpCWfshMdxZXpxl3iGxNVJqudExmerdhdX78gdpDB0SlDpkJ5vHsmhWepj0cbmVRBroSl8yEt2bc+fuf0h5W2yQnA1HJRGayWT/u/P0PvrhqyE9xG+ZkICq5yUx+T8/hxe1p764yIpTD5i25EpVqZKaozdvz9x/y7vKkQz3YryJXcsJAZvjbq+vCJvn5+0+b+IsI1WiRA/rxSFEYITO8N3IR2bZAn/7kBd9PlatMpwRjhJawjMywyikFevk3dnZdjkhL2JzMsJe3F6zjO1SchHAKmeE0s656mvSKeNA5mSGGlRfTniulE+QmM5TgUg5n+cfZBwBAZjIDwI5kBoAdyQwAO5IZAHYkMwDsSGYA2JHMALAjmQFgRzIDwI5kBqjqz69nH0EJMnOeP79a5XAy5+D+ZOYkFjd0wsm4M5k5w7Nlffmj32+qh9ycfbuSmcNpDPTHObgfmTmWxkCvnIk7kZkDaQz07fLHF7dqNiczR3namMvl+AMBRlwuF6XZlswcQmMgDqXZ1i9nH0B2AgMBDSfpx+/fzz6QDEwze9IYiMyt003IzG40BuJTmvVkZh8aA1kozUoyswONgVyUZg2Z2ZrGQEY+UrOYzGxKYyAvDzovIzPb0RjITmkW8LmZLQgMlOEjNXOZZlbTGKjHQwHTycw6GgNVKc1EMrOCxkBtSjOFzCylMYDSTCAzi2gM8JOP1IyTmfk0BvjMg84jZGYmjQGeUZpXfG5mMoEBRvlIzVOmmWk0BpjGQwF3ZGYCjQHmUJpbMvOOxgDzKc2VzIzSGGAppRnIzGsaA6zjIzVNZl7SGGALHnSWmWc0BthO8dL43MxnAgPsoPJHakwzNzQG2FPNhwJk5ieNAfZXsDQy01rTGOA41UojMxoDHK1UacpnRmOAM9T5SE3tzGgMcJ4iDzoXzozGAGerUJqSn5sRGKAb6T9SU2+a0RigP4kfCig2zXTemOyz83K/fTv7CAKynKK5/PEl5UxTaZrpvDGwIY2JKeVMUyYzGhOaiyZl5CtNjU2zII3p8JB6k3JLYXufF7x1Fc7ljy8fHx9p9ooLTDNBGgPbMPmlkOlB5+yZ0Zhc8u0n7M1qjytNafJumgkMBaW4KnGV4yM1SacZjcnLQDOdNZ9D9DWfMTMaQ03u/OcVujTpMqMxBYQ+5fZiuyy7uMs+XWYeaExKcU+5Y1j2KQVd9uky8/lJcycbJRhlyohYmnSZaX+XRmNyi3i+HcPKzy3cys+Ymdbab9+caVThzn89sUqTNDPxnzRnilgn2y5sl5UU6/qWNjMt2jsB6xllKgh3ZcucmRbw/WCu0gONUaaeiNe05JlpMd8VWMAok17Qq1n+zLTWPn7/HvTtYYqiA407/8XEvYiVyMwg7pvEW0VLQxmhL1+FMtOCv1XwN6NMJdEvXLUy0+K/YbxSaKBx57+MHBv+5TLTlIZcjDJZpblSVcxMy/IzAndKDDRGmRoyXaCKZmaQ6Y2kJqNMSskuTaUz09K9nSQfaNz5LyDfRal6ZlrGN5WcbJcVkPJyJDOtJX1ry0o+0PxklMkn64VIZn7wUEAmCUtjlMku8fVHZj5J/E6TiVEmk/Q/4/5y9gF05+P372f9LJxhqf35tfVxEbz88SXD6zno7M5/vhf2xJc0z4v5mmnmiQpv/F5+/oZsNtPZdpmzY0NFXkyZea7I27+L3759fHycfRCtpbxD08Eow1bqXGRk5qX0G6a76qQ04Rllkir1SsrMG6VWw2a62TpLNtAYZXKodlWRmfeqrYmtGGjWcuc/o4Ivo8xMUnBlrGWgWamz7TI2UfNKIjNT1Vwfq3gWYDtGmegq3+uVmRkqL5TFOilNMJ2NMpb9SsVfQJmZrfiKmcfW2RZOH2VYwxVDZpawbmYx0Mzjzn8iXr0mM4tZPVMZaGbpbLuMNVwlBjKznDU0VTfPAoRjlInLS3clM6t4KGC6HkrT+0BjlMnCZeGWzGzAknrP1tl8RpmgvG53ZGYbFtYUPQw0/XLnPz7bG0/JzGYsrzcMNKTmCvCKzGzJOnvDswCvGGWC84qNkJmNmZrf6qE0fQ007vwH55QfJzO7sOxe6mbrrFtGmVi8XG/JzF4svhEGmr91tl3GLE7zKWRmR5bgcwaajlm003mtJpKZfVmIz/XxLMD5A01no4zlOp3XajqZ2Z2HAl6pXhp3/mNyRs8lMwexLu/ZOvvMKBOCV2kBmTmOBfqo7kBjlAnIKbyMzBzKMv3EQPOTUaZ/XqLFZOZoFusnNZ8F6OzOP285bdeQmRO4hXinh9Icp7/tMqtxnNdnJZk5jbX7Qx9bZ2c9cnb6KGMdjvP6rCczZ7KCr6oMNP2NMoxwhm5CZk5mHbdWd6AxynTh2fKzs70hmTmf1dxajWcB3Pnv0IvGHH8gif1y9gHQmmX908fHR9qLb3/bZVadxhzDNEM3Km2dpa1pcBqzB5mhLz1snW3PKBOB12QnMkNPagw0RpkOacx+ZIbO9PEswJb6u/PvknrHC7IrmaFHp5dms4HGdhnlyQz96WPrbA89jDJwMJmhUxkGGqMMyAyd6mOg2fZZAKMMNckMvYr+LIA7/9Bakxk6d3ppzvrmZkhDZuhYH1tnSxhl4CeZoXfxBhp3/uGGzNC3uAPNTz2MMnAimaF7HTwLMGOgsV0Gn8kMMZxeGmAZmSGCDrbOJg00Rhl4IDOEcfpA86Y0/d35hx7IDEF0MNDMYpSBgcwQR8/PAvQ3ymgMnZAZgjm9NFP0MMpAJ2SGUDrYOnsy0LjzD6/JDPH0NdD0t10GXZEZoulzoLn+n4wy8JnMEFAHzwL8YJSBd2SGqM4tzdOBxigDj2SGmPrbOtMYeEpmCKyXrTPgNZkhrB4Gmp8TjFEGXpEZIuvnWQDgBZkhvJOfBbhcjDIwQmYIroOtM2CEzJBB8a0zoww9kxniM9BAx2SGFAo/C2CUoXMyQx4FS6Mx9E9myMLWGXRJZkil1EBjlCEEmSERAw30R2bIpcyzAEYZopAZEipSGghBZkinwNaZUYZAZIacEg80GkMsMkNGBQYaiEJmSCrpswBGGcKRGTJLWRqIRWbIK93WmVGGiGSG5Aw0cC6ZIbVEA41RhqBkhuxSPAugMcQlM5SQoDQQlMxQQPCtM6MMockMVRho4BQyQw1hBxqjDNHJDGWkeBYAwpEZaolVGqMMCcgMlYTaOtMYcpAZyok10EB0MkMxQQYaowxpyAz1eBYADiQzFNVzaYwyZCIzlBRk6wwSkBnq6nOgMcqQjMxQVZcDjcaQj8xQWp8DDWQiM1TXT2mMMqQkM1T159ezjwBKkBlK+tyYHgYaowxZyQy0y+Vy9iG0yx9fzj4E2IXMUI/tMjiQzFBdD6PMwEBDSjJDMZ9HmX4aA1nJDHTEQEM+MkMlEUYZpSEZmaEMd/7hDDJDUX2OMgMDDZnIDDUYZeAkMkNFPY8yAwMNacgMBUS48w9ZyQx0ykBDDjJDdkYZOJXMkFrwO/8GGhKQGQqJOMooDdHJDHnZLoMOyAz0zkBDaDJDUkYZ6IPMkFHwO/+PDDTEJTPkZ5SBE8kM6aQbZQYGGoKSGZIzysC5ZIZcUt/5N9AQkcwAsCOZIZHUo8zAQEM4MkMWSe/8P1IaYpEZcko5ykBEMkMKZUaZgYGGQGSGhIwy0A+ZIb4Cd/4fGWiIQmYIrth2GYQjM6RSZJQZGGgIQWaIzCgD3ZMZ8ig1ygwMNPRPZgir5J1/CEdmIDYDDZ2TGWIyytxQGnomMwTU053/j4+Pj4+Ps48C+iUzhHfyKPPbtzP/9p8MNHRLZoimq1Hm9+8//oWBBl6QGWLr4q6MgQZekxlC6enO/3WU+fFvDTTwjMzAFgw08ILMEEfHo0xrrf32zUADj2SGIHq68z/i9NIYaOiNzBBSd6PMwNYZPJAZIuhpu+yt0wca6IrMwDwvR5mBgQY+kxm6F2qUGRho4Epm6Ftnd/7fjDIDAw3ckBki6fTO/yMPN8NPMkPHOhtl5jq9NAYaeiAzhBFmlBn0sXUGp5MZehXwzv8jAw3IDLw3e5QZGGhAZuhUilFmYKChOJmhP53d+V84ygz6GGiUhhPJDL0LPcq05uFmqpMZOpNplLn9c84ujYGGs8gMXQs/ygz62DqDU8gMPenszv9Wo8yPP81AQ0kyQzc62y7bmIGGqmSGTiUbZX78mQYa6pEZ+pB7lBkYaHpTYdV1QGZOZZW/kHKUaa2Lh5sNNJ84B/cnMyf586v1/bfO7vzvTWn64kzcmcycwbLu216jzMDWWX90d1cyc7hnjbn88aXuQi82ygwMNL3xguxHZo71ojHHH0gv+hvs9h1lBgaaLl3++NLhgkxAZg6kMe8UGWUGBpoOXS4XpdmczBzixQ3/UlfVJ/o7n48YZQYGml4pzeZkZn8vlmz1xjwo94J4uLlXl8vFK7MhmdnZiyGm3CX1UX93/o8bZW7/0rNLwytKsxWZ2ZONMsZ1sHXmYjrCQwGbkJndaMwIo8ztX22g6ZhbNevJzA7c8B/npL1loOme0qwkM1tzw3+mHl6ZE0eZHwdw9kCjNOM8FLCGzGzKDf+3bJc96mCgYQqlWUZmtmOjjMU83ByEhwIWkJmNaMwURplRp5eGKdyqmUtmVnPDfyJn5rgOts4MNBMpzSwys46bMUv18BJ1NcoMDDRReChgOplZwRAznR/9pjDQROPlmkJmltKYFXp4oTocZQYGmlg8FPCWzCyiMbP0d+e/X799a2eXxk/oc7lVM05mZnLDP4VuR5nWutg6Yy6lGSEzc7jhv4BRZhEDTTgeCnhFZiYzxCzQ5c93XY8ygw4GGlfMZbxuj2RmGo3ZgldsFs8CBOWhgDsyM4HGLNPlmRZglBkYaCJzq+bWL2cfQN983fJ2vGgLfHx8eN2CulwuHx8fPfy4cDrTzGtu+K/R5Z3/MKPMwMPNwXkoYCAzL9goW8N2wVb8LByf0sjMMxqzqU5eumCjzA0DTXTFHwqQmQcas1Lh02kXBpoUKj8UIDM3fMJ/B528enFHmYGBJoGypZGZn9zw30SXd/7D62CgUZpN1HwoQGZaazbKkos+ygx8WjONaqWRGY3ZjlFmPx5uzqXUQwHlM6MxW+n1nMkxyrTWxdYZG6pzq6bwtwB0+An/RGtOqndy7vcCXP74Yu9uQ0W+KaDqNOOGfw15RplB9utRQRUeCiiZGRtlO/Ni7urkOzTe3B3kLk29TbOOG9PJYaSRbZQZ/Pbt9M1VC3UPPzYkMw6sxaaZjhsD07lBklLWhwLKZMYn/IvJOcoMOni4mZ2kLE2NzLjhX0zmxgwybq0wyPdQQIHMGGJIykCTWKbSZM+MxtSTf5QZGGiyS/NNAakzozFkZ6DJLcetmqSZccO/qiqjzMBAU0CC0mTMjBv+VGKgSS/6QwHpMmOIKazWKDPwcHMZcUuTLjMPNIbkbJ2VEbQ06TLz+ZTTmDoqjjI3DDRFRCzNP1pr3/979lFs62dpNIYqDDSVhCtNumlm8Ns3jSml+CgzMNDUEas0STPjukM1BppKYl3f0mamRXsnWMwbfWWgqSDcgs+cmRbw/YDlPNxcQMRrWvLMtJjvCtN5fz+xdZZa0NWePzMt7HsDyxhoUop7HSuRmRb5HWKEt/UJA01GoZf6L2cfwHGG9ynWg4CwzMfHh2f6c4gbmG///nGxrTLNXMV9z7jjrXzJQJNFjkVeLjMtyzsH49yhiS7NlapiZlqi968s7+Abv31rv33zKsWV6b0rmpmW610EMklwdbremGlDZr7887xjOVWC97Imb9x0Xqtw8r1l99PMbYIqyPeOAnGlvCIVeqD5lY/fv3vKOZCU5+GuvGIv/fxlu508/J31nZKZ1nykBjhVssDc7op9+efPTbOyt2duJXunU/IekU/6Vf1kmvn27y9f/5P8/+1Xzt1AS7/agDsVzvq6DzS/UuFdB3qQ8mpzt2PWbjNzu29W7XmzOynfe6Arda4zppnn6qwA4HhZrzCPo0y7y4yB5lbWdQCcq9q1xTQzptpqAPaW+KrydJRpj5kx0Nz5+P174mUBHKbsxcQ0M0nNxQFsJf015NUo055mxkDzVPpVAuyk+NXj/TSjNFfF1wqwQIXrxsgo015lxnfPvFJhxQBbqXDFGG9MG5lmbJ29UmHdAOtVuFZMqcPYppnSvFJh9QBrFLxKvNoGm/GkmdLcKriGgImKXB/ebpcN3mTm7p9Umltln4IHXqlzWZieg/fTjMcBxhVZUsBbda4Gd40Zz8SkTTM3acbVWVvAK3WuA7Ma06bfm1GacXVWGPCozhVgbmParEcAlGZcnXUG3Kpz7i9oTJv7nWZKM67OagMGdc76ZY1pC746U2nG1VlzQJ3zfXFjWmsfl8tlwV/5/b+f/u3X/1R5rae7/DG7wXWWLHThz6/D/152Gaxzwq5pTFv8iwB8nuatOksQqqnz4Zi2ujFtze+bUZq36ixEqKPUeb2+MW3lrzVTmrdKrUhIr84Z/e3fXzZpTFv/2zMfSyM2d+qsS8itzrn8eBlf83UwG/yS5se/Xmnu1FmdkFWds/hxiFn5lWMbZObpcSjNnTprFPIpcv5uuFF2a5vMDGygjSuyUiGZImfuthtltxZ+bmbE3Udqmk/VPHj1kZoiqxl6MeFzMxXOyqfzwIbfzb99ZgZiM+5paSosaOjIaGaKnI/7DTFXW26a3fJcwLgiKxgC+O3b439W4Qx9el9jj18wtldm2ovSiM1VhXUMvSvcmLv/ZP0TZa/stWl2ywbaiNvdswqLGzpU6jTc+07MoyMy056VponNT9clnn59Q5+KnIPHB2aw46bZrafjmD20Qe6VDVHkPhPPakw7bJq5ZbJ56vLHl9yrHLqV++w7MTCDEzLTXpSmiQ3Adk4PzOCczAyMNQB7eHU/4vjGtHMzMxAbgK10FZjB+ZkZiA3AGh0GZtBLZpobNgCLdBuYQUeZGbyKTdMbgM86D8ygu8wMxAZgRIjADDrNzEBsAO4ECsyg68wMxAZg5DtTug3MIEBmrvQGKChuYAaRMjMQG6CI6IEZxMvMYCQ2TW+AyHLU5SpqZgZiA6Qx/o31EQMziJ2ZK70B4soamEGSzAzEBggkd12uUmXmSm+Abr39dY5pAjPImZnBeGya3gAHqlaXq8yZudIb4Cxl63JVIjNXegMc421dWoHADGpl5kpvgD2oy6Oimbl625smOcA76jKiemau9AaYS12mkJl7U3rTJAeqmpKWpi43ZOYlvQEG0rKGzLw3sTdNciAXddmEzMwjOZDbxLQ0dZlMZpaTHMhBWnYlMxuY3psmOdAHaTmMzGxsVnKa6sBRpndloC5bkZkdSQ6cS1p6IDMHmZucpjow39yuNGnZn8ycYEFymurAM7rSP5k5n+rARAuiMpCWE8lMX5YlZyA85KMrCchM19ZUpwkP0SyOStOVjslMJCur04SHnqyJStOVOGQmtvXhadrD/lYWZaArQclMKptUZ6A9LLBJTgaikobMJLdheAbyQ9s0JwNRSUxmKtq8PQMFSmbzllyJSikyww87teeWDvVmv5BcKQoywxsH5OeWFG3igH7ckRNekRkWOjg/43LH6fhmjJAT5pIZdtFVhJhFSNiWzHACETqRinCw/weHnO27sVP46AAAAABJRU5ErkJggg==;strokeColor=none;strokeWidth=3;labelBackgroundColor=none;rounded=0;html=1;whiteSpace=wrap;spacing=1;" parent="1" vertex="1">
          <mxGeometry x="1570" y="266" width="113" height="54" as="geometry" />
        </mxCell>
        <mxCell id="6p9jYXADkKIyNsR3x7E2-68" value="&lt;font style=&quot;font-size:25px;font-family:Calibri;color:#ffffff;direction:ltr;letter-spacing:0px;line-height:120%;opacity:1&quot;&gt;&lt;b&gt;Интернет&lt;br/&gt;&lt;/b&gt;&lt;/font&gt;" style="verticalAlign=middle;align=center;vsdxID=221;fillColor=#5c9bd5;gradientColor=none;shape=stencil(xVfLctswDPwaHY0hAPF1dpP/0CSyrYlreWilSf8+dClTBT1WTmVvNAjJu3gt1PD2cujOfUPqMoXxrf8YXqdDwz8aouF06MMwxVPDTw1vd2Po92F8P72m3+fu6nk9/Rx/Xd/wmZ5rwdP1IVK/k0F7UPaP5Tn5d+El3obZ34JP7mH2RwaaTbOLA4vilcyg9eyy6T6HyyaMUzcN4yndq3R37MK+38S/2+yO3V5cXT76/vyXGR8DRAMKJUQy4FsBkRG8FhiR8mMVMDrgIoysSowawRmB0QJRNYgImotMe5AIjQPPsnjA1EPIgAVCikksatGDk3lmMLUQ+rssowYrAXoLLBGyXiqhRprNfZq1kUHMTT+7GAuuXkO3YGyR52hyshQtqFZgdHzLfAWIMYkFQg8oALIDLYPoFaCvhZAwt2qeOAacrMXYG0U/1wyiA6OLSmwX3fhWrf4JwnhYhHM3HI9Jd/P9I1VFlWfTAtStyqpzBfmoq/+XvKTEFlDKkTNAa4w83jHi+k2hHlOKQ8PKLcDGiK5wMnlWZ04KbCGKlSeRpOQISC5fWoNya5SK2RoVgaxgVHv8S0Y+DgEZzzbGnNcYId0lieqr7krhcZvXgGUxWKm7uHiVIq1v46TmSisoidlYzMV4KD9Aoil9vPDTFw==);strokeColor=#000000;labelBackgroundColor=none;rounded=0;html=1;whiteSpace=wrap;" parent="1" vertex="1">
          <mxGeometry x="3280" y="96" width="152" height="95" as="geometry" />
        </mxCell>
        <mxCell id="6p9jYXADkKIyNsR3x7E2-69" value="&lt;font style=&quot;font-size:16px;font-family:Calibri;color:#000000;direction:ltr;letter-spacing:0px;line-height:120%;opacity:1&quot;&gt;MRT01.SWITC.KST???&lt;br&gt;&lt;/font&gt;" style="vsdxID=288;fillColor=none;gradientColor=none;image;aspect=fixed;image=data:image/png,iVBORw0KGgoAAAANSUhEUgAAAiIAAAJPCAIAAADOvCj5AAAizElEQVR4nO3dzbXj1pWA0fu8lITT6DSsaVUYHksRSGOHUTVVp9FpOAz2AFUUH39A/OOec/ZevVbbbqsKTV7ge+cC5Pu4XC4NMvr+37OPYKYv/zz7CGAHHzJDz8Kl4kQqRZ9khhOIx4nUiIPJDLsQkrh0iG3JDAt1FZKv/3f2Eezp2/+cfQQ3RIi5ZIY3Ds5J7mAc5vgyyQ+vyAw/HJATCenNATWSH2Smop2KoiLJ7Bch7SlFZvLbNipaQtuhQMKTmMyksmFR5IQFNsyP8KQhM7Ft0hVFYW+b5Ed4gpKZSNZHRVHox8r2qE4UMtO1lV0RFWJZEx7V6ZbM9GVNV0SFfBaHR3X6ITPnW5YWUaEg1YlIZk6gK7CVBeGRnIPJzEEWpEVXYK651ZGcA8jMjuamRVdgW6rTA5nZmLRAnyTnLDKzgVlp0RXowfTq6M1KMrPc9LpIC/RMcnYlM/NUT8uvH2cfQTp/OQH7Ijmbk5n3qqflFcnZitL0amJy9GaczLw0sS610vKU3qynNH0z4qwhM/fUZRXJWUZm4jDizCUzP0ypi7Q8uvzr7CNI5ON/zz4C5tCbiapnRl22ojebUJqgpiSnbG+KZuZtXaRlDclZTGai05tHtTKjLgfTmwWUJge9uSqRGXXpgeRMpzSZvO1N+thkzoy69Elv3pKZlMr2JmdmxgOjLv2QnFeUJrFqvUmVGXWJS28eKU16471JE5skmRGYTCRnIDN15O5N7MyoS256ozSlZI1N1MwITDVlk6M0BY30JmJs4mVmJDDqkt+v8VbsekpTVo7eRDppBaa0Z1/KGWj1riEzxUWPTYDMqEt1r7/1uf/VuxWlIW5sus6MwFQnMDeUhsGr3nQbm04zIzDVjf7emj4X7d5khluBYtNdZgSmOoF5TWm4EyI2fWXmaWPUpQqBmUBpeNR5bHrJjMCUJjBzKA1PdRub8zMjMKUJzHwyw4gOY3NmZgSmOg+SLaU0jOsqNudk5tV9fo2pQmBWUxreehqb40tzQmYMMaUJzEZkholOj82hmRGY0rLfhrle9w/7lk+lYboTY3NQZgSmtDKBeWrX6igNszzG5oDSHJEZjakre2DazAv95smRGeY6fqzZNzMCU5fAvLNVcpSGBY4ca3bMzGNjBKYEgVlkTXWUhgUOG2t2yYwhpq7sD5Idc0FfkBylYZkDxprtM2OIKUpg9jExOTLDYnuPNRtnRmMqEpgDjVSnq+MknP3Gms0yIzAVCcypHpPT+QHTuZ1Ks01mNKac7Pf5I16vL/8Kedj05i4260uzQWY0phaBgey2HWvWZuauMQKTWfbANI2BnzYszarMaEwVAgMlbbKBtjwzGlOCwFQw+i6zyl/hz5H1pVmYGY0pwYNkNanOtsqXZklmNCY/geFKddarXZrZmbltjMAkJDCMU51lCpdmXmY0JrPst2EEZoHDfkVbBQlW4LLSzMiMxqQlMLyjN5tIsBQXlGZqZjQmJ4FhPslZI8GanFuaSZnRmISyB6alOJ87pzcL5FiWs0rzPjOeK8tGYNiB5EyXY33elmZVZjQmGw+SsTO9mSLHQp1YmhmZ0ZjYBIbDSc6IHCt2Sml+GfnnNSYJgeEk17dGbyr4/t/npXk5zWhMBtlvwwhMRJJzlWMBvx1onmfGLZnwBIbu6U3LspLHS/M+MxoTjMAQy68fLcXKXCbNeh4pzZN7MxoTVfbAtETnJK19WrEfHz/+dY6FOl2FX639j7MPgC38+jF+nz/Bqfvxv/nPxkJer9iPGwcf1FlybB7eziR3t13upxmjTDweJCOQOV/w/PGx9rfI0wPTTGSvfyQ0wdCd0Zn7UY41PFHugebTNGOUCcMEQyAzf0VNjjU8V+KbNKaZaEwwBGKCmSPBTPN0oPnl8T9qRpk+ZX+QTF2ymRmY/Q6Ec5lmIsj+IJkJJps5Q0yCBbyhlAPNk8/NGGU6YoIhFhPMavlu0vzIzN1jzpwve2CaxiQjMLww9g3NnENgiEVgthZ9oPn6f5++e0ZmOuNJZQIRmN1EL83V9/8+ZMaNmdMIDIGUDIxfn7PML82NmdMJDIHUDszjv90vOWkGmo/L5eITM6fJfhsmx0nC3+o1ZtYa3iM5cU+i6+0Z92ZOIjDEIjDz/xF7awOZOZzAEIvAbPHnLE5Ogq0zmTmQwBCLwOzzJ89NTvTSyMwhsgemaUwyAnPU3zUxOaFLIzP78yAZgQjMqX97yts5MrMngSEQgenAyKATd6CRmX0IDIEITJcekxO0NDKzNYEhEIEJIuhhD2RmO9nv84de6Dwx51fC7Hogx7CAzyIzWxAYYhEYDiQz6wgMsQgMh7j/RQBf/unbM+cTGGIRGE5yP818+x/fnvlO9sA0p2gyAsOpbJrN5EEyAhEYOiAzkwkMgRQLTLOAe3J7Y6Y9zYx9s3sCQyACQ2dMM6Oy34ZxfmYzrTEJlu7AAg5BZl4QGGIRGPpwt2PWXmWm9L6ZwBCLwNA308wNgSEWgaEzt6PM1/98//bvL20kM7UGmuyBaU7RZASGOEwzHiQjFIGhV3ejzPVf/+Puv3f7f3u8k5PNrx+vTtrL5ZLgRP34X2dpIq+X660cS7dZvYm8mWbSbp2ZYAjEBEP3Xo0y7XGaefxvZDP6I2GCE9XPgNlUaozVG9T41teTzLSsW2fvAhP9RHWKZlNpl8zqTeNxUJn0CED4rbPsD5I5P7MpNsEQ2sh22eD5NPPqv51Mgh8D/QyYjQmGUKZsd73MTMu0dfbX5cf//JTgLHWKZiMwBPdqOBnLzJ3YpRn8dUlzlpKHwBDT2+2ywZvM3P2ToUtz+Ve7/Ovsg1jNWZqKwBDWxMa0KdNMmtIMqzzuQg998NwTGCKbFYJJm2ZpSjMI15tYR8sbAkNwdwl4+7zY1HszyUoz6L83nR8eswkMwc1tTJv1CEDK0gw67E1vx8NaE4YYgaFzCxrTZmXm8Q/NVJpBD705/QDYmMCQwrLGtLmZefyj85VmcEpvnKXZCAxZLG5MW5CZx78ga2kGx/TGWZqNwJDImsa0ZZl5/Gtyl2awX2+cpakIDLmsbExb89szr7/n+Xoosb9ec7LrqbX+w57O0lSmPUV2wIHszbot4nF+WPZdlwunmad/ZYWZ5taa+cZPgqmUmWCaxpSxVWPammnm+hffzTStVRlrrmbNN87SbCYE5pgD2ZulW8f6jbJbq6aZV0dQbay5Gp9vTDDZvBtiMk0wlm4d2zamrZ9mbo+j5q2ap+7mG6doNiYYMtpwo+zWBtPM1eOtmrJjzZUfA7MxwZDUTo1pW00zV3e3alr5sYY8TDAktV9gBhtnpr3YQGv1ngsgD4Ehr70b0/bIzMBYQwYCQ14HBGawV2aasYbQBIbUDmtM2/YRgKeePu7s0QC6VqMxbvLX9PQKvF9j2q7TzNXjWNPsodGnMoGhoKc/3+8amMERmRk8vVvT7KHRCYEhr7MCMzguM+31WNPEhhMJDKmd25h2cGYGYkMvBIbUTg/M4ITMDB730JrYcBiBIbVOAjM4LTPtxVjTxIZdCQypvXqO96zGtHMzMxAbDiIwpNZhYAbnZ2YgNuxIYEit28AMesnMQGzY3rsvVD7sQPYjMGV1HphBX5kZiA3bEBiSGvkila4CM+gxMwOxYTmBIalYgRn0m5nBeGya3nBHYEgqYmAGvWdm8Co2zXDDlcCQVNzADGJkZvA2Nk1vahIYMopel6tImRlcX1/DDT/8dXlaGoEhqDSBGcTLzJXhhr/99bMov360LIFpGlPM+C/iihiYQeDMDEZi0ww39QgM4WSty1X4zAym7KQ1vcnu8q+zj2ALAlNH+sAMkmTmaspw0/QmqesFOmhvBKaIInW5ypaZwfhw0/Qmu3C9EZgKxuvSMgZmkDMzV3pTXP+9EZj0ytblKnlmrsY305reZNdhbwQmN3W5qpKZwdvhpulNdj30RmASU5dHtTJzpTec0huBSeltWlrJulwVzczVrN40ycnomN4ITD7qMlH1zFxN6U0z4qS2U28EJpMpaWnq8pnM3LtdH0acmrbqjcCkoS5ryMyYuSNOk5xcFvdGYBKYmJamLu/IzCQTe9PsqiU1vTcCE5q07EFm5pm4pdYe1qvq5DDSG4EJanpamrosIjPLTU9Os7GWzm1vBCYcaTmSzGxj+q5ak5xcNCaEWV1p0rIpmdnYrBGn2VuD3UhLJ2RmR3erVnVgV3O70qTlEDJznLmDTlMdGLWgK01aDicz51iQnKY6lKcrEcnM+Rbsrf34bz6ccsJDJsuiMpCWfshMdxZXpxl3iGxNVJqudExmerdhdX78gdpDB0SlDpkJ5vHsmhWepj0cbmVRBroSl8yEt2bc+fuf0h5W2yQnA1HJRGayWT/u/P0PvrhqyE9xG+ZkICq5yUx+T8/hxe1p764yIpTD5i25EpVqZKaozdvz9x/y7vKkQz3YryJXcsJAZvjbq+vCJvn5+0+b+IsI1WiRA/rxSFEYITO8N3IR2bZAn/7kBd9PlatMpwRjhJawjMywyikFevk3dnZdjkhL2JzMsJe3F6zjO1SchHAKmeE0s656mvSKeNA5mSGGlRfTniulE+QmM5TgUg5n+cfZBwBAZjIDwI5kBoAdyQwAO5IZAHYkMwDsSGYA2JHMALAjmQFgRzIDwI5kBqjqz69nH0EJMnOeP79a5XAy5+D+ZOYkFjd0wsm4M5k5w7Nlffmj32+qh9ycfbuSmcNpDPTHObgfmTmWxkCvnIk7kZkDaQz07fLHF7dqNiczR3namMvl+AMBRlwuF6XZlswcQmMgDqXZ1i9nH0B2AgMBDSfpx+/fzz6QDEwze9IYiMyt003IzG40BuJTmvVkZh8aA1kozUoyswONgVyUZg2Z2ZrGQEY+UrOYzGxKYyAvDzovIzPb0RjITmkW8LmZLQgMlOEjNXOZZlbTGKjHQwHTycw6GgNVKc1EMrOCxkBtSjOFzCylMYDSTCAzi2gM8JOP1IyTmfk0BvjMg84jZGYmjQGeUZpXfG5mMoEBRvlIzVOmmWk0BpjGQwF3ZGYCjQHmUJpbMvOOxgDzKc2VzIzSGGAppRnIzGsaA6zjIzVNZl7SGGALHnSWmWc0BthO8dL43MxnAgPsoPJHakwzNzQG2FPNhwJk5ieNAfZXsDQy01rTGOA41UojMxoDHK1UacpnRmOAM9T5SE3tzGgMcJ4iDzoXzozGAGerUJqSn5sRGKAb6T9SU2+a0RigP4kfCig2zXTemOyz83K/fTv7CAKynKK5/PEl5UxTaZrpvDGwIY2JKeVMUyYzGhOaiyZl5CtNjU2zII3p8JB6k3JLYXufF7x1Fc7ljy8fHx9p9ooLTDNBGgPbMPmlkOlB5+yZ0Zhc8u0n7M1qjytNafJumgkMBaW4KnGV4yM1SacZjcnLQDOdNZ9D9DWfMTMaQ03u/OcVujTpMqMxBYQ+5fZiuyy7uMs+XWYeaExKcU+5Y1j2KQVd9uky8/lJcycbJRhlyohYmnSZaX+XRmNyi3i+HcPKzy3cys+Ymdbab9+caVThzn89sUqTNDPxnzRnilgn2y5sl5UU6/qWNjMt2jsB6xllKgh3ZcucmRbw/WCu0gONUaaeiNe05JlpMd8VWMAok17Qq1n+zLTWPn7/HvTtYYqiA407/8XEvYiVyMwg7pvEW0VLQxmhL1+FMtOCv1XwN6NMJdEvXLUy0+K/YbxSaKBx57+MHBv+5TLTlIZcjDJZpblSVcxMy/IzAndKDDRGmRoyXaCKZmaQ6Y2kJqNMSskuTaUz09K9nSQfaNz5LyDfRal6ZlrGN5WcbJcVkPJyJDOtJX1ry0o+0PxklMkn64VIZn7wUEAmCUtjlMku8fVHZj5J/E6TiVEmk/Q/4/5y9gF05+P372f9LJxhqf35tfVxEbz88SXD6zno7M5/vhf2xJc0z4v5mmnmiQpv/F5+/oZsNtPZdpmzY0NFXkyZea7I27+L3759fHycfRCtpbxD08Eow1bqXGRk5qX0G6a76qQ04Rllkir1SsrMG6VWw2a62TpLNtAYZXKodlWRmfeqrYmtGGjWcuc/o4Ivo8xMUnBlrGWgWamz7TI2UfNKIjNT1Vwfq3gWYDtGmegq3+uVmRkqL5TFOilNMJ2NMpb9SsVfQJmZrfiKmcfW2RZOH2VYwxVDZpawbmYx0Mzjzn8iXr0mM4tZPVMZaGbpbLuMNVwlBjKznDU0VTfPAoRjlInLS3clM6t4KGC6HkrT+0BjlMnCZeGWzGzAknrP1tl8RpmgvG53ZGYbFtYUPQw0/XLnPz7bG0/JzGYsrzcMNKTmCvCKzGzJOnvDswCvGGWC84qNkJmNmZrf6qE0fQ007vwH55QfJzO7sOxe6mbrrFtGmVi8XG/JzF4svhEGmr91tl3GLE7zKWRmR5bgcwaajlm003mtJpKZfVmIz/XxLMD5A01no4zlOp3XajqZ2Z2HAl6pXhp3/mNyRs8lMwexLu/ZOvvMKBOCV2kBmTmOBfqo7kBjlAnIKbyMzBzKMv3EQPOTUaZ/XqLFZOZoFusnNZ8F6OzOP285bdeQmRO4hXinh9Icp7/tMqtxnNdnJZk5jbX7Qx9bZ2c9cnb6KGMdjvP6rCczZ7KCr6oMNP2NMoxwhm5CZk5mHbdWd6AxynTh2fKzs70hmTmf1dxajWcB3Pnv0IvGHH8gif1y9gHQmmX908fHR9qLb3/bZVadxhzDNEM3Km2dpa1pcBqzB5mhLz1snW3PKBOB12QnMkNPagw0RpkOacx+ZIbO9PEswJb6u/PvknrHC7IrmaFHp5dms4HGdhnlyQz96WPrbA89jDJwMJmhUxkGGqMMyAyd6mOg2fZZAKMMNckMvYr+LIA7/9Bakxk6d3ppzvrmZkhDZuhYH1tnSxhl4CeZoXfxBhp3/uGGzNC3uAPNTz2MMnAimaF7HTwLMGOgsV0Gn8kMMZxeGmAZmSGCDrbOJg00Rhl4IDOEcfpA86Y0/d35hx7IDEF0MNDMYpSBgcwQR8/PAvQ3ymgMnZAZgjm9NFP0MMpAJ2SGUDrYOnsy0LjzD6/JDPH0NdD0t10GXZEZoulzoLn+n4wy8JnMEFAHzwL8YJSBd2SGqM4tzdOBxigDj2SGmPrbOtMYeEpmCKyXrTPgNZkhrB4Gmp8TjFEGXpEZIuvnWQDgBZkhvJOfBbhcjDIwQmYIroOtM2CEzJBB8a0zoww9kxniM9BAx2SGFAo/C2CUoXMyQx4FS6Mx9E9myMLWGXRJZkil1EBjlCEEmSERAw30R2bIpcyzAEYZopAZEipSGghBZkinwNaZUYZAZIacEg80GkMsMkNGBQYaiEJmSCrpswBGGcKRGTJLWRqIRWbIK93WmVGGiGSG5Aw0cC6ZIbVEA41RhqBkhuxSPAugMcQlM5SQoDQQlMxQQPCtM6MMockMVRho4BQyQw1hBxqjDNHJDGWkeBYAwpEZaolVGqMMCcgMlYTaOtMYcpAZyok10EB0MkMxQQYaowxpyAz1eBYADiQzFNVzaYwyZCIzlBRk6wwSkBnq6nOgMcqQjMxQVZcDjcaQj8xQWp8DDWQiM1TXT2mMMqQkM1T159ezjwBKkBlK+tyYHgYaowxZyQy0y+Vy9iG0yx9fzj4E2IXMUI/tMjiQzFBdD6PMwEBDSjJDMZ9HmX4aA1nJDHTEQEM+MkMlEUYZpSEZmaEMd/7hDDJDUX2OMgMDDZnIDDUYZeAkMkNFPY8yAwMNacgMBUS48w9ZyQx0ykBDDjJDdkYZOJXMkFrwO/8GGhKQGQqJOMooDdHJDHnZLoMOyAz0zkBDaDJDUkYZ6IPMkFHwO/+PDDTEJTPkZ5SBE8kM6aQbZQYGGoKSGZIzysC5ZIZcUt/5N9AQkcwAsCOZIZHUo8zAQEM4MkMWSe/8P1IaYpEZcko5ykBEMkMKZUaZgYGGQGSGhIwy0A+ZIb4Cd/4fGWiIQmYIrth2GYQjM6RSZJQZGGgIQWaIzCgD3ZMZ8ig1ygwMNPRPZgir5J1/CEdmIDYDDZ2TGWIyytxQGnomMwTU053/j4+Pj4+Ps48C+iUzhHfyKPPbtzP/9p8MNHRLZoimq1Hm9+8//oWBBl6QGWLr4q6MgQZekxlC6enO/3WU+fFvDTTwjMzAFgw08ILMEEfHo0xrrf32zUADj2SGIHq68z/i9NIYaOiNzBBSd6PMwNYZPJAZIuhpu+yt0wca6IrMwDwvR5mBgQY+kxm6F2qUGRho4Epm6Ftnd/7fjDIDAw3ckBki6fTO/yMPN8NPMkPHOhtl5jq9NAYaeiAzhBFmlBn0sXUGp5MZehXwzv8jAw3IDLw3e5QZGGhAZuhUilFmYKChOJmhP53d+V84ygz6GGiUhhPJDL0LPcq05uFmqpMZOpNplLn9c84ujYGGs8gMXQs/ygz62DqDU8gMPenszv9Wo8yPP81AQ0kyQzc62y7bmIGGqmSGTiUbZX78mQYa6pEZ+pB7lBkYaHpTYdV1QGZOZZW/kHKUaa2Lh5sNNJ84B/cnMyf586v1/bfO7vzvTWn64kzcmcycwbLu216jzMDWWX90d1cyc7hnjbn88aXuQi82ygwMNL3xguxHZo71ojHHH0gv+hvs9h1lBgaaLl3++NLhgkxAZg6kMe8UGWUGBpoOXS4XpdmczBzixQ3/UlfVJ/o7n48YZQYGml4pzeZkZn8vlmz1xjwo94J4uLlXl8vFK7MhmdnZiyGm3CX1UX93/o8bZW7/0rNLwytKsxWZ2ZONMsZ1sHXmYjrCQwGbkJndaMwIo8ztX22g6ZhbNevJzA7c8B/npL1loOme0qwkM1tzw3+mHl6ZE0eZHwdw9kCjNOM8FLCGzGzKDf+3bJc96mCgYQqlWUZmtmOjjMU83ByEhwIWkJmNaMwURplRp5eGKdyqmUtmVnPDfyJn5rgOts4MNBMpzSwys46bMUv18BJ1NcoMDDRReChgOplZwRAznR/9pjDQROPlmkJmltKYFXp4oTocZQYGmlg8FPCWzCyiMbP0d+e/X799a2eXxk/oc7lVM05mZnLDP4VuR5nWutg6Yy6lGSEzc7jhv4BRZhEDTTgeCnhFZiYzxCzQ5c93XY8ygw4GGlfMZbxuj2RmGo3ZgldsFs8CBOWhgDsyM4HGLNPlmRZglBkYaCJzq+bWL2cfQN983fJ2vGgLfHx8eN2CulwuHx8fPfy4cDrTzGtu+K/R5Z3/MKPMwMPNwXkoYCAzL9goW8N2wVb8LByf0sjMMxqzqU5eumCjzA0DTXTFHwqQmQcas1Lh02kXBpoUKj8UIDM3fMJ/B528enFHmYGBJoGypZGZn9zw30SXd/7D62CgUZpN1HwoQGZaazbKkos+ygx8WjONaqWRGY3ZjlFmPx5uzqXUQwHlM6MxW+n1nMkxyrTWxdYZG6pzq6bwtwB0+An/RGtOqndy7vcCXP74Yu9uQ0W+KaDqNOOGfw15RplB9utRQRUeCiiZGRtlO/Ni7urkOzTe3B3kLk29TbOOG9PJYaSRbZQZ/Pbt9M1VC3UPPzYkMw6sxaaZjhsD07lBklLWhwLKZMYn/IvJOcoMOni4mZ2kLE2NzLjhX0zmxgwybq0wyPdQQIHMGGJIykCTWKbSZM+MxtSTf5QZGGiyS/NNAakzozFkZ6DJLcetmqSZccO/qiqjzMBAU0CC0mTMjBv+VGKgSS/6QwHpMmOIKazWKDPwcHMZcUuTLjMPNIbkbJ2VEbQ06TLz+ZTTmDoqjjI3DDRFRCzNP1pr3/979lFs62dpNIYqDDSVhCtNumlm8Ns3jSml+CgzMNDUEas0STPjukM1BppKYl3f0mamRXsnWMwbfWWgqSDcgs+cmRbw/YDlPNxcQMRrWvLMtJjvCtN5fz+xdZZa0NWePzMt7HsDyxhoUop7HSuRmRb5HWKEt/UJA01GoZf6L2cfwHGG9ynWg4CwzMfHh2f6c4gbmG///nGxrTLNXMV9z7jjrXzJQJNFjkVeLjMtyzsH49yhiS7NlapiZlqi968s7+Abv31rv33zKsWV6b0rmpmW610EMklwdbremGlDZr7887xjOVWC97Imb9x0Xqtw8r1l99PMbYIqyPeOAnGlvCIVeqD5lY/fv3vKOZCU5+GuvGIv/fxlu508/J31nZKZ1nykBjhVssDc7op9+efPTbOyt2duJXunU/IekU/6Vf1kmvn27y9f/5P8/+1Xzt1AS7/agDsVzvq6DzS/UuFdB3qQ8mpzt2PWbjNzu29W7XmzOynfe6Arda4zppnn6qwA4HhZrzCPo0y7y4yB5lbWdQCcq9q1xTQzptpqAPaW+KrydJRpj5kx0Nz5+P174mUBHKbsxcQ0M0nNxQFsJf015NUo055mxkDzVPpVAuyk+NXj/TSjNFfF1wqwQIXrxsgo015lxnfPvFJhxQBbqXDFGG9MG5lmbJ29UmHdAOtVuFZMqcPYppnSvFJh9QBrFLxKvNoGm/GkmdLcKriGgImKXB/ebpcN3mTm7p9Umltln4IHXqlzWZieg/fTjMcBxhVZUsBbda4Gd40Zz8SkTTM3acbVWVvAK3WuA7Ma06bfm1GacXVWGPCozhVgbmParEcAlGZcnXUG3Kpz7i9oTJv7nWZKM67OagMGdc76ZY1pC746U2nG1VlzQJ3zfXFjWmsfl8tlwV/5/b+f/u3X/1R5rae7/DG7wXWWLHThz6/D/152Gaxzwq5pTFv8iwB8nuatOksQqqnz4Zi2ujFtze+bUZq36ixEqKPUeb2+MW3lrzVTmrdKrUhIr84Z/e3fXzZpTFv/2zMfSyM2d+qsS8itzrn8eBlf83UwG/yS5se/Xmnu1FmdkFWds/hxiFn5lWMbZObpcSjNnTprFPIpcv5uuFF2a5vMDGygjSuyUiGZImfuthtltxZ+bmbE3Udqmk/VPHj1kZoiqxl6MeFzMxXOyqfzwIbfzb99ZgZiM+5paSosaOjIaGaKnI/7DTFXW26a3fJcwLgiKxgC+O3b439W4Qx9el9jj18wtldm2ovSiM1VhXUMvSvcmLv/ZP0TZa/stWl2ywbaiNvdswqLGzpU6jTc+07MoyMy056VponNT9clnn59Q5+KnIPHB2aw46bZrafjmD20Qe6VDVHkPhPPakw7bJq5ZbJ56vLHl9yrHLqV++w7MTCDEzLTXpSmiQ3Adk4PzOCczAyMNQB7eHU/4vjGtHMzMxAbgK10FZjB+ZkZiA3AGh0GZtBLZpobNgCLdBuYQUeZGbyKTdMbgM86D8ygu8wMxAZgRIjADDrNzEBsAO4ECsyg68wMxAZg5DtTug3MIEBmrvQGKChuYAaRMjMQG6CI6IEZxMvMYCQ2TW+AyHLU5SpqZgZiA6Qx/o31EQMziJ2ZK70B4soamEGSzAzEBggkd12uUmXmSm+Abr39dY5pAjPImZnBeGya3gAHqlaXq8yZudIb4Cxl63JVIjNXegMc421dWoHADGpl5kpvgD2oy6Oimbl625smOcA76jKiemau9AaYS12mkJl7U3rTJAeqmpKWpi43ZOYlvQEG0rKGzLw3sTdNciAXddmEzMwjOZDbxLQ0dZlMZpaTHMhBWnYlMxuY3psmOdAHaTmMzGxsVnKa6sBRpndloC5bkZkdSQ6cS1p6IDMHmZucpjow39yuNGnZn8ycYEFymurAM7rSP5k5n+rARAuiMpCWE8lMX5YlZyA85KMrCchM19ZUpwkP0SyOStOVjslMJCur04SHnqyJStOVOGQmtvXhadrD/lYWZaArQclMKptUZ6A9LLBJTgaikobMJLdheAbyQ9s0JwNRSUxmKtq8PQMFSmbzllyJSikyww87teeWDvVmv5BcKQoywxsH5OeWFG3igH7ckRNekRkWOjg/43LH6fhmjJAT5pIZdtFVhJhFSNiWzHACETqRinCw/weHnO27sVP46AAAAABJRU5ErkJggg==;strokeColor=none;strokeWidth=3;labelBackgroundColor=none;rounded=0;html=1;whiteSpace=wrap;" parent="1" vertex="1">
          <mxGeometry x="1074" y="269" width="100" height="48" as="geometry" />
        </mxCell>
        <mxCell id="6p9jYXADkKIyNsR3x7E2-70" style="vsdxID=431;fillColor=none;gradientColor=none;strokeColor=none;strokeWidth=3;labelBackgroundColor=none;rounded=0;html=1;whiteSpace=wrap;" parent="1" vertex="1">
          <mxGeometry x="210" y="240" width="32" height="117" as="geometry" />
        </mxCell>
        <mxCell id="6p9jYXADkKIyNsR3x7E2-71" style="vsdxID=432;fillColor=none;gradientColor=none;strokeColor=none;strokeWidth=3;labelBackgroundColor=none;rounded=0;html=1;whiteSpace=wrap;" parent="6p9jYXADkKIyNsR3x7E2-70" vertex="1">
          <mxGeometry y="12" width="26" height="104" as="geometry" />
        </mxCell>
        <mxCell id="6p9jYXADkKIyNsR3x7E2-72" style="vsdxID=433;fillColor=#ffffff;gradientColor=none;shape=stencil(pVbZbsMgEPwav66A5Vie0/Q/IsVprKZx5KTX39cWsls28kLUtzUMo2H2MA1ursfdpW2Mut6G/rX97Pa3Y4NPjTHd+dgO3W2MGtw2uDn0Q/sy9O/nffq+7CbkFL31HxPDVzpnEYKbThn1nVY8mLTwnPCn7vwH71QGtqCDAF64KskjIGV4baBejLbgaB1tFXjzAHvZmjH49fXQnU4pLcv+mum57KjBSybmaEJAXEdrVSDPlTByVe+1ErD/uZ9AW7zbI4pzHzBAnmpjIJpqbqmovSlRMylLgucDqMD5ai0oF4j3QJzdr6sxce7wBU+gY/2AkHMUFKDm9Epwh80T64CEyzIxTiiuUCBmMtS8vXAj2PpidCQmKdy5fkef69F+tnmZVRq0rtbjvZgmMkB5mryCaAU9vOg9zcO0Ro4EJd6qd9S5FOLtFDxgfQEX5u04g4izW6FwLE8sWVD1FVwYedHxdhrl0/o/i/2vxoC/G8al9ObA7Q8=);strokeColor=#a5a5a5;strokeWidth=3;labelBackgroundColor=none;rounded=0;html=1;whiteSpace=wrap;" parent="6p9jYXADkKIyNsR3x7E2-71" vertex="1">
          <mxGeometry width="26" height="104" as="geometry" />
        </mxCell>
        <mxCell id="6p9jYXADkKIyNsR3x7E2-73" style="vsdxID=434;fillColor=none;gradientColor=none;strokeColor=none;strokeWidth=3;labelBackgroundColor=none;rounded=0;html=1;whiteSpace=wrap;" parent="6p9jYXADkKIyNsR3x7E2-70" vertex="1">
          <mxGeometry x="3" width="28" height="37" as="geometry" />
        </mxCell>
        <mxCell id="6p9jYXADkKIyNsR3x7E2-74" style="vsdxID=435;fillColor=#ffffff;gradientColor=#000000;shape=stencil(vVHLDsIgEPwajiQI6RfU+h8bu22JCGRB2/69kG1iazx58DazM/vIjjBtmiCi0CplCjecbZ8nYc5Ca+snJJsLEqYTph0C4Ujh4XvmEaqzont41gkL96naodXKrGF6YSfQtUi0OXXDVlqPfJNP6usotUhYbJIUMmQb/GGrAxpRljVycDBuc1hKM2LclX8/7H9nFfB+82Cd45T2+mcspcSRmu4F);strokeColor=#a5a5a5;strokeWidth=3;spacingTop=-3;spacingBottom=-3;spacingLeft=-3;spacingRight=-3;flipH=1;labelBackgroundColor=none;rounded=0;html=1;whiteSpace=wrap;" parent="6p9jYXADkKIyNsR3x7E2-73" vertex="1">
          <mxGeometry width="27" height="36" as="geometry" />
        </mxCell>
        <mxCell id="6p9jYXADkKIyNsR3x7E2-75" style="vsdxID=436;fillColor=#ffffff;gradientColor=#000000;shape=stencil(vVHLDsIgEPwajiQI6RfU+h8bu22JCGRB2/69kG1iazx58DazM/vIjjBtmiCi0CplCjecbZ8nYc5Ca+snJJsLEqYTph0C4Ujh4XvmEaqzont41gkL96naodXKrGF6YSfQtUi0OXXDVlqPfJNP6usotUhYbJIUMmQb/GGrAxpRljVycDBuc1hKM2LclX8/7H9nFfB+82Cd45T2+mcspcSRmu4F);strokeColor=#a5a5a5;strokeWidth=3;spacingTop=-3;spacingBottom=-3;spacingLeft=-3;spacingRight=-3;flipH=1;labelBackgroundColor=none;rounded=0;html=1;whiteSpace=wrap;" parent="6p9jYXADkKIyNsR3x7E2-73" vertex="1">
          <mxGeometry x="1" width="27" height="36" as="geometry" />
        </mxCell>
        <mxCell id="6p9jYXADkKIyNsR3x7E2-76" style="vsdxID=437;rotation=15;fillColor=#ffffff;gradientColor=#000000;shape=stencil(UzV2Ls5ILEhVNTIoLinKz04tz0wpyVA1dlE1MsrMy0gtyiwBslSNXVWNndPyi1LTi/JL81Ig/IJEkEoQKze/DGRCBUSfAUiHkUElhGdoAOG7QZTmZOYhKTXUs7RAVQ0UMcWj3gDVcBSjgQyEkyC+QZZDdz5QCOJ1Y1cA);strokeColor=#a5a5a5;strokeWidth=3;spacingTop=-3;spacingBottom=-3;spacingLeft=-3;spacingRight=-3;flipH=1;labelBackgroundColor=none;rounded=0;html=1;whiteSpace=wrap;" parent="6p9jYXADkKIyNsR3x7E2-73" vertex="1">
          <mxGeometry x="-1" y="12" width="19" height="21" as="geometry" />
        </mxCell>
        <mxCell id="6p9jYXADkKIyNsR3x7E2-77" style="vsdxID=438;edgeStyle=none;startArrow=none;endArrow=none;startSize=5;endSize=5;strokeColor=#a5a5a5;spacingTop=-3;spacingBottom=-3;spacingLeft=-3;spacingRight=-3;verticalAlign=middle;html=1;labelBackgroundColor=#ffffff;rounded=0;" parent="6p9jYXADkKIyNsR3x7E2-73" edge="1">
          <mxGeometry relative="1" as="geometry">
            <Array as="points" />
            <mxPoint x="27" y="9" as="sourcePoint" />
            <mxPoint x="22" y="16" as="targetPoint" />
          </mxGeometry>
        </mxCell>
        <mxCell id="6p9jYXADkKIyNsR3x7E2-78" style="vsdxID=439;fillColor=#ffffff;gradientColor=#000000;shape=stencil(vVHLDsIgEPwajiQI6RfU+h8bu22JCGRB2/69kG1iazx58DazM/vIjjBtmiCi0CplCjecbZ8nYc5Ca+snJJsLEqYTph0C4Ujh4XvmEaqzont41gkL96naodXKrGF6YSfQtUi0OXXDVlqPfJNP6usotUhYbJIUMmQb/GGrAxpRljVycDBuc1hKM2LclX8/7H9nFfB+82Cd45T2+mcspcSRmu4F);strokeColor=#a5a5a5;strokeWidth=3;spacingTop=-3;spacingBottom=-3;spacingLeft=-3;spacingRight=-3;flipH=1;labelBackgroundColor=none;rounded=0;html=1;whiteSpace=wrap;" parent="6p9jYXADkKIyNsR3x7E2-73" vertex="1">
          <mxGeometry x="11" y="16" width="3" height="4" as="geometry" />
        </mxCell>
        <mxCell id="6p9jYXADkKIyNsR3x7E2-79" style="vsdxID=440;fillColor=#ffffff;gradientColor=#000000;shape=stencil(vVHLDsIgEPwajiQI6RfU+h8bu22JCGRB2/69kG1iazx58DazM/vIjjBtmiCi0CplCjecbZ8nYc5Ca+snJJsLEqYTph0C4Ujh4XvmEaqzont41gkL96naodXKrGF6YSfQtUi0OXXDVlqPfJNP6usotUhYbJIUMmQb/GGrAxpRljVycDBuc1hKM2LclX8/7H9nFfB+82Cd45T2+mcspcSRmu4F);strokeColor=#a5a5a5;strokeWidth=3;spacingTop=-3;spacingBottom=-3;spacingLeft=-3;spacingRight=-3;flipH=1;labelBackgroundColor=none;rounded=0;html=1;whiteSpace=wrap;" parent="6p9jYXADkKIyNsR3x7E2-73" vertex="1">
          <mxGeometry x="18" y="15" width="3" height="4" as="geometry" />
        </mxCell>
        <mxCell id="6p9jYXADkKIyNsR3x7E2-80" style="vsdxID=441;fillColor=#ffffff;gradientColor=#000000;shape=stencil(vVHLDsIgEPwajiQI6RfU+h8bu22JCGRB2/69kG1iazx58DazM/vIjjBtmiCi0CplCjecbZ8nYc5Ca+snJJsLEqYTph0C4Ujh4XvmEaqzont41gkL96naodXKrGF6YSfQtUi0OXXDVlqPfJNP6usotUhYbJIUMmQb/GGrAxpRljVycDBuc1hKM2LclX8/7H9nFfB+82Cd45T2+mcspcSRmu4F);strokeColor=#a5a5a5;strokeWidth=3;spacingTop=-3;spacingBottom=-3;spacingLeft=-3;spacingRight=-3;flipH=1;labelBackgroundColor=none;rounded=0;html=1;whiteSpace=wrap;" parent="6p9jYXADkKIyNsR3x7E2-73" vertex="1">
          <mxGeometry x="19" y="15" width="3" height="4" as="geometry" />
        </mxCell>
        <mxCell id="6p9jYXADkKIyNsR3x7E2-81" style="vsdxID=442;fillColor=none;gradientColor=none;strokeColor=none;strokeWidth=3;flipH=1;labelBackgroundColor=none;rounded=0;html=1;whiteSpace=wrap;" parent="1" vertex="1">
          <mxGeometry x="510" y="236" width="32" height="117" as="geometry" />
        </mxCell>
        <mxCell id="6p9jYXADkKIyNsR3x7E2-82" style="vsdxID=443;fillColor=none;gradientColor=none;strokeColor=none;strokeWidth=3;labelBackgroundColor=none;rounded=0;html=1;whiteSpace=wrap;" parent="6p9jYXADkKIyNsR3x7E2-81" vertex="1">
          <mxGeometry y="12" width="26" height="104" as="geometry" />
        </mxCell>
        <mxCell id="6p9jYXADkKIyNsR3x7E2-83" style="vsdxID=444;fillColor=#ffffff;gradientColor=none;shape=stencil(pVbZbsMgEPwav66A5Vie0/Q/IsVprKZx5KTX39cWsls28kLUtzUMo2H2MA1ursfdpW2Mut6G/rX97Pa3Y4NPjTHd+dgO3W2MGtw2uDn0Q/sy9O/nffq+7CbkFL31HxPDVzpnEYKbThn1nVY8mLTwnPCn7vwH71QGtqCDAF64KskjIGV4baBejLbgaB1tFXjzAHvZmjH49fXQnU4pLcv+mum57KjBSybmaEJAXEdrVSDPlTByVe+1ErD/uZ9AW7zbI4pzHzBAnmpjIJpqbqmovSlRMylLgucDqMD5ai0oF4j3QJzdr6sxce7wBU+gY/2AkHMUFKDm9Epwh80T64CEyzIxTiiuUCBmMtS8vXAj2PpidCQmKdy5fkef69F+tnmZVRq0rtbjvZgmMkB5mryCaAU9vOg9zcO0Ro4EJd6qd9S5FOLtFDxgfQEX5u04g4izW6FwLE8sWVD1FVwYedHxdhrl0/o/i/2vxoC/G8al9ObA7Q8=);strokeColor=#a5a5a5;strokeWidth=3;labelBackgroundColor=none;rounded=0;html=1;whiteSpace=wrap;" parent="6p9jYXADkKIyNsR3x7E2-82" vertex="1">
          <mxGeometry width="26" height="104" as="geometry" />
        </mxCell>
        <mxCell id="6p9jYXADkKIyNsR3x7E2-84" style="vsdxID=445;fillColor=none;gradientColor=none;strokeColor=none;strokeWidth=3;labelBackgroundColor=none;rounded=0;html=1;whiteSpace=wrap;" parent="6p9jYXADkKIyNsR3x7E2-81" vertex="1">
          <mxGeometry x="3" width="28" height="37" as="geometry" />
        </mxCell>
        <mxCell id="6p9jYXADkKIyNsR3x7E2-85" style="vsdxID=446;fillColor=#ffffff;gradientColor=#000000;shape=stencil(vVHLDsIgEPwajiQI6RfU+h8bu22JCGRB2/69kG1iazx58DazM/vIjjBtmiCi0CplCjecbZ8nYc5Ca+snJJsLEqYTph0C4Ujh4XvmEaqzont41gkL96naodXKrGF6YSfQtUi0OXXDVlqPfJNP6usotUhYbJIUMmQb/GGrAxpRljVycDBuc1hKM2LclX8/7H9nFfB+82Cd45T2+mcspcSRmu4F);strokeColor=#a5a5a5;strokeWidth=3;spacingTop=-3;spacingBottom=-3;spacingLeft=-3;spacingRight=-3;flipH=1;labelBackgroundColor=none;rounded=0;html=1;whiteSpace=wrap;" parent="6p9jYXADkKIyNsR3x7E2-84" vertex="1">
          <mxGeometry width="27" height="36" as="geometry" />
        </mxCell>
        <mxCell id="6p9jYXADkKIyNsR3x7E2-86" style="vsdxID=447;fillColor=#ffffff;gradientColor=#000000;shape=stencil(vVHLDsIgEPwajiQI6RfU+h8bu22JCGRB2/69kG1iazx58DazM/vIjjBtmiCi0CplCjecbZ8nYc5Ca+snJJsLEqYTph0C4Ujh4XvmEaqzont41gkL96naodXKrGF6YSfQtUi0OXXDVlqPfJNP6usotUhYbJIUMmQb/GGrAxpRljVycDBuc1hKM2LclX8/7H9nFfB+82Cd45T2+mcspcSRmu4F);strokeColor=#a5a5a5;strokeWidth=3;spacingTop=-3;spacingBottom=-3;spacingLeft=-3;spacingRight=-3;flipH=1;labelBackgroundColor=none;rounded=0;html=1;whiteSpace=wrap;" parent="6p9jYXADkKIyNsR3x7E2-84" vertex="1">
          <mxGeometry x="1" width="27" height="36" as="geometry" />
        </mxCell>
        <mxCell id="6p9jYXADkKIyNsR3x7E2-87" style="vsdxID=448;rotation=15;fillColor=#ffffff;gradientColor=#000000;shape=stencil(UzV2Ls5ILEhVNTIoLinKz04tz0wpyVA1dlE1MsrMy0gtyiwBslSNXVWNndPyi1LTi/JL81Ig/IJEkEoQKze/DGRCBUSfAUiHkUElhGdoAOG7QZTmZOYhKTXUs7RAVQ0UMcWj3gDVcBSjgQyEkyC+QZZDdz5QCOJ1Y1cA);strokeColor=#a5a5a5;strokeWidth=3;spacingTop=-3;spacingBottom=-3;spacingLeft=-3;spacingRight=-3;flipH=1;labelBackgroundColor=none;rounded=0;html=1;whiteSpace=wrap;" parent="6p9jYXADkKIyNsR3x7E2-84" vertex="1">
          <mxGeometry x="-1" y="12" width="19" height="21" as="geometry" />
        </mxCell>
        <mxCell id="6p9jYXADkKIyNsR3x7E2-88" style="vsdxID=449;edgeStyle=none;startArrow=none;endArrow=none;startSize=5;endSize=5;strokeColor=#a5a5a5;spacingTop=-3;spacingBottom=-3;spacingLeft=-3;spacingRight=-3;verticalAlign=middle;html=1;labelBackgroundColor=#ffffff;rounded=0;" parent="6p9jYXADkKIyNsR3x7E2-84" edge="1">
          <mxGeometry relative="1" as="geometry">
            <Array as="points" />
            <mxPoint x="27" y="9" as="sourcePoint" />
            <mxPoint x="22" y="16" as="targetPoint" />
          </mxGeometry>
        </mxCell>
        <mxCell id="6p9jYXADkKIyNsR3x7E2-89" style="vsdxID=450;fillColor=#ffffff;gradientColor=#000000;shape=stencil(vVHLDsIgEPwajiQI6RfU+h8bu22JCGRB2/69kG1iazx58DazM/vIjjBtmiCi0CplCjecbZ8nYc5Ca+snJJsLEqYTph0C4Ujh4XvmEaqzont41gkL96naodXKrGF6YSfQtUi0OXXDVlqPfJNP6usotUhYbJIUMmQb/GGrAxpRljVycDBuc1hKM2LclX8/7H9nFfB+82Cd45T2+mcspcSRmu4F);strokeColor=#a5a5a5;strokeWidth=3;spacingTop=-3;spacingBottom=-3;spacingLeft=-3;spacingRight=-3;flipH=1;labelBackgroundColor=none;rounded=0;html=1;whiteSpace=wrap;" parent="6p9jYXADkKIyNsR3x7E2-84" vertex="1">
          <mxGeometry x="11" y="16" width="3" height="4" as="geometry" />
        </mxCell>
        <mxCell id="6p9jYXADkKIyNsR3x7E2-90" style="vsdxID=451;fillColor=#ffffff;gradientColor=#000000;shape=stencil(vVHLDsIgEPwajiQI6RfU+h8bu22JCGRB2/69kG1iazx58DazM/vIjjBtmiCi0CplCjecbZ8nYc5Ca+snJJsLEqYTph0C4Ujh4XvmEaqzont41gkL96naodXKrGF6YSfQtUi0OXXDVlqPfJNP6usotUhYbJIUMmQb/GGrAxpRljVycDBuc1hKM2LclX8/7H9nFfB+82Cd45T2+mcspcSRmu4F);strokeColor=#a5a5a5;strokeWidth=3;spacingTop=-3;spacingBottom=-3;spacingLeft=-3;spacingRight=-3;flipH=1;labelBackgroundColor=none;rounded=0;html=1;whiteSpace=wrap;" parent="6p9jYXADkKIyNsR3x7E2-84" vertex="1">
          <mxGeometry x="18" y="15" width="3" height="4" as="geometry" />
        </mxCell>
        <mxCell id="6p9jYXADkKIyNsR3x7E2-91" style="vsdxID=452;fillColor=#ffffff;gradientColor=#000000;shape=stencil(vVHLDsIgEPwajiQI6RfU+h8bu22JCGRB2/69kG1iazx58DazM/vIjjBtmiCi0CplCjecbZ8nYc5Ca+snJJsLEqYTph0C4Ujh4XvmEaqzont41gkL96naodXKrGF6YSfQtUi0OXXDVlqPfJNP6usotUhYbJIUMmQb/GGrAxpRljVycDBuc1hKM2LclX8/7H9nFfB+82Cd45T2+mcspcSRmu4F);strokeColor=#a5a5a5;strokeWidth=3;spacingTop=-3;spacingBottom=-3;spacingLeft=-3;spacingRight=-3;flipH=1;labelBackgroundColor=none;rounded=0;html=1;whiteSpace=wrap;" parent="6p9jYXADkKIyNsR3x7E2-84" vertex="1">
          <mxGeometry x="19" y="15" width="3" height="4" as="geometry" />
        </mxCell>
        <mxCell id="6p9jYXADkKIyNsR3x7E2-92" value="ё" style="vsdxID=453;fillColor=none;gradientColor=none;strokeColor=none;strokeWidth=3;spacingTop=-3;spacingBottom=-3;spacingLeft=-3;spacingRight=-3;labelBackgroundColor=none;rounded=0;html=1;whiteSpace=wrap;" parent="1" vertex="1">
          <mxGeometry x="606" y="271" width="104" height="48" as="geometry" />
        </mxCell>
        <mxCell id="6p9jYXADkKIyNsR3x7E2-93" style="vsdxID=454;fillColor=#ffffff;gradientColor=none;shape=stencil(nZBLDoAgDERP0z3SIyjew0SURgSD+Lu9kMZoXLhwN9O+tukAlrNpJg1SzDH4QW/URgNYgZTkjA4UkwJUgGXng+6DX1zLfmoymdXo17xh5zmRJ6Q42BWCfc2oJfdAr+Yv+AP9Cb7OJ3H/2JG1HNGz/84klThPVCc=);strokeColor=none;strokeWidth=3;labelBackgroundColor=none;rounded=0;html=1;whiteSpace=wrap;" parent="6p9jYXADkKIyNsR3x7E2-92" vertex="1">
          <mxGeometry width="104" height="48" as="geometry" />
        </mxCell>
        <mxCell id="6p9jYXADkKIyNsR3x7E2-94" value="&lt;div style=&quot;font-size: 16px&quot;&gt;Магистральный элемент&lt;br&gt;&lt;/div&gt;&lt;div&gt;&lt;br&gt;&lt;/div&gt;AGR01.KZHBI.KST&lt;br&gt;AGR01.KTRAD.KST&lt;br&gt;BSA01.ZUVKA.KST&lt;br&gt;BSA01.SDCHK.KST&lt;br&gt;BSA01.SRKOL.KST&lt;br&gt;BSA01.SBKVO.KST&lt;br&gt;BSA01.BEREG.KST" style="vsdxID=455;fillColor=none;gradientColor=none;image;aspect=fixed;image=data:image/png,iVBORw0KGgoAAAANSUhEUgAAAb0AAADRCAIAAADXDfuGAAALJUlEQVR4nO3dXZraOBqAUVFPLWt20LnNXqZXkL1MbpMdZF/MBRWXy4CxbNn6JJ9z053u+gFZeiOwgcv1ek0ALPZW+wYANEY3AfLoJkAe3QTIo5sAeXQTII9uAuTRTYA8ugmQRzcB8ugmQB7dBMijmwB5dBMgj24C5NFNgDy6CZBHNwHy6CZAHt0EyPNe+wYQ0eV37VtQ1fWf2reA2C4+z7JLJw9fXbLbPd1siRr2R2RbpJtRaCIz5DUU3TyOMrIHST2ebhYmjoSiqnvQzZX0kabp6Ra6+YI+cip6uoRufqGSMKGk907dTZWEFZT0RN1USdjJ2UraczeFEmrpu6RddXP3UH67DP/6cNyUuld9VyDLukne2QC23c0dOzVK5GD5WF0ul5RS+tXw2DKjswrk2r7uWh/A9rpZuJWP+ji2fXw0tG+tJ2CFsmuwxQFso5tljtOrRA72G5OPhiYZ7VaLFVhhp4d6rYxe3G7ucmCep/P4cdDQ7rVSgXX2fjY/8ujF6uZx51X+BjTI3f9saJLRbkUOwQpHngWNNnQhunnwaehox2BCQ/v09bFOhHW33fEXkARZvDW7eea/rxb60tAko60J8JT63ipee1dxUR/dzbpXODZazxsNbcbiXKaWizmoftny8ev6uG5WH9yxpgOa7huaZLS2k7VyLM7SPmxd797NOGP6jIayUk4rU3e5HAu1zA9Y0Xt1M9Q4LtRhQG9ktKwTby1nBFzy+63owt0MOHbraChf2Fq+crlcws6u4su5WDe7KeZE6wFNMw1NVTP6rERx1l6/rXy8Wr9trUHwlxQXXMsFutlrMe9paLbM9IRYcp3mMnedrpvtwdOZCq3iTd08TzEnOghomm9oypn6uXHc/huLy78LTeSyyArNne3x05k2L+GV3TxtMSf6CGh62dADHL/MtDLfkgnfUBxWr9/sbjY0KAfT0PV+XR+O3sHv7fJM/FxWWZUzE76tSqxYuXndbGs4aukmoKl0Q6tNNq3c03F/5+0pa9ku7WZzoxDECRtapDgF5tuqZ12D5zL+MhwmfPybem/5al3UzRaHIJqeArq3TfOtu62l1XewRc/hzk8ax2wPGvrMyvnW3dbSuqvr5Qqd66aDtzcBHcubb2svfgqbS8stlPm1+bSbjuKRBHTpfOtra2mVRTZ3wYDPAY/mbA19Pdn62lpaXG15fLXA/dxyXIM4Q0CzJ9v+n9tcnAXVuvuVOO2mY3y0ZZupgDnYbutkGw1dtPGxjjozSef7+A8O9i5KvHx7uHYyWiDWKfO66WBDYfmcx+d+01Ffr9QbW2SKFo6FNs60UE9fWDXnMZ54utmAUKXYaI9pdvD4WCmnNcy0j8fppkJ1PcXxmZ2m2bMfW/J9ai0QRj72m6bFMc4Qx4dCTbCFRyHUbSaI2+R5T+ZHaaeN4zPRJtjM/jTaTSWm99dfQiZrr1EOHAu91b4BAI3RTYClbg9KdBMgz/vl35/pP99r3wzCeHgNf+zPJoSDOS/Egtc7jb9AQzmzPz/TP99188TWvTx08l0yyvno5vmUfTW9rSjn855SSn88xdm7Hd7698HHW9beinrFwUOuSy3OfrNre36qxNNPWBl6euRW9NvST7Q+A6Hcy5+ft3++f/7ZlrMPtT+B53VPize00vv4xSGUB7Pf7EXtXK77XZfLZWtGv12e/fCOCWUFfzeb6Us3bTmbE76V8y6/N+89TxNNoaxsFM003W9KZxPycxmnLCXXf7/RVMngPE5vh1yO9fWc5peLE1zOFc3XzWZ60E1bzlBabmXaad8U+GMsl3twFdfg224n0FjhLprp8X7z9nXqWVFmLkPlY9/HmF1EM41u/KKAJg2t5FE009zjdBvPg9lavtTXY/Ob8UG0CY3lSTTTi+c3pfMAtpYLfR2oUONQyqKG2oQe43k00+vzQtK5h5Zbmaqc7T1BNCcm9/FxRm1C9zBbzJsF59M93VlKy7msdmXM3aCFGpbDvNiK2oSWsiCaKeM6pCY2nk9OGlS+Gi4nl9Gi0NDQrXPAZ68Xt7ShApplWTFvLum//8v76cHr+ep864N5tsf0armVqXoubx6NYZGxyr13kRs6NndaSUNn5BQzpXT98T2/m6n5dI7NTbWbrAnXci5DtHJQNJoF71orDU3P5raATmRGM63v5iBsQP+uuqyV9rqh935dm25lipbLWVnNOuB+td1QAc0v5s3mbt7Erue6VK1p6BNaWcTLSFW8Uw0FNGno2lwOrj+KfL5Q2BPuv67p2+VyWfOOtouuAsn5CRG0mMubZ2EKco/GNyN+Qx+cVjrJqaTNxRyUe1+PmPXckM6xhS/q0Mo9jEsU/+6029DU8duLlCvmTen3QwpYz1/XlNL2dA4CxvFe/L4s1+59aauh6dn+oOmAli7mzT7vIzfc1jgBbfrYL9ZuYro3HJomAppab+g+uRzs/P6bkQJ6+d3MlM2ilW1pbhOaHjY0ZkB3zuXgqPctjhHQntIplx1ovaEpzjw8qpg3h7/fe+2ANp3OKHOUHbTY0FT3rN2xrRyr9zkZ9QLabjonN1tGe9XWk6HnyeUgwOcL1d6Btmua0V4vIjmxsJvQCn9nB8jlIEA3B+Nx2bmh7W45Z+Rdqy+srane0JO3cixSN8f2b2iX6Rx7kdH5l9WramyHNVQrH4razbHdGtp9OseCngZls+JPhmrlSy10c6x0Q0+VzjGnmPqzZROqlVla6+bYZNydVtpARjuzsKGHHuiWQznRcjcn1mb0tFvOGTLak0lDjzuaHYVyoqNuTuRkVBc4iX2ner+hnOi3mxMe1ENZp6nkvdN0c+L+kCspzDhxJe+dtZv3Hk4LMeWcVHKWbs4SU/qmj6voZr5nU01PCUsfi9LNcvSUusTxKLq5v/nZrKosp4wx6GZtL1eCsJ6HLDZCN8NbuJbkNSw17I5u9mLd4lTbLApISkk3z65iCNYlW7kIQDepRAFp1lvtGwDQGN0EyKObAHl0EyCPbgLk0U2APLoJkEc3AfLoJkAe3QTIo5sAeXQTII9uAuTRTYA8ugmQRzcB8ugmQB7dBMijmwB5dBMgz9v1h0+CBchgvwmw1G2jqZsAeXQTIM9b+rvzBGAJ+02ARYYt5tvkzwDMs98EeG28uXx7+F8BGEzy+Dbz/wC453E6wJz7DeXler3ef93l35+H3B6A0B4+Cn+83/SAHeBZCZ8+TpdO4MxmGvj4cfrn//aAHTiZl7vGF+eF7DqBU1kSvRf7zc+vs/EEurZ8m7j0OiQbT6BjWYlbut/8/AYbT6AjKzaF2d38+Db1BNq37pH0ym5+fLN6Ag3a+MTjpm5+/Aj1BBpR5FRNgW5+/CD1BAIreHK7WDc/fpx6AsEUvxyocDc/f66AArXtdAHlXt38+OnqCRxu7+vN9+3m568RUGBnh70856Bufv4+AQWKOv7VjEd38/MXCyiwQcUXf1fr5uctEFBgsQjvlVG/m2MaCtyL0MqxWN0cCCgQLZeDoN0c01A4j7CtHGugm2MaCv1popVjjXVzTEOhUc2FcqLhbk7IKETWeivH+unmhIxCXT2FcqLbbk7IKOyq40reO0s37ykpbHGqUE6ct5v3lBQeOnMiH9LNOUrKCankS7qZTUzphkSuo5vF6Clh6WNZunkESeUA4ngY3axPVVlIGYPQzQYI6xloYkN0sx/yGpMg9kc3EdxF5I+BblLZkmprFqHoJkCet9o3AKAxugmQRzcB8ugmQB7dBMijmwB5dBMgj24C5NFNgDy6CZBHNwHy6CZAHt0EyKObAHl0EyCPbgLk0U2APLoJkEc3AfL8Hwfwxcn6cl9FAAAAAElFTkSuQmCC;strokeColor=none;strokeWidth=3;labelBackgroundColor=none;rounded=0;html=1;whiteSpace=wrap;" parent="6p9jYXADkKIyNsR3x7E2-92" vertex="1">
          <mxGeometry width="104" height="48" as="geometry" />
        </mxCell>
        <mxCell id="6p9jYXADkKIyNsR3x7E2-95" style="vsdxID=459;fillColor=none;gradientColor=none;strokeColor=none;strokeWidth=3;labelBackgroundColor=none;rounded=0;html=1;whiteSpace=wrap;" parent="1" vertex="1">
          <mxGeometry x="296" y="238" width="210" height="28" as="geometry" />
        </mxCell>
        <mxCell id="6p9jYXADkKIyNsR3x7E2-96" style="vsdxID=460;fillColor=#ffffff;gradientColor=none;shape=stencil(fVFJDsMgEHsNV8Quek7Tf0QKKagUIpJuvy9oVDV04WbP2CPLg3i32GE2iJFlTfFkbm5cLeJ7xJgL1iS3ZoR4j3g3xWSOKV7CCHweirKgc7yWC3fwUUKKh5EHcGAHkHoXNlIhsaaVWCvMZcOgMFGVIU9ow1BHeUX7KZUC7+owjbvfYqFxof8MzVYyeLc5Oe/hGdv9Z/t5BJ/j/RM=);strokeColor=#a5a5a5;strokeWidth=3;labelBackgroundColor=none;rounded=0;html=1;whiteSpace=wrap;" parent="6p9jYXADkKIyNsR3x7E2-95" vertex="1">
          <mxGeometry x="14" width="140" height="28" as="geometry" />
        </mxCell>
        <mxCell id="6p9jYXADkKIyNsR3x7E2-97" style="vsdxID=461;fillColor=#ffffff;gradientColor=none;shape=stencil(UzV2Ls5ILEhVNTIoLinKz04tz0wpyVA1dlE1MsrMy0gtyiwBslSNXVWNndPyi1LTi/JL81Ig/IJEkEoQKze/DGRCBUSfuZGeqQVIl5FBJUTE0MAAzHeDKM/JzENSDpPEoRjVbCMzPSND4s3GazKQgfACxPfIcujeBQpBgsrYFQA=);strokeColor=#ffc002;strokeWidth=3;labelBackgroundColor=none;rounded=0;html=1;whiteSpace=wrap;" parent="6p9jYXADkKIyNsR3x7E2-95" vertex="1">
          <mxGeometry x="-50" y="14" width="260" height="1" as="geometry" />
        </mxCell>
        <mxCell id="6p9jYXADkKIyNsR3x7E2-98" value="&lt;font style=&quot;font-size:19px;font-family:Calibri;color:#5c5c5c;direction:ltr;letter-spacing:0px;line-height:120%;opacity:1&quot;&gt;RRL&lt;/font&gt;&lt;font style=&quot;font-size:19px;font-family:Themed;color:#5c5c5c;direction:ltr;letter-spacing:0px;line-height:120%;opacity:1&quot;&gt;&lt;br/&gt;&lt;/font&gt;" style="verticalAlign=middle;align=center;vsdxID=474;fillColor=none;gradientColor=none;shape=stencil(nZBLDoAgDERP0z3SIyjew0SURgSD+Lu9kMZoXLhwN9O+tukAlrNpJg1SzDH4QW/URgNYgZTkjA4UkwJUgGXng+6DX1zLfmoymdXo17xh5zmRJ6Q42BWCfc2oJfdAr+Yv+AP9Cb7OJ3H/2JG1HNGz/84klThPVCc=);strokeColor=none;strokeWidth=3;labelBackgroundColor=none;rounded=0;html=1;whiteSpace=wrap;" parent="1" vertex="1">
          <mxGeometry x="160" y="350" width="132" height="35" as="geometry" />
        </mxCell>
        <mxCell id="6p9jYXADkKIyNsR3x7E2-99" value="&lt;font style=&quot;font-size:16px;font-family:Calibri;color:#ff0000;direction:ltr;letter-spacing:0px;line-height:120%;opacity:1&quot;&gt;L3VPN&lt;br/&gt;&lt;/font&gt;" style="verticalAlign=middle;align=center;vsdxID=510;fillColor=none;gradientColor=none;shape=stencil(nZBLDoAgDERP0z3SIyjew0SURgSD+Lu9kMZoXLhwN9O+tukAlrNpJg1SzDH4QW/URgNYgZTkjA4UkwJUgGXng+6DX1zLfmoymdXo17xh5zmRJ6Q42BWCfc2oJfdAr+Yv+AP9Cb7OJ3H/2JG1HNGz/84klThPVCc=);strokeColor=none;strokeWidth=3;labelBackgroundColor=none;rounded=0;html=1;whiteSpace=wrap;" parent="1" vertex="1">
          <mxGeometry x="1306" y="295" width="214" height="28" as="geometry" />
        </mxCell>
        <mxCell id="6p9jYXADkKIyNsR3x7E2-100" value="&lt;font style=&quot;font-size: 16px ; font-family: &amp;#34;calibri&amp;#34; ; color: #000000 ; direction: ltr ; letter-spacing: 0px ; line-height: 120% ; opacity: 1&quot;&gt;Port &lt;/font&gt;&lt;font style=&quot;font-size: 16px ; font-family: &amp;#34;calibri&amp;#34; ; color: #000000 ; direction: ltr ; letter-spacing: 0px ; line-height: 120% ; opacity: 1&quot;&gt;1/1/6.555&lt;br&gt;&lt;/font&gt;" style="verticalAlign=middle;align=center;vsdxID=511;fillColor=none;gradientColor=none;shape=stencil(nZBLDoAgDERP0z3SIyjew0SURgSD+Lu9kMZoXLhwN9O+tukAlrNpJg1SzDH4QW/URgNYgZTkjA4UkwJUgGXng+6DX1zLfmoymdXo17xh5zmRJ6Q42BWCfc2oJfdAr+Yv+AP9Cb7OJ3H/2JG1HNGz/84klThPVCc=);strokeColor=none;strokeWidth=3;labelBackgroundColor=none;rounded=0;html=1;whiteSpace=wrap;" parent="1" vertex="1">
          <mxGeometry x="1820" y="377.5" width="130" height="31" as="geometry" />
        </mxCell>
        <mxCell id="6p9jYXADkKIyNsR3x7E2-101" value="&lt;font style=&quot;font-size:28px;font-family:Calibri;color:#FFFFFF;direction:ltr;letter-spacing:0px;line-height:120%;opacity:1&quot;&gt;&lt;b&gt;MW&lt;br/&gt;&lt;/b&gt;&lt;/font&gt;" style="verticalAlign=middle;align=center;vsdxID=576;fillColor=#a5a5a5;gradientColor=none;shape=stencil(xVfLctswDPwaHY0hAPF1dpP/0CSyrYlreWilSf8+dClTBT1WTmVvNAjJu3gt1PD2cujOfUPqMoXxrf8YXqdDwz8aouF06MMwxVPDTw1vd2Po92F8P72m3+fu6nk9/Rx/Xd/wmZ5rwdP1IVK/k0F7UPaP5Tn5d+El3obZ34JP7mH2RwaaTbOLA4vilcyg9eyy6T6HyyaMUzcN4yndq3R37MK+38S/2+yO3V5cXT76/vyXGR8DRAMKJUQy4FsBkRG8FhiR8mMVMDrgIoysSowawRmB0QJRNYgImotMe5AIjQPPsnjA1EPIgAVCikksatGDk3lmMLUQ+rssowYrAXoLLBGyXiqhRprNfZq1kUHMTT+7GAuuXkO3YGyR52hyshQtqFZgdHzLfAWIMYkFQg8oALIDLYPoFaCvhZAwt2qeOAacrMXYG0U/1wyiA6OLSmwX3fhWrf4JwnhYhHM3HI9Jd/P9I1VFlWfTAtStyqpzBfmoq/+XvKTEFlDKkTNAa4w83jHi+k2hHlOKQ8PKLcDGiK5wMnlWZ04KbCGKlSeRpOQISC5fWoNya5SK2RoVgaxgVHv8S0Y+DgEZzzbGnNcYId0lieqr7krhcZvXgGUxWKm7uHiVIq1v46TmSisoidlYzMV4KD9Aoil9vPDTFw==);strokeColor=#7f7f7f;labelBackgroundColor=none;rounded=0;html=1;whiteSpace=wrap;" parent="1" vertex="1">
          <mxGeometry x="290" y="270" width="164" height="107" as="geometry" />
        </mxCell>
        <mxCell id="6p9jYXADkKIyNsR3x7E2-102" value="&lt;font style=&quot;font-size:16px;font-family:Calibri;color:#ff0000;direction:ltr;letter-spacing:0px;line-height:120%;opacity:1&quot;&gt;172.28.27.61/30&lt;br/&gt;&lt;/font&gt;" style="verticalAlign=middle;align=center;vsdxID=693;fillColor=none;gradientColor=none;shape=stencil(nZBLDoAgDERP0z3SIyjew0SURgSD+Lu9kMZoXLhwN9O+tukAlrNpJg1SzDH4QW/URgNYgZTkjA4UkwJUgGXng+6DX1zLfmoymdXo17xh5zmRJ6Q42BWCfc2oJfdAr+Yv+AP9Cb7OJ3H/2JG1HNGz/84klThPVCc=);strokeColor=none;strokeWidth=3;labelBackgroundColor=none;rounded=0;html=1;whiteSpace=wrap;" parent="1" vertex="1">
          <mxGeometry x="1655" y="269" width="154" height="28" as="geometry" />
        </mxCell>
        <mxCell id="6p9jYXADkKIyNsR3x7E2-103" value="&lt;font style=&quot;font-size:16px;font-family:Calibri;color:#ff0000;direction:ltr;letter-spacing:0px;line-height:120%;opacity:1&quot;&gt;172.28.27.62/30&lt;br/&gt;&lt;/font&gt;" style="verticalAlign=middle;align=center;vsdxID=695;fillColor=none;gradientColor=none;shape=stencil(nZBLDoAgDERP0z3SIyjew0SURgSD+Lu9kMZoXLhwN9O+tukAlrNpJg1SzDH4QW/URgNYgZTkjA4UkwJUgGXng+6DX1zLfmoymdXo17xh5zmRJ6Q42BWCfc2oJfdAr+Yv+AP9Cb7OJ3H/2JG1HNGz/84klThPVCc=);strokeColor=none;strokeWidth=3;labelBackgroundColor=none;rounded=0;html=1;whiteSpace=wrap;" parent="1" vertex="1">
          <mxGeometry x="1816" y="350" width="114" height="28" as="geometry" />
        </mxCell>
        <mxCell id="6p9jYXADkKIyNsR3x7E2-104" value="&lt;font style=&quot;font-size:16px;font-family:Themed;color:#ff0000;direction:ltr;letter-spacing:0px;line-height:120%;opacity:1&quot;&gt;10.172.237.0/28&amp;nbsp;&lt;br&gt;10.172.237.16/28&lt;br&gt;&amp;nbsp;&lt;/font&gt;&lt;font style=&quot;font-size:16px;font-family:Themed;color:#ff0000;direction:ltr;letter-spacing:0px;line-height:120%;opacity:1&quot;&gt;Подсети для видеокамер&lt;br&gt;&lt;/font&gt;" style="verticalAlign=middle;align=center;vsdxID=696;fillColor=none;gradientColor=none;shape=stencil(nZBLDoAgDERP0z3SIyjew0SURgSD+Lu9kMZoXLhwN9O+tukAlrNpJg1SzDH4QW/URgNYgZTkjA4UkwJUgGXng+6DX1zLfmoymdXo17xh5zmRJ6Q42BWCfc2oJfdAr+Yv+AP9Cb7OJ3H/2JG1HNGz/84klThPVCc=);strokeColor=none;strokeWidth=3;labelBackgroundColor=none;rounded=0;html=1;whiteSpace=wrap;" parent="1" vertex="1">
          <mxGeometry x="1016" y="133.5" width="214" height="28" as="geometry" />
        </mxCell>
        <mxCell id="6p9jYXADkKIyNsR3x7E2-105" value="&lt;font style=&quot;font-size: 19px ; font-family: &amp;#34;calibri&amp;#34; ; color: #ff0000 ; direction: ltr ; letter-spacing: 0px ; line-height: 120% ; opacity: 1&quot;&gt;&lt;b&gt;alma-fw-inet-suyu-01&lt;/b&gt;&lt;/font&gt;&lt;font style=&quot;font-size: 16px ; font-family: &amp;#34;themed&amp;#34; ; color: #5c5c5c ; direction: ltr ; letter-spacing: 0px ; line-height: 120% ; opacity: 1&quot;&gt;&lt;br&gt;&lt;/font&gt;" style="verticalAlign=middle;align=center;vsdxID=697;fillColor=none;gradientColor=none;shape=stencil(nZBLDoAgDERP0z3SIyjew0SURgSD+Lu9kMZoXLhwN9O+tukAlrNpJg1SzDH4QW/URgNYgZTkjA4UkwJUgGXng+6DX1zLfmoymdXo17xh5zmRJ6Q42BWCfc2oJfdAr+Yv+AP9Cb7OJ3H/2JG1HNGz/84klThPVCc=);strokeColor=none;strokeWidth=3;labelBackgroundColor=none;rounded=0;html=1;whiteSpace=wrap;" parent="1" vertex="1">
          <mxGeometry x="2023.5" y="220.5" width="214" height="28" as="geometry" />
        </mxCell>
        <mxCell id="6p9jYXADkKIyNsR3x7E2-106" style="vsdxID=714;fillColor=none;gradientColor=none;strokeColor=none;strokeWidth=3;labelBackgroundColor=none;rounded=0;html=1;whiteSpace=wrap;" parent="1" vertex="1">
          <mxGeometry x="2077.5" y="118" width="100" height="100" as="geometry" />
        </mxCell>
        <mxCell id="6p9jYXADkKIyNsR3x7E2-107" style="vsdxID=715;fillColor=#ffffff;gradientColor=none;shape=stencil(UzV2Ls5ILEhVNTIoLinKz04tz0wpyVA1dlE1MsrMy0gtyiwBslSNXVWNndPyi1LTi/JL81Ig/IJEkEoQKze/DGRCBUSfoYEBSI+RQSWED+G5QZTmZOYhKSVTIcwGrErRrSdJMYpSIAPhx7TMnBxIECHLo4cJUAgSnsauAA==);strokeColor=#a5a5a5;strokeWidth=3;labelBackgroundColor=none;rounded=0;html=1;whiteSpace=wrap;" parent="6p9jYXADkKIyNsR3x7E2-106" vertex="1">
          <mxGeometry y="10" width="98" height="78" as="geometry" />
        </mxCell>
        <mxCell id="6p9jYXADkKIyNsR3x7E2-108" style="vsdxID=716;fillColor=#a5a5a5;gradientColor=none;shape=stencil(lZbbTsMwDIafJrdRDs1crsd4j0krtALWqes4vD0tQWKLwX98l3ZfPlnVP9smbs/9/tSZ4M7zND5378Nh7k28NyEMx76bhnk5mbgzcfs4Tt3TNF6Oh/x82q/kenod31bDR77n1hvBfeanNlny328eMvwyHK9g7wAuucnbJta7GS65E1nf1LsZLrmbYNtNvZvhkju0NlG9m+GS2zc23NW7GX7rDumW/rn9p7pgQUqSqzcnVf5IUTOpavbBAr742CUP0h1J52c88G+U9TMe+Ftl/YwH/gBoMY/g359UbSupOgup6iZV3SxjqCmWPOhcLGPAz3jgZxkDfsYDP8sY8DMe+AOgxUyCzp5UIymppgap6iZV3SxjaOCVPJhKLGPAz3jgZxkDfsYDP8sY8DNeObXllaCg3f/ecmbL3oIWvOXElr0k1LscflfevC1f/1aux8urvFrH3Rc=);strokeColor=#a5a5a5;strokeWidth=3;labelBackgroundColor=none;rounded=0;html=1;whiteSpace=wrap;" parent="6p9jYXADkKIyNsR3x7E2-106" vertex="1">
          <mxGeometry x="2" y="12" width="95" height="75" as="geometry" />
        </mxCell>
        <mxCell id="6p9jYXADkKIyNsR3x7E2-109" value="&lt;font style=&quot;font-size:16px;font-family:Calibri;color:#5c5c5c;direction:ltr;letter-spacing:0px;line-height:120%;opacity:1&quot;&gt;Eth1/15.98&lt;br/&gt;&lt;/font&gt;" style="verticalAlign=middle;align=center;vsdxID=717;fillColor=#ffffff;gradientColor=none;shape=stencil(nZBLDoAgDERP0z3SIyjew0SURgSD+Lu9kMZoXLhwN9O+tukAlrNpJg1SzDH4QW/URgNYgZTkjA4UkwJUgGXng+6DX1zLfmoymdXo17xh5zmRJ6Q42BWCfc2oJfdAr+Yv+AP9Cb7OJ3H/2JG1HNGz/84klThPVCc=);strokeColor=#a5a5a5;strokeWidth=3;labelBackgroundColor=none;rounded=0;html=1;whiteSpace=wrap;" parent="1" vertex="1">
          <mxGeometry x="2180.5" y="155.5" width="95" height="31" as="geometry" />
        </mxCell>
        <mxCell id="6p9jYXADkKIyNsR3x7E2-110" value="&lt;font style=&quot;font-size:16px;font-family:Calibri;color:#5c5c5c;direction:ltr;letter-spacing:0px;line-height:120%;opacity:1&quot;&gt;Po1&lt;br/&gt;&lt;/font&gt;" style="verticalAlign=middle;align=center;vsdxID=718;fillColor=#ffffff;gradientColor=none;shape=stencil(nZBLDoAgDERP0z3SIyjew0SURgSD+Lu9kMZoXLhwN9O+tukAlrNpJg1SzDH4QW/URgNYgZTkjA4UkwJUgGXng+6DX1zLfmoymdXo17xh5zmRJ6Q42BWCfc2oJfdAr+Yv+AP9Cb7OJ3H/2JG1HNGz/84klThPVCc=);strokeColor=#a5a5a5;strokeWidth=3;labelBackgroundColor=none;rounded=0;html=1;whiteSpace=wrap;" parent="1" vertex="1">
          <mxGeometry x="2023.5" y="132" width="44" height="31" as="geometry" />
        </mxCell>
        <mxCell id="6p9jYXADkKIyNsR3x7E2-111" style="vsdxID=719;fillColor=none;gradientColor=none;strokeColor=none;strokeWidth=3;labelBackgroundColor=none;rounded=0;html=1;whiteSpace=wrap;" parent="1" vertex="1">
          <mxGeometry x="2720" y="380" width="100" height="100" as="geometry" />
        </mxCell>
        <mxCell id="6p9jYXADkKIyNsR3x7E2-112" style="vsdxID=720;fillColor=#ffffff;gradientColor=none;shape=stencil(UzV2Ls5ILEhVNTIoLinKz04tz0wpyVA1dlE1MsrMy0gtyiwBslSNXVWNndPyi1LTi/JL81Ig/IJEkEoQKze/DGRCBUSfAUiHkUElhGdoAOG7QZTmZOYhKYVJkqUYj1IyFaJZD2Qg/JiWmZMDCSK4PK4AMCXBU6Z4nIpiP5rdQAZ6fACFIHFp7AoA);strokeColor=#a5a5a5;strokeWidth=3;labelBackgroundColor=none;rounded=0;html=1;whiteSpace=wrap;" parent="6p9jYXADkKIyNsR3x7E2-111" vertex="1">
          <mxGeometry x="8" width="83" height="100" as="geometry" />
        </mxCell>
        <mxCell id="6p9jYXADkKIyNsR3x7E2-113" style="vsdxID=721;fillColor=#a5a5a5;gradientColor=none;shape=stencil(pZfbcoJAEES/htep2V1u+2yS/7BKjFSMWGhufx8IZUV2dMbWN8Tu5TQ9q5CFxWGz3DeZ58Ox796ar3Z13GThKfO+3W2avj0OR1l4zsJi3fXNa9997FbT5/1yVI5H793nuML35KsCcT26PP9MZ3xBMf878zIZtu3uzBAjlfExA1Oh6CURqhdA88iByeUzg2Oqw/UrhEBV9ZiBFbHAgcQCxQrrS8ohdtjgCiqhCKBeAM0je0dFQOoa5sWVjxmUyiQOJDb6lQajLskOG/S+LkQA9Ua/NZUOact58tB+lwalMUGDaI1yhd6oSoLDBr0rGQCTG80y9CNLJbTLhV4piu8TGnWyfi8MXFSvV8N3a40Oy5ry+d9xXRDH66tfMFTklZllTtVOWV7Ii9Pjwq00Kb6VNzrKobwxaHc/DQCqYZjUYMatqIaucEK8iR8SwyjCMA87PEcikxmq0627W69vFcmD6hMeI64+ahIf1uvDKXlQfcJjxFVnTdKDcmM4JTyoT3CGg/93vnW73Z5/k74dDqemN8vw/As=);strokeColor=#a5a5a5;strokeWidth=3;labelBackgroundColor=none;rounded=0;html=1;whiteSpace=wrap;" parent="6p9jYXADkKIyNsR3x7E2-111" vertex="1">
          <mxGeometry x="16" y="9" width="69" height="83" as="geometry" />
        </mxCell>
        <mxCell id="6p9jYXADkKIyNsR3x7E2-114" style="vsdxID=722;fillColor=#5b9bd5;gradientColor=none;shape=stencil(zZjdcoMgEIWfxkt3gPUHrtP0PZjGJE5tzKBt0rcvFjMpOmgSK/EOYYE936xHJMBVtZfHLGCkqlX5np3yTb0P8CVgLD/sM5XXuhXgOsDVtlTZTpWfh415Psomsml9lF/NCmczLxVARDOLkW/TkwChvx2vJl6qNz2o2nhKIOUmXrUTriu0MUIAUmtNygDbkFCe8ypUZS3rvDyYYWLGCql2Waj3C7eF3FlD1SnLjr1uZ4bpSIYDqmfJsMecRdbuyEDgNEkaOk3sRQXweGHUnbr9YEe0to8FCD4ZO0ntSkqBpQvD7tT9FOxcExqxmPuxiwiWVuxO2R6o65c/tbdPIGLTJCUEGLd9nQIXPqmPfXoGZPuBzjsGh4DJNEmaet/Y59R0f2EM6faDXdjnDc0sGvme3oC9e0RIgC8Nu1P3U7Brh0umV3sHuzZ2sihnH9LtATsB7Bw4Li/f7dCpJYhRYLZpal+PvJ5hRjJ0a/YCPOr4L16MYAJx2jFMDmLGEnqAuFO0F+Rxz9jEvX+lPeR9P8cZi+gB5E7Rz0DO+aVG/w+5QIiX5StO0bMkqBvXi5htXhR/R7pXNrrLXPfg+gc=);strokeColor=#5b9bd5;strokeWidth=3;labelBackgroundColor=none;rounded=0;html=1;whiteSpace=wrap;" parent="6p9jYXADkKIyNsR3x7E2-111" vertex="1">
          <mxGeometry x="69" y="11" width="14" height="17" as="geometry" />
        </mxCell>
        <mxCell id="6p9jYXADkKIyNsR3x7E2-115" value="&lt;font style=&quot;font-size:16px;font-family:Calibri;color:#5c5c5c;direction:ltr;letter-spacing:0px;line-height:120%;opacity:1&quot;&gt;172.28.79.249/24 GW&lt;br/&gt;&lt;/font&gt;" style="verticalAlign=middle;align=center;vsdxID=730;fillColor=none;gradientColor=none;shape=stencil(nZBLDoAgDERP0z3SIyjew0SURgSD+Lu9kMZoXLhwN9O+tukAlrNpJg1SzDH4QW/URgNYgZTkjA4UkwJUgGXng+6DX1zLfmoymdXo17xh5zmRJ6Q42BWCfc2oJfdAr+Yv+AP9Cb7OJ3H/2JG1HNGz/84klThPVCc=);strokeColor=none;strokeWidth=3;labelBackgroundColor=none;rounded=0;html=1;whiteSpace=wrap;" parent="1" vertex="1">
          <mxGeometry x="2140" y="196.5" width="214" height="28" as="geometry" />
        </mxCell>
        <mxCell id="6p9jYXADkKIyNsR3x7E2-116" value="&lt;div&gt;&lt;font style=&quot;font-size: 16px ; font-family: &amp;#34;calibri&amp;#34; ; color: #5c5c5c ; direction: ltr ; letter-spacing: 0px ; line-height: 120% ; opacity: 1&quot;&gt;DL385 Gen10 Plus 24-25U&lt;/font&gt;&lt;/div&gt;&lt;div&gt;&lt;font style=&quot;font-size: 16px ; font-family: &amp;#34;calibri&amp;#34; ; color: #5c5c5c ; direction: ltr ; letter-spacing: 0px ; line-height: 120% ; opacity: 1&quot;&gt;kz-monles-02&lt;br&gt;&lt;/font&gt;&lt;/div&gt;&lt;font style=&quot;font-size: 16px ; font-family: &amp;#34;calibri&amp;#34; ; color: #5c5c5c ; direction: ltr ; letter-spacing: 0px ; line-height: 120% ; opacity: 1&quot;&gt;&lt;/font&gt;&lt;br&gt;&lt;font style=&quot;font-size: 16px ; font-family: &amp;#34;calibri&amp;#34; ; color: #5c5c5c ; direction: ltr ; letter-spacing: 0px ; line-height: 120% ; opacity: 1&quot;&gt;172.28.79.10 - гипервизор &lt;/font&gt;" style="verticalAlign=middle;align=center;vsdxID=733;fillColor=none;gradientColor=none;shape=stencil(nZBLDoAgDERP0z3SIyjew0SURgSD+Lu9kMZoXLhwN9O+tukAlrNpJg1SzDH4QW/URgNYgZTkjA4UkwJUgGXng+6DX1zLfmoymdXo17xh5zmRJ6Q42BWCfc2oJfdAr+Yv+AP9Cb7OJ3H/2JG1HNGz/84klThPVCc=);strokeColor=none;strokeWidth=3;labelBackgroundColor=none;rounded=0;html=1;whiteSpace=wrap;" parent="1" vertex="1">
          <mxGeometry x="2660" y="530" width="214" height="28" as="geometry" />
        </mxCell>
        <mxCell id="6p9jYXADkKIyNsR3x7E2-117" value="&lt;font style=&quot;font-size:16px;font-family:Calibri;color:#ff0000;direction:ltr;letter-spacing:0px;line-height:120%;opacity:1&quot;&gt;static root xxx..xxx&lt;/font&gt;&lt;font style=&quot;font-size:16px;font-family:Themed;color:#ff0000;direction:ltr;letter-spacing:0px;line-height:120%;opacity:1&quot;&gt;&amp;nbsp;nh &lt;/font&gt;&lt;font style=&quot;font-size:16px;font-family:Themed;color:#ff0000;direction:ltr;letter-spacing:0px;line-height:120%;opacity:1&quot;&gt;ххх..xxx&lt;/font&gt;&lt;font style=&quot;font-size: 16px; color: rgb(255, 0, 0); direction: ltr; letter-spacing: 0px; line-height: 120%; opacity: 1; font-family: Themed;&quot;&gt;&lt;br&gt;&lt;/font&gt;" style="verticalAlign=middle;align=center;vsdxID=735;fillColor=none;gradientColor=none;shape=stencil(nZBLDoAgDERP0z3SIyjew0SURgSD+Lu9kMZoXLhwN9O+tukAlrNpJg1SzDH4QW/URgNYgZTkjA4UkwJUgGXng+6DX1zLfmoymdXo17xh5zmRJ6Q42BWCfc2oJfdAr+Yv+AP9Cb7OJ3H/2JG1HNGz/84klThPVCc=);strokeColor=none;strokeWidth=3;labelBackgroundColor=none;rounded=0;html=1;whiteSpace=wrap;" parent="1" vertex="1">
          <mxGeometry x="1460" y="190" width="214" height="28" as="geometry" />
        </mxCell>
        <mxCell id="6p9jYXADkKIyNsR3x7E2-118" value="&lt;font style=&quot;font-size:16px;font-family:Calibri;color:#000000;direction:ltr;letter-spacing:0px;line-height:120%;opacity:1&quot;&gt;MRT02.SWITC.KST???&lt;br&gt;&lt;/font&gt;" style="vsdxID=737;fillColor=none;gradientColor=none;image;aspect=fixed;image=data:image/png,iVBORw0KGgoAAAANSUhEUgAAAiIAAAJPCAIAAADOvCj5AAAizElEQVR4nO3dzbXj1pWA0fu8lITT6DSsaVUYHksRSGOHUTVVp9FpOAz2AFUUH39A/OOec/ZevVbbbqsKTV7ge+cC5Pu4XC4NMvr+37OPYKYv/zz7CGAHHzJDz8Kl4kQqRZ9khhOIx4nUiIPJDLsQkrh0iG3JDAt1FZKv/3f2Eezp2/+cfQQ3RIi5ZIY3Ds5J7mAc5vgyyQ+vyAw/HJATCenNATWSH2Smop2KoiLJ7Bch7SlFZvLbNipaQtuhQMKTmMyksmFR5IQFNsyP8KQhM7Ft0hVFYW+b5Ed4gpKZSNZHRVHox8r2qE4UMtO1lV0RFWJZEx7V6ZbM9GVNV0SFfBaHR3X6ITPnW5YWUaEg1YlIZk6gK7CVBeGRnIPJzEEWpEVXYK651ZGcA8jMjuamRVdgW6rTA5nZmLRAnyTnLDKzgVlp0RXowfTq6M1KMrPc9LpIC/RMcnYlM/NUT8uvH2cfQTp/OQH7Ijmbk5n3qqflFcnZitL0amJy9GaczLw0sS610vKU3qynNH0z4qwhM/fUZRXJWUZm4jDizCUzP0ypi7Q8uvzr7CNI5ON/zz4C5tCbiapnRl22ojebUJqgpiSnbG+KZuZtXaRlDclZTGai05tHtTKjLgfTmwWUJge9uSqRGXXpgeRMpzSZvO1N+thkzoy69Elv3pKZlMr2JmdmxgOjLv2QnFeUJrFqvUmVGXWJS28eKU16471JE5skmRGYTCRnIDN15O5N7MyoS256ozSlZI1N1MwITDVlk6M0BY30JmJs4mVmJDDqkt+v8VbsekpTVo7eRDppBaa0Z1/KGWj1riEzxUWPTYDMqEt1r7/1uf/VuxWlIW5sus6MwFQnMDeUhsGr3nQbm04zIzDVjf7emj4X7d5khluBYtNdZgSmOoF5TWm4EyI2fWXmaWPUpQqBmUBpeNR5bHrJjMCUJjBzKA1PdRub8zMjMKUJzHwyw4gOY3NmZgSmOg+SLaU0jOsqNudk5tV9fo2pQmBWUxreehqb40tzQmYMMaUJzEZkholOj82hmRGY0rLfhrle9w/7lk+lYboTY3NQZgSmtDKBeWrX6igNszzG5oDSHJEZjakre2DazAv95smRGeY6fqzZNzMCU5fAvLNVcpSGBY4ca3bMzGNjBKYEgVlkTXWUhgUOG2t2yYwhpq7sD5Idc0FfkBylYZkDxprtM2OIKUpg9jExOTLDYnuPNRtnRmMqEpgDjVSnq+MknP3Gms0yIzAVCcypHpPT+QHTuZ1Ks01mNKac7Pf5I16vL/8Kedj05i4260uzQWY0phaBgey2HWvWZuauMQKTWfbANI2BnzYszarMaEwVAgMlbbKBtjwzGlOCwFQw+i6zyl/hz5H1pVmYGY0pwYNkNanOtsqXZklmNCY/geFKddarXZrZmbltjMAkJDCMU51lCpdmXmY0JrPst2EEZoHDfkVbBQlW4LLSzMiMxqQlMLyjN5tIsBQXlGZqZjQmJ4FhPslZI8GanFuaSZnRmISyB6alOJ87pzcL5FiWs0rzPjOeK8tGYNiB5EyXY33elmZVZjQmGw+SsTO9mSLHQp1YmhmZ0ZjYBIbDSc6IHCt2Sml+GfnnNSYJgeEk17dGbyr4/t/npXk5zWhMBtlvwwhMRJJzlWMBvx1onmfGLZnwBIbu6U3LspLHS/M+MxoTjMAQy68fLcXKXCbNeh4pzZN7MxoTVfbAtETnJK19WrEfHz/+dY6FOl2FX639j7MPgC38+jF+nz/Bqfvxv/nPxkJer9iPGwcf1FlybB7eziR3t13upxmjTDweJCOQOV/w/PGx9rfI0wPTTGSvfyQ0wdCd0Zn7UY41PFHugebTNGOUCcMEQyAzf0VNjjU8V+KbNKaZaEwwBGKCmSPBTPN0oPnl8T9qRpk+ZX+QTF2ymRmY/Q6Ec5lmIsj+IJkJJps5Q0yCBbyhlAPNk8/NGGU6YoIhFhPMavlu0vzIzN1jzpwve2CaxiQjMLww9g3NnENgiEVgthZ9oPn6f5++e0ZmOuNJZQIRmN1EL83V9/8+ZMaNmdMIDIGUDIxfn7PML82NmdMJDIHUDszjv90vOWkGmo/L5eITM6fJfhsmx0nC3+o1ZtYa3iM5cU+i6+0Z92ZOIjDEIjDz/xF7awOZOZzAEIvAbPHnLE5Ogq0zmTmQwBCLwOzzJ89NTvTSyMwhsgemaUwyAnPU3zUxOaFLIzP78yAZgQjMqX97yts5MrMngSEQgenAyKATd6CRmX0IDIEITJcekxO0NDKzNYEhEIEJIuhhD2RmO9nv84de6Dwx51fC7Hogx7CAzyIzWxAYYhEYDiQz6wgMsQgMh7j/RQBf/unbM+cTGGIRGE5yP818+x/fnvlO9sA0p2gyAsOpbJrN5EEyAhEYOiAzkwkMgRQLTLOAe3J7Y6Y9zYx9s3sCQyACQ2dMM6Oy34ZxfmYzrTEJlu7AAg5BZl4QGGIRGPpwt2PWXmWm9L6ZwBCLwNA308wNgSEWgaEzt6PM1/98//bvL20kM7UGmuyBaU7RZASGOEwzHiQjFIGhV3ejzPVf/+Puv3f7f3u8k5PNrx+vTtrL5ZLgRP34X2dpIq+X660cS7dZvYm8mWbSbp2ZYAjEBEP3Xo0y7XGaefxvZDP6I2GCE9XPgNlUaozVG9T41teTzLSsW2fvAhP9RHWKZlNpl8zqTeNxUJn0CED4rbPsD5I5P7MpNsEQ2sh22eD5NPPqv51Mgh8D/QyYjQmGUKZsd73MTMu0dfbX5cf//JTgLHWKZiMwBPdqOBnLzJ3YpRn8dUlzlpKHwBDT2+2ywZvM3P2ToUtz+Ve7/Ovsg1jNWZqKwBDWxMa0KdNMmtIMqzzuQg998NwTGCKbFYJJm2ZpSjMI15tYR8sbAkNwdwl4+7zY1HszyUoz6L83nR8eswkMwc1tTJv1CEDK0gw67E1vx8NaE4YYgaFzCxrTZmXm8Q/NVJpBD705/QDYmMCQwrLGtLmZefyj85VmcEpvnKXZCAxZLG5MW5CZx78ga2kGx/TGWZqNwJDImsa0ZZl5/Gtyl2awX2+cpakIDLmsbExb89szr7/n+Xoosb9ec7LrqbX+w57O0lSmPUV2wIHszbot4nF+WPZdlwunmad/ZYWZ5taa+cZPgqmUmWCaxpSxVWPammnm+hffzTStVRlrrmbNN87SbCYE5pgD2ZulW8f6jbJbq6aZV0dQbay5Gp9vTDDZvBtiMk0wlm4d2zamrZ9mbo+j5q2ap+7mG6doNiYYMtpwo+zWBtPM1eOtmrJjzZUfA7MxwZDUTo1pW00zV3e3alr5sYY8TDAktV9gBhtnpr3YQGv1ngsgD4Ehr70b0/bIzMBYQwYCQ14HBGawV2aasYbQBIbUDmtM2/YRgKeePu7s0QC6VqMxbvLX9PQKvF9j2q7TzNXjWNPsodGnMoGhoKc/3+8amMERmRk8vVvT7KHRCYEhr7MCMzguM+31WNPEhhMJDKmd25h2cGYGYkMvBIbUTg/M4ITMDB730JrYcBiBIbVOAjM4LTPtxVjTxIZdCQypvXqO96zGtHMzMxAbDiIwpNZhYAbnZ2YgNuxIYEit28AMesnMQGzY3rsvVD7sQPYjMGV1HphBX5kZiA3bEBiSGvkila4CM+gxMwOxYTmBIalYgRn0m5nBeGya3nBHYEgqYmAGvWdm8Co2zXDDlcCQVNzADGJkZvA2Nk1vahIYMopel6tImRlcX1/DDT/8dXlaGoEhqDSBGcTLzJXhhr/99bMov360LIFpGlPM+C/iihiYQeDMDEZi0ww39QgM4WSty1X4zAym7KQ1vcnu8q+zj2ALAlNH+sAMkmTmaspw0/QmqesFOmhvBKaIInW5ypaZwfhw0/Qmu3C9EZgKxuvSMgZmkDMzV3pTXP+9EZj0ytblKnlmrsY305reZNdhbwQmN3W5qpKZwdvhpulNdj30RmASU5dHtTJzpTec0huBSeltWlrJulwVzczVrN40ycnomN4ITD7qMlH1zFxN6U0z4qS2U28EJpMpaWnq8pnM3LtdH0acmrbqjcCkoS5ryMyYuSNOk5xcFvdGYBKYmJamLu/IzCQTe9PsqiU1vTcCE5q07EFm5pm4pdYe1qvq5DDSG4EJanpamrosIjPLTU9Os7GWzm1vBCYcaTmSzGxj+q5ak5xcNCaEWV1p0rIpmdnYrBGn2VuD3UhLJ2RmR3erVnVgV3O70qTlEDJznLmDTlMdGLWgK01aDicz51iQnKY6lKcrEcnM+Rbsrf34bz6ccsJDJsuiMpCWfshMdxZXpxl3iGxNVJqudExmerdhdX78gdpDB0SlDpkJ5vHsmhWepj0cbmVRBroSl8yEt2bc+fuf0h5W2yQnA1HJRGayWT/u/P0PvrhqyE9xG+ZkICq5yUx+T8/hxe1p764yIpTD5i25EpVqZKaozdvz9x/y7vKkQz3YryJXcsJAZvjbq+vCJvn5+0+b+IsI1WiRA/rxSFEYITO8N3IR2bZAn/7kBd9PlatMpwRjhJawjMywyikFevk3dnZdjkhL2JzMsJe3F6zjO1SchHAKmeE0s656mvSKeNA5mSGGlRfTniulE+QmM5TgUg5n+cfZBwBAZjIDwI5kBoAdyQwAO5IZAHYkMwDsSGYA2JHMALAjmQFgRzIDwI5kBqjqz69nH0EJMnOeP79a5XAy5+D+ZOYkFjd0wsm4M5k5w7Nlffmj32+qh9ycfbuSmcNpDPTHObgfmTmWxkCvnIk7kZkDaQz07fLHF7dqNiczR3namMvl+AMBRlwuF6XZlswcQmMgDqXZ1i9nH0B2AgMBDSfpx+/fzz6QDEwze9IYiMyt003IzG40BuJTmvVkZh8aA1kozUoyswONgVyUZg2Z2ZrGQEY+UrOYzGxKYyAvDzovIzPb0RjITmkW8LmZLQgMlOEjNXOZZlbTGKjHQwHTycw6GgNVKc1EMrOCxkBtSjOFzCylMYDSTCAzi2gM8JOP1IyTmfk0BvjMg84jZGYmjQGeUZpXfG5mMoEBRvlIzVOmmWk0BpjGQwF3ZGYCjQHmUJpbMvOOxgDzKc2VzIzSGGAppRnIzGsaA6zjIzVNZl7SGGALHnSWmWc0BthO8dL43MxnAgPsoPJHakwzNzQG2FPNhwJk5ieNAfZXsDQy01rTGOA41UojMxoDHK1UacpnRmOAM9T5SE3tzGgMcJ4iDzoXzozGAGerUJqSn5sRGKAb6T9SU2+a0RigP4kfCig2zXTemOyz83K/fTv7CAKynKK5/PEl5UxTaZrpvDGwIY2JKeVMUyYzGhOaiyZl5CtNjU2zII3p8JB6k3JLYXufF7x1Fc7ljy8fHx9p9ooLTDNBGgPbMPmlkOlB5+yZ0Zhc8u0n7M1qjytNafJumgkMBaW4KnGV4yM1SacZjcnLQDOdNZ9D9DWfMTMaQ03u/OcVujTpMqMxBYQ+5fZiuyy7uMs+XWYeaExKcU+5Y1j2KQVd9uky8/lJcycbJRhlyohYmnSZaX+XRmNyi3i+HcPKzy3cys+Ymdbab9+caVThzn89sUqTNDPxnzRnilgn2y5sl5UU6/qWNjMt2jsB6xllKgh3ZcucmRbw/WCu0gONUaaeiNe05JlpMd8VWMAok17Qq1n+zLTWPn7/HvTtYYqiA407/8XEvYiVyMwg7pvEW0VLQxmhL1+FMtOCv1XwN6NMJdEvXLUy0+K/YbxSaKBx57+MHBv+5TLTlIZcjDJZpblSVcxMy/IzAndKDDRGmRoyXaCKZmaQ6Y2kJqNMSskuTaUz09K9nSQfaNz5LyDfRal6ZlrGN5WcbJcVkPJyJDOtJX1ry0o+0PxklMkn64VIZn7wUEAmCUtjlMku8fVHZj5J/E6TiVEmk/Q/4/5y9gF05+P372f9LJxhqf35tfVxEbz88SXD6zno7M5/vhf2xJc0z4v5mmnmiQpv/F5+/oZsNtPZdpmzY0NFXkyZea7I27+L3759fHycfRCtpbxD08Eow1bqXGRk5qX0G6a76qQ04Rllkir1SsrMG6VWw2a62TpLNtAYZXKodlWRmfeqrYmtGGjWcuc/o4Ivo8xMUnBlrGWgWamz7TI2UfNKIjNT1Vwfq3gWYDtGmegq3+uVmRkqL5TFOilNMJ2NMpb9SsVfQJmZrfiKmcfW2RZOH2VYwxVDZpawbmYx0Mzjzn8iXr0mM4tZPVMZaGbpbLuMNVwlBjKznDU0VTfPAoRjlInLS3clM6t4KGC6HkrT+0BjlMnCZeGWzGzAknrP1tl8RpmgvG53ZGYbFtYUPQw0/XLnPz7bG0/JzGYsrzcMNKTmCvCKzGzJOnvDswCvGGWC84qNkJmNmZrf6qE0fQ007vwH55QfJzO7sOxe6mbrrFtGmVi8XG/JzF4svhEGmr91tl3GLE7zKWRmR5bgcwaajlm003mtJpKZfVmIz/XxLMD5A01no4zlOp3XajqZ2Z2HAl6pXhp3/mNyRs8lMwexLu/ZOvvMKBOCV2kBmTmOBfqo7kBjlAnIKbyMzBzKMv3EQPOTUaZ/XqLFZOZoFusnNZ8F6OzOP285bdeQmRO4hXinh9Icp7/tMqtxnNdnJZk5jbX7Qx9bZ2c9cnb6KGMdjvP6rCczZ7KCr6oMNP2NMoxwhm5CZk5mHbdWd6AxynTh2fKzs70hmTmf1dxajWcB3Pnv0IvGHH8gif1y9gHQmmX908fHR9qLb3/bZVadxhzDNEM3Km2dpa1pcBqzB5mhLz1snW3PKBOB12QnMkNPagw0RpkOacx+ZIbO9PEswJb6u/PvknrHC7IrmaFHp5dms4HGdhnlyQz96WPrbA89jDJwMJmhUxkGGqMMyAyd6mOg2fZZAKMMNckMvYr+LIA7/9Bakxk6d3ppzvrmZkhDZuhYH1tnSxhl4CeZoXfxBhp3/uGGzNC3uAPNTz2MMnAimaF7HTwLMGOgsV0Gn8kMMZxeGmAZmSGCDrbOJg00Rhl4IDOEcfpA86Y0/d35hx7IDEF0MNDMYpSBgcwQR8/PAvQ3ymgMnZAZgjm9NFP0MMpAJ2SGUDrYOnsy0LjzD6/JDPH0NdD0t10GXZEZoulzoLn+n4wy8JnMEFAHzwL8YJSBd2SGqM4tzdOBxigDj2SGmPrbOtMYeEpmCKyXrTPgNZkhrB4Gmp8TjFEGXpEZIuvnWQDgBZkhvJOfBbhcjDIwQmYIroOtM2CEzJBB8a0zoww9kxniM9BAx2SGFAo/C2CUoXMyQx4FS6Mx9E9myMLWGXRJZkil1EBjlCEEmSERAw30R2bIpcyzAEYZopAZEipSGghBZkinwNaZUYZAZIacEg80GkMsMkNGBQYaiEJmSCrpswBGGcKRGTJLWRqIRWbIK93WmVGGiGSG5Aw0cC6ZIbVEA41RhqBkhuxSPAugMcQlM5SQoDQQlMxQQPCtM6MMockMVRho4BQyQw1hBxqjDNHJDGWkeBYAwpEZaolVGqMMCcgMlYTaOtMYcpAZyok10EB0MkMxQQYaowxpyAz1eBYADiQzFNVzaYwyZCIzlBRk6wwSkBnq6nOgMcqQjMxQVZcDjcaQj8xQWp8DDWQiM1TXT2mMMqQkM1T159ezjwBKkBlK+tyYHgYaowxZyQy0y+Vy9iG0yx9fzj4E2IXMUI/tMjiQzFBdD6PMwEBDSjJDMZ9HmX4aA1nJDHTEQEM+MkMlEUYZpSEZmaEMd/7hDDJDUX2OMgMDDZnIDDUYZeAkMkNFPY8yAwMNacgMBUS48w9ZyQx0ykBDDjJDdkYZOJXMkFrwO/8GGhKQGQqJOMooDdHJDHnZLoMOyAz0zkBDaDJDUkYZ6IPMkFHwO/+PDDTEJTPkZ5SBE8kM6aQbZQYGGoKSGZIzysC5ZIZcUt/5N9AQkcwAsCOZIZHUo8zAQEM4MkMWSe/8P1IaYpEZcko5ykBEMkMKZUaZgYGGQGSGhIwy0A+ZIb4Cd/4fGWiIQmYIrth2GYQjM6RSZJQZGGgIQWaIzCgD3ZMZ8ig1ygwMNPRPZgir5J1/CEdmIDYDDZ2TGWIyytxQGnomMwTU053/j4+Pj4+Ps48C+iUzhHfyKPPbtzP/9p8MNHRLZoimq1Hm9+8//oWBBl6QGWLr4q6MgQZekxlC6enO/3WU+fFvDTTwjMzAFgw08ILMEEfHo0xrrf32zUADj2SGIHq68z/i9NIYaOiNzBBSd6PMwNYZPJAZIuhpu+yt0wca6IrMwDwvR5mBgQY+kxm6F2qUGRho4Epm6Ftnd/7fjDIDAw3ckBki6fTO/yMPN8NPMkPHOhtl5jq9NAYaeiAzhBFmlBn0sXUGp5MZehXwzv8jAw3IDLw3e5QZGGhAZuhUilFmYKChOJmhP53d+V84ygz6GGiUhhPJDL0LPcq05uFmqpMZOpNplLn9c84ujYGGs8gMXQs/ygz62DqDU8gMPenszv9Wo8yPP81AQ0kyQzc62y7bmIGGqmSGTiUbZX78mQYa6pEZ+pB7lBkYaHpTYdV1QGZOZZW/kHKUaa2Lh5sNNJ84B/cnMyf586v1/bfO7vzvTWn64kzcmcycwbLu216jzMDWWX90d1cyc7hnjbn88aXuQi82ygwMNL3xguxHZo71ojHHH0gv+hvs9h1lBgaaLl3++NLhgkxAZg6kMe8UGWUGBpoOXS4XpdmczBzixQ3/UlfVJ/o7n48YZQYGml4pzeZkZn8vlmz1xjwo94J4uLlXl8vFK7MhmdnZiyGm3CX1UX93/o8bZW7/0rNLwytKsxWZ2ZONMsZ1sHXmYjrCQwGbkJndaMwIo8ztX22g6ZhbNevJzA7c8B/npL1loOme0qwkM1tzw3+mHl6ZE0eZHwdw9kCjNOM8FLCGzGzKDf+3bJc96mCgYQqlWUZmtmOjjMU83ByEhwIWkJmNaMwURplRp5eGKdyqmUtmVnPDfyJn5rgOts4MNBMpzSwys46bMUv18BJ1NcoMDDRReChgOplZwRAznR/9pjDQROPlmkJmltKYFXp4oTocZQYGmlg8FPCWzCyiMbP0d+e/X799a2eXxk/oc7lVM05mZnLDP4VuR5nWutg6Yy6lGSEzc7jhv4BRZhEDTTgeCnhFZiYzxCzQ5c93XY8ygw4GGlfMZbxuj2RmGo3ZgldsFs8CBOWhgDsyM4HGLNPlmRZglBkYaCJzq+bWL2cfQN983fJ2vGgLfHx8eN2CulwuHx8fPfy4cDrTzGtu+K/R5Z3/MKPMwMPNwXkoYCAzL9goW8N2wVb8LByf0sjMMxqzqU5eumCjzA0DTXTFHwqQmQcas1Lh02kXBpoUKj8UIDM3fMJ/B528enFHmYGBJoGypZGZn9zw30SXd/7D62CgUZpN1HwoQGZaazbKkos+ygx8WjONaqWRGY3ZjlFmPx5uzqXUQwHlM6MxW+n1nMkxyrTWxdYZG6pzq6bwtwB0+An/RGtOqndy7vcCXP74Yu9uQ0W+KaDqNOOGfw15RplB9utRQRUeCiiZGRtlO/Ni7urkOzTe3B3kLk29TbOOG9PJYaSRbZQZ/Pbt9M1VC3UPPzYkMw6sxaaZjhsD07lBklLWhwLKZMYn/IvJOcoMOni4mZ2kLE2NzLjhX0zmxgwybq0wyPdQQIHMGGJIykCTWKbSZM+MxtSTf5QZGGiyS/NNAakzozFkZ6DJLcetmqSZccO/qiqjzMBAU0CC0mTMjBv+VGKgSS/6QwHpMmOIKazWKDPwcHMZcUuTLjMPNIbkbJ2VEbQ06TLz+ZTTmDoqjjI3DDRFRCzNP1pr3/979lFs62dpNIYqDDSVhCtNumlm8Ns3jSml+CgzMNDUEas0STPjukM1BppKYl3f0mamRXsnWMwbfWWgqSDcgs+cmRbw/YDlPNxcQMRrWvLMtJjvCtN5fz+xdZZa0NWePzMt7HsDyxhoUop7HSuRmRb5HWKEt/UJA01GoZf6L2cfwHGG9ynWg4CwzMfHh2f6c4gbmG///nGxrTLNXMV9z7jjrXzJQJNFjkVeLjMtyzsH49yhiS7NlapiZlqi968s7+Abv31rv33zKsWV6b0rmpmW610EMklwdbremGlDZr7887xjOVWC97Imb9x0Xqtw8r1l99PMbYIqyPeOAnGlvCIVeqD5lY/fv3vKOZCU5+GuvGIv/fxlu508/J31nZKZ1nykBjhVssDc7op9+efPTbOyt2duJXunU/IekU/6Vf1kmvn27y9f/5P8/+1Xzt1AS7/agDsVzvq6DzS/UuFdB3qQ8mpzt2PWbjNzu29W7XmzOynfe6Arda4zppnn6qwA4HhZrzCPo0y7y4yB5lbWdQCcq9q1xTQzptpqAPaW+KrydJRpj5kx0Nz5+P174mUBHKbsxcQ0M0nNxQFsJf015NUo055mxkDzVPpVAuyk+NXj/TSjNFfF1wqwQIXrxsgo015lxnfPvFJhxQBbqXDFGG9MG5lmbJ29UmHdAOtVuFZMqcPYppnSvFJh9QBrFLxKvNoGm/GkmdLcKriGgImKXB/ebpcN3mTm7p9Umltln4IHXqlzWZieg/fTjMcBxhVZUsBbda4Gd40Zz8SkTTM3acbVWVvAK3WuA7Ma06bfm1GacXVWGPCozhVgbmParEcAlGZcnXUG3Kpz7i9oTJv7nWZKM67OagMGdc76ZY1pC746U2nG1VlzQJ3zfXFjWmsfl8tlwV/5/b+f/u3X/1R5rae7/DG7wXWWLHThz6/D/152Gaxzwq5pTFv8iwB8nuatOksQqqnz4Zi2ujFtze+bUZq36ixEqKPUeb2+MW3lrzVTmrdKrUhIr84Z/e3fXzZpTFv/2zMfSyM2d+qsS8itzrn8eBlf83UwG/yS5se/Xmnu1FmdkFWds/hxiFn5lWMbZObpcSjNnTprFPIpcv5uuFF2a5vMDGygjSuyUiGZImfuthtltxZ+bmbE3Udqmk/VPHj1kZoiqxl6MeFzMxXOyqfzwIbfzb99ZgZiM+5paSosaOjIaGaKnI/7DTFXW26a3fJcwLgiKxgC+O3b439W4Qx9el9jj18wtldm2ovSiM1VhXUMvSvcmLv/ZP0TZa/stWl2ywbaiNvdswqLGzpU6jTc+07MoyMy056VponNT9clnn59Q5+KnIPHB2aw46bZrafjmD20Qe6VDVHkPhPPakw7bJq5ZbJ56vLHl9yrHLqV++w7MTCDEzLTXpSmiQ3Adk4PzOCczAyMNQB7eHU/4vjGtHMzMxAbgK10FZjB+ZkZiA3AGh0GZtBLZpobNgCLdBuYQUeZGbyKTdMbgM86D8ygu8wMxAZgRIjADDrNzEBsAO4ECsyg68wMxAZg5DtTug3MIEBmrvQGKChuYAaRMjMQG6CI6IEZxMvMYCQ2TW+AyHLU5SpqZgZiA6Qx/o31EQMziJ2ZK70B4soamEGSzAzEBggkd12uUmXmSm+Abr39dY5pAjPImZnBeGya3gAHqlaXq8yZudIb4Cxl63JVIjNXegMc421dWoHADGpl5kpvgD2oy6Oimbl625smOcA76jKiemau9AaYS12mkJl7U3rTJAeqmpKWpi43ZOYlvQEG0rKGzLw3sTdNciAXddmEzMwjOZDbxLQ0dZlMZpaTHMhBWnYlMxuY3psmOdAHaTmMzGxsVnKa6sBRpndloC5bkZkdSQ6cS1p6IDMHmZucpjow39yuNGnZn8ycYEFymurAM7rSP5k5n+rARAuiMpCWE8lMX5YlZyA85KMrCchM19ZUpwkP0SyOStOVjslMJCur04SHnqyJStOVOGQmtvXhadrD/lYWZaArQclMKptUZ6A9LLBJTgaikobMJLdheAbyQ9s0JwNRSUxmKtq8PQMFSmbzllyJSikyww87teeWDvVmv5BcKQoywxsH5OeWFG3igH7ckRNekRkWOjg/43LH6fhmjJAT5pIZdtFVhJhFSNiWzHACETqRinCw/weHnO27sVP46AAAAABJRU5ErkJggg==;strokeColor=none;strokeWidth=3;labelBackgroundColor=none;rounded=0;html=1;whiteSpace=wrap;" parent="1" vertex="1">
          <mxGeometry x="1073" y="346" width="100" height="48" as="geometry" />
        </mxCell>
        <mxCell id="6p9jYXADkKIyNsR3x7E2-119" value="&lt;font style=&quot;font-size:16px;font-family:Calibri;color:#ff0000;direction:ltr;letter-spacing:0px;line-height:120%;opacity:1&quot;&gt;VPLS&lt;br/&gt;&lt;/font&gt;" style="verticalAlign=middle;align=center;vsdxID=755;fillColor=none;gradientColor=none;shape=stencil(nZBLDoAgDERP0z3SIyjew0SURgSD+Lu9kMZoXLhwN9O+tukAlrNpJg1SzDH4QW/URgNYgZTkjA4UkwJUgGXng+6DX1zLfmoymdXo17xh5zmRJ6Q42BWCfc2oJfdAr+Yv+AP9Cb7OJ3H/2JG1HNGz/84klThPVCc=);strokeColor=none;strokeWidth=3;labelBackgroundColor=none;rounded=0;html=1;whiteSpace=wrap;" parent="1" vertex="1">
          <mxGeometry x="770" y="300" width="214" height="28" as="geometry" />
        </mxCell>
        <mxCell id="6p9jYXADkKIyNsR3x7E2-120" value="&lt;font style=&quot;font-size:16px;font-family:Calibri;color:#5c5c5c;direction:ltr;letter-spacing:0px;line-height:120%;opacity:1&quot;&gt;VPRN5300103????&lt;br&gt;&lt;/font&gt;" style="verticalAlign=middle;align=center;vsdxID=784;fillColor=#ffffff;gradientColor=none;shape=stencil(nZBLDoAgDERP0z3SIyjew0SURgSD+Lu9kMZoXLhwN9O+tukAlrNpJg1SzDH4QW/URgNYgZTkjA4UkwJUgGXng+6DX1zLfmoymdXo17xh5zmRJ6Q42BWCfc2oJfdAr+Yv+AP9Cb7OJ3H/2JG1HNGz/84klThPVCc=);strokeColor=none;strokeWidth=3;labelBackgroundColor=none;rounded=0;html=1;whiteSpace=wrap;" parent="1" vertex="1">
          <mxGeometry x="1357" y="328" width="113" height="31" as="geometry" />
        </mxCell>
        <mxCell id="6p9jYXADkKIyNsR3x7E2-121" value="&lt;p style=&quot;align:center;margin-left:0;margin-right:0;margin-top:0px;margin-bottom:0px;text-indent:0;valign:middle;direction:ltr;&quot;&gt;&lt;font style=&quot;font-size:16px;font-family:Calibri;color:#ff0000;direction:ltr;letter-spacing:0px;line-height:120%;opacity:1&quot;&gt;vlxx..xx&lt;br&gt;&lt;/font&gt;&lt;/p&gt;" style="verticalAlign=middle;align=center;vsdxID=785;fillColor=none;gradientColor=none;shape=stencil(nZBLDoAgDERP0z3SIyjew0SURgSD+Lu9kMZoXLhwN9O+tukAlrNpJg1SzDH4QW/URgNYgZTkjA4UkwJUgGXng+6DX1zLfmoymdXo17xh5zmRJ6Q42BWCfc2oJfdAr+Yv+AP9Cb7OJ3H/2JG1HNGz/84klThPVCc=);strokeColor=none;strokeWidth=3;labelBackgroundColor=none;rounded=0;html=1;whiteSpace=wrap;" parent="1" vertex="1">
          <mxGeometry x="770" y="260" width="214" height="28" as="geometry" />
        </mxCell>
        <mxCell id="6p9jYXADkKIyNsR3x7E2-122" value="&lt;font style=&quot;font-size:11px;font-family:Calibri;color:#ff0000;direction:ltr;letter-spacing:0px;line-height:120%;opacity:1&quot;&gt;Spoke-sdp&lt;br/&gt;&lt;/font&gt;" style="vsdxID=745;edgeStyle=none;startArrow=none;endArrow=none;startSize=5;endSize=5;strokeWidth=3;strokeColor=#ff0000;spacingTop=0;spacingBottom=0;spacingLeft=0;spacingRight=0;verticalAlign=middle;html=1;labelBackgroundColor=#ffffff;rounded=0;align=center;entryX=1;entryY=0.5;entryDx=0;entryDy=0;" parent="1" target="6p9jYXADkKIyNsR3x7E2-94" edge="1">
          <mxGeometry relative="1" as="geometry">
            <mxPoint x="1100" y="294" as="sourcePoint" />
            <mxPoint x="738" y="294" as="targetPoint" />
          </mxGeometry>
        </mxCell>
        <mxCell id="6p9jYXADkKIyNsR3x7E2-123" value="" style="vsdxID=235;edgeStyle=none;startArrow=none;endArrow=none;startSize=5;endSize=5;strokeWidth=3;strokeColor=#ff0000;spacingTop=0;spacingBottom=0;spacingLeft=0;spacingRight=0;verticalAlign=middle;html=1;labelBackgroundColor=#ffffff;rounded=0;align=center;exitX=0.28;exitY=0.5;exitDx=0;exitDy=0;exitPerimeter=0;" parent="1" source="6p9jYXADkKIyNsR3x7E2-66" edge="1">
          <mxGeometry relative="1" as="geometry">
            <mxPoint x="10" as="offset" />
            <Array as="points" />
            <mxPoint x="1907.5" y="220.5" as="sourcePoint" />
            <mxPoint x="1650" y="290" as="targetPoint" />
          </mxGeometry>
        </mxCell>
        <mxCell id="6p9jYXADkKIyNsR3x7E2-124" value="" style="vsdxID=243;edgeStyle=none;startArrow=none;endArrow=none;startSize=5;endSize=5;strokeWidth=3;strokeColor=#a5a5a5;spacingTop=0;spacingBottom=0;spacingLeft=0;spacingRight=0;verticalAlign=middle;html=1;labelBackgroundColor=#ffffff;rounded=0;align=center;" parent="1" target="6p9jYXADkKIyNsR3x7E2-108" edge="1">
          <mxGeometry relative="1" as="geometry">
            <mxPoint x="1970" y="167.5" as="sourcePoint" />
            <mxPoint x="2110" y="249.5" as="targetPoint" />
          </mxGeometry>
        </mxCell>
        <mxCell id="6p9jYXADkKIyNsR3x7E2-125" style="vsdxID=458;edgeStyle=none;startArrow=none;endArrow=none;startSize=5;endSize=5;strokeWidth=3;strokeColor=#a5a5a5;spacingTop=0;spacingBottom=0;spacingLeft=0;spacingRight=0;verticalAlign=middle;html=1;labelBackgroundColor=#FFFFFF;rounded=0;exitX=1;exitY=0.4519230769230769;exitDx=0;exitDy=0;exitPerimeter=0;entryX=0;entryY=0.5;entryDx=0;entryDy=0;entryPerimeter=0;" parent="1" source="6p9jYXADkKIyNsR3x7E2-82" target="6p9jYXADkKIyNsR3x7E2-92" edge="1">
          <mxGeometry relative="1" as="geometry">
            <mxPoint as="offset" />
            <Array as="points" />
          </mxGeometry>
        </mxCell>
        <mxCell id="6p9jYXADkKIyNsR3x7E2-126" value="&lt;p style=&quot;align:right;margin-left:0;margin-right:0;margin-top:0px;margin-bottom:0px;text-indent:0;valign:middle;direction:ltr;&quot;&gt;&lt;font style=&quot;font-size:16px;font-family:Calibri;color:#5c5c5c;direction:ltr;letter-spacing:0px;line-height:120%;opacity:1&quot;&gt;&lt;b&gt;г.Уральск&lt;br&gt;БС в населенном пункте&lt;br&gt;&lt;/b&gt;&lt;/font&gt;&lt;/p&gt;" style="text;vsdxID=270;fillColor=none;gradientColor=none;dashed=1;strokeColor=none;strokeWidth=3;labelBackgroundColor=none;rounded=0;html=1;whiteSpace=wrap;verticalAlign=middle;align=right;;html=1;" parent="1" vertex="1">
          <mxGeometry y="200" width="260" height="28.37" as="geometry" />
        </mxCell>
      </root>
    </mxGraphModel>
  </diagram>
</mxfile>
